<svg xmlns="http://www.w3.org/2000/svg" xmlns:xlink="http://www.w3.org/1999/xlink" width="212.16" height="329.28" viewBox="0 0 159.12 246.96"><defs><symbol overflow="visible" id="a"><path d="M2.031-5.828h.672L.672.75H0zm0 0"/></symbol><symbol overflow="visible" id="c"><path d="M7.938-8.766a3 3 0 0 1-.25 1.188 4.894 4.894 0 0 1-.657 1.11c-.273.366-.578.73-.922 1.093a51.51 51.51 0 0 1-1.015 1.047l-.672.672c-.25.261-.492.539-.719.828-.23.281-.422.555-.578.812-.148.262-.219.485-.219.672h5.422V0h-7.14a1.249 1.249 0 0 1-.016-.203v-.188c0-.53.086-1.023.266-1.484.175-.457.406-.89.687-1.297.281-.414.598-.8.953-1.156.352-.363.695-.719 1.031-1.063.282-.27.547-.535.797-.796.258-.27.489-.536.688-.797a3.68 3.68 0 0 0 .484-.829c.113-.289.172-.593.172-.906a2.14 2.14 0 0 0-.156-.86 1.602 1.602 0 0 0-.438-.593 1.616 1.616 0 0 0-.64-.36 2.727 2.727 0 0 0-.766-.109 2.73 2.73 0 0 0-.906.141 3.709 3.709 0 0 0-.735.313 2.79 2.79 0 0 0-.53.374c-.15.126-.263.227-.345.297l-.78-1.125a4.74 4.74 0 0 1 .452-.421c.207-.165.453-.32.735-.47a4.7 4.7 0 0 1 .953-.359 4.107 4.107 0 0 1 1.14-.156c1.239 0 2.164.29 2.782.86.613.562.921 1.37.921 2.421zm0 0"/></symbol><symbol overflow="visible" id="d"><path d="M3.688-3.844c0 .211-.063.39-.188.547a.604.604 0 0 1-.484.219.614.614 0 0 1-.5-.219.845.845 0 0 1-.188-.547c0-.207.063-.39.188-.547a.604.604 0 0 1 .5-.234c.195 0 .359.078.484.234.125.157.188.34.188.547zm-3.141.14c0-1.25.21-2.206.64-2.874.426-.664 1.032-1 1.813-1 .781 0 1.379.336 1.797 1 .426.668.64 1.625.64 2.875 0 1.242-.214 2.195-.64 2.86-.418.667-1.016 1-1.797 1-.781 0-1.387-.333-1.813-1-.43-.665-.64-1.618-.64-2.86zm3.875 0c0-.413-.027-.8-.078-1.155a3.585 3.585 0 0 0-.235-.954 1.546 1.546 0 0 0-.437-.64.96.96 0 0 0-.672-.25c-.281 0-.516.086-.703.25-.18.156-.324.371-.438.64-.105.274-.183.59-.234.954a9.697 9.697 0 0 0-.063 1.156c0 .406.02.793.063 1.156.05.356.129.668.234.938.114.273.258.492.438.656.187.156.422.234.703.234.27 0 .492-.078.672-.234a1.63 1.63 0 0 0 .437-.656 3.48 3.48 0 0 0 .235-.938c.05-.363.078-.75.078-1.156zm0 0"/></symbol><symbol overflow="visible" id="e"><path d="M4.547 0a14.777 14.777 0 0 0-.672-1.11c-.137-.206-.277-.41-.422-.609a26 26 0 0 0-.437-.562c-.149.18-.297.37-.454.578-.156.2-.312.402-.468.61A13.373 13.373 0 0 0 1.359 0H.344c.258-.477.578-.969.953-1.469.383-.508.758-.992 1.125-1.453L.437-5.547h1.11l1.5 1.938 1.375-1.938h1.047L3.64-2.984c.351.468.71.964 1.078 1.484.363.512.676 1.012.937 1.5zm0 0"/></symbol><symbol overflow="visible" id="f"><path d="M5.672-5.906c0 .312-.094.59-.281.828a.916.916 0 0 1-.75.344c-.325 0-.586-.114-.782-.344a1.304 1.304 0 0 1-.28-.828c0-.32.093-.602.28-.844a.943.943 0 0 1 .782-.375.89.89 0 0 1 .75.375c.187.242.28.523.28.844zm-4.828.203c0-1.914.328-3.383.984-4.406.656-1.032 1.582-1.547 2.781-1.547 1.196 0 2.118.515 2.766 1.547.656 1.023.984 2.492.984 4.406 0 1.906-.328 3.375-.984 4.406C6.727-.273 5.805.234 4.609.234c-1.199 0-2.125-.507-2.78-1.53-.657-1.032-.985-2.5-.985-4.407zm5.968 0c0-.633-.039-1.227-.109-1.781a5.716 5.716 0 0 0-.375-1.47c-.168-.413-.39-.741-.672-.983-.281-.25-.633-.376-1.047-.376-.418 0-.773.126-1.062.376-.281.242-.512.57-.688.984A5.885 5.885 0 0 0 2.5-7.484c-.074.554-.11 1.148-.11 1.78 0 .626.036 1.22.11 1.782.07.555.191 1.04.36 1.453.175.418.406.75.687 1 .289.242.644.36 1.062.36.414 0 .766-.118 1.047-.36.282-.25.504-.582.672-1 .176-.414.3-.898.375-1.453.07-.562.11-1.156.11-1.781zm0 0"/></symbol><symbol overflow="visible" id="g"><path d="M7.734-8.5c0 .398-.078.781-.234 1.156a4.984 4.984 0 0 1-.61 1.078c-.25.356-.538.704-.859 1.047-.312.344-.636.684-.968 1.016-.18.187-.391.414-.641.672-.25.25-.484.511-.703.781a5.9 5.9 0 0 0-.547.797c-.149.262-.219.48-.219.656h5.25V0H1.297a.525.525 0 0 1-.031-.188V-.39c0-.507.082-.984.25-1.421.175-.446.398-.868.671-1.266.27-.395.57-.766.907-1.11.344-.351.68-.695 1.015-1.03L4.891-6c.25-.258.468-.52.656-.781.195-.258.351-.524.469-.797a2.28 2.28 0 0 0 .171-.86c0-.332-.054-.613-.156-.843a1.575 1.575 0 0 0-.422-.578 1.713 1.713 0 0 0-.625-.344c-.23-.07-.48-.11-.75-.11a2.97 2.97 0 0 0-.875.126 3.415 3.415 0 0 0-.703.312c-.199.125-.37.246-.515.36-.149.117-.258.21-.329.28l-.765-1.062c.101-.113.25-.25.437-.406.196-.156.43-.3.704-.438.28-.144.593-.265.937-.359.344-.102.71-.156 1.11-.156 1.195 0 2.077.277 2.64.828.57.543.86 1.32.86 2.328zm0 0"/></symbol><symbol overflow="visible" id="h"><path d="M40.906-43.625c0 2.043-.43 4.043-1.281 6a30.686 30.686 0 0 1-3.281 5.703 45.331 45.331 0 0 1-4.547 5.344c-1.7 1.73-3.399 3.418-5.094 5.062a83.463 83.463 0 0 0-3.062 3.063 84.138 84.138 0 0 0-3.235 3.578 36.01 36.01 0 0 0-2.64 3.438c-.73 1.105-1.125 2.027-1.188 2.765h26.188V0h-37.5a14.306 14.306 0 0 1-.079-1.656v-1.485c0-2.726.438-5.238 1.313-7.53a28.706 28.706 0 0 1 3.453-6.407 44.96 44.96 0 0 1 4.75-5.625 410.146 410.146 0 0 1 5.281-5.188 279.53 279.53 0 0 0 3.907-3.828 38.273 38.273 0 0 0 3.28-3.703c.938-1.219 1.688-2.46 2.25-3.734a9.654 9.654 0 0 0 .845-3.953c0-2.946-.852-5.047-2.547-6.297-1.7-1.25-3.766-1.875-6.203-1.875-1.594 0-3.075.23-4.438.687-1.355.461-2.558 1-3.61 1.625-1.042.617-1.96 1.25-2.75 1.907-.792.648-1.39 1.171-1.796 1.578L3.828-52.72c2.375-2.27 5.16-4.097 8.36-5.484 3.207-1.383 6.656-2.078 10.343-2.078 6.29 0 10.926 1.492 13.907 4.468 2.976 2.97 4.468 7.032 4.468 12.188zm0 0"/></symbol><clipPath id="b"><path d="M0 0h159v246.75H0zm0 0"/></clipPath></defs><path fill="#fff" d="M0 0h159.12v246.96H0z"/><use xlink:href="#a" x="114.547" y="230"/><g clip-path="url(#b)"><path d="M0-17025.75h159V8883H0zm0 0" fill="#fff"/></g><use xlink:href="#c" x="11.332" y="25.5" fill="#f06"/><use xlink:href="#d" x="116.32" y="25.5" fill="#888"/><use xlink:href="#e" x="122.303" y="25.5" fill="#888"/><use xlink:href="#f" x="128.977" y="25.5" fill="#f06"/><use xlink:href="#g" x="138.182" y="25.5" fill="#f06"/><use xlink:href="#h" x="56.625" y="111" fill="#f06"/><path d="M54.547 181.05l6.398-6.374h12.797v12.75l-6.398 6.375H54.547zm0 0" fill="#f06"/><path d="M67.344 181.05l6.398-6.374v12.75l-6.398 6.375zm0 0" fill="#502"/><path d="M54.547 181.05l6.398-6.374h12.797l-6.398 6.375zm0 0" fill="#a04"/><path d="M85.258 181.05l6.398-6.374h12.797v12.75l-6.398 6.375H85.258zm0 0" fill="#f06"/><path d="M98.055 181.05l6.398-6.374v12.75l-6.398 6.375zm0 0" fill="#502"/><path d="M85.258 181.05l6.398-6.374h12.797l-6.398 6.375zm0 0" fill="#a04"/></svg>