<svg xmlns="http://www.w3.org/2000/svg" xmlns:xlink="http://www.w3.org/1999/xlink" width="212.16" height="329.28" viewBox="0 0 159.12 246.96"><defs><symbol overflow="visible" id="a"><path d="M2.031-5.828h.672L.672.75H0zm0 0"/></symbol><symbol overflow="visible" id="c"><path d="M3.125-10.297a4.54 4.54 0 0 0-1.14.14c-.368.095-.747.25-1.141.47l-.578-1.579a5.991 5.991 0 0 1 1.437-.562 6.384 6.384 0 0 1 1.656-.219c.688 0 1.25.094 1.688.281.445.188.8.422 1.062.704.258.28.438.593.532.937a3.4 3.4 0 0 1 .156.984c0 .387-.074.73-.219 1.032a3.528 3.528 0 0 1-.531.843 7.687 7.687 0 0 1-.688.75c-.25.23-.484.47-.703.72a3.881 3.881 0 0 0-.547.765 2.024 2.024 0 0 0-.203.922v.187c0 .074.004.149.016.219H2.156a4.244 4.244 0 0 1-.063-.734c0-.376.063-.708.188-1 .125-.29.281-.563.469-.813.195-.25.406-.484.625-.703.219-.219.422-.43.61-.64a3.63 3.63 0 0 0 .484-.673c.125-.226.187-.476.187-.75 0-.375-.133-.68-.39-.921-.25-.239-.633-.36-1.141-.36zm1.328 9.172c0 .398-.133.719-.39.969a1.35 1.35 0 0 1-.97.375c-.374 0-.698-.125-.968-.375-.262-.25-.39-.57-.39-.969 0-.395.128-.719.39-.969.27-.258.594-.39.969-.39.383 0 .707.132.969.39.257.25.39.574.39.969zm0 0"/></symbol><clipPath id="b"><path d="M0 0h159v246.75H0zm0 0"/></clipPath><clipPath id="d"><path d="M45 59.25h21V80H45zm0 0"/></clipPath><clipPath id="e"><path d="M58 59.25h8V80h-8zm0 0"/></clipPath><clipPath id="f"><path d="M45 59.25h21V66H45zm0 0"/></clipPath><clipPath id="g"><path d="M61 59.25h21V80H61zm0 0"/></clipPath><clipPath id="h"><path d="M74 59.25h8V80h-8zm0 0"/></clipPath><clipPath id="i"><path d="M61 59.25h21V66H61zm0 0"/></clipPath><clipPath id="j"><path d="M77 59.25h21V80H77zm0 0"/></clipPath><clipPath id="k"><path d="M90 59.25h8V80h-8zm0 0"/></clipPath><clipPath id="l"><path d="M77 59.25h21V66H77zm0 0"/></clipPath><clipPath id="m"><path d="M93 59.25h21V80H93zm0 0"/></clipPath><clipPath id="n"><path d="M107 59.25h7V80h-7zm0 0"/></clipPath><clipPath id="o"><path d="M93 59.25h21V66H93zm0 0"/></clipPath></defs><path fill="#fff" d="M0 0h159.12v246.96H0z"/><use xlink:href="#a" x="114.547" y="230"/><g clip-path="url(#b)"><path d="M0-16038.75h159V9870H0zm0 0" fill="#fff"/></g><use xlink:href="#c" x="11.332" y="25.5" fill="#f06"/><use xlink:href="#c" x="140.191" y="25.5" fill="#f06"/><path d="M61.332 195.195l6.73-6.73H81.52v13.46l-6.73 6.727H61.331zm0 0" fill="#f06"/><path d="M74.79 195.195l6.73-6.73v13.46l-6.73 6.727zm0 0" fill="#502"/><path d="M61.332 195.195l6.73-6.73H81.52l-6.73 6.73zm0 0" fill="#a04"/><path d="M77.48 195.195l6.73-6.73h13.458v13.46l-6.73 6.727H77.48zm0 0" fill="#f06"/><path d="M90.938 195.195l6.73-6.73v13.46l-6.73 6.727zm0 0" fill="#502"/><path d="M77.48 195.195l6.73-6.73h13.458l-6.73 6.73zm0 0" fill="#a04"/><path d="M61.332 179.043l6.73-6.73H81.52v13.46l-6.73 6.73H61.331zm0 0" fill="#f06"/><path d="M74.79 179.043l6.73-6.73v13.46l-6.73 6.73zm0 0" fill="#502"/><path d="M61.332 179.043l6.73-6.73H81.52l-6.73 6.73zm0 0" fill="#a04"/><path d="M77.48 179.043l6.73-6.73h13.458v13.46l-6.73 6.73H77.48zm0 0" fill="#f06"/><path d="M90.938 179.043l6.73-6.73v13.46l-6.73 6.73zm0 0" fill="#502"/><path d="M77.48 179.043l6.73-6.73h13.458l-6.73 6.73zm0 0" fill="#a04"/><path d="M61.332 146.738l6.73-6.73H81.52v13.46l-6.73 6.731H61.331zm0 0" fill="#f06"/><path d="M74.79 146.738l6.73-6.73v13.46l-6.73 6.731zm0 0" fill="#502"/><path d="M61.332 146.738l6.73-6.73H81.52l-6.73 6.73zm0 0" fill="#a04"/><path d="M77.48 146.738l6.73-6.73h13.458v13.46l-6.73 6.731H77.48zm0 0" fill="#f06"/><path d="M90.938 146.738l6.73-6.73v13.46l-6.73 6.731zm0 0" fill="#502"/><path d="M77.48 146.738l6.73-6.73h13.458l-6.73 6.73zm0 0" fill="#a04"/><path d="M77.48 130.586l6.73-6.73h13.458v13.46l-6.73 6.73H77.48zm0 0" fill="#f06"/><path d="M90.938 130.586l6.73-6.73v13.46l-6.73 6.73zm0 0" fill="#502"/><path d="M77.48 130.586l6.73-6.73h13.458l-6.73 6.73zm0 0" fill="#a04"/><path d="M93.629 130.586l6.73-6.73h13.457v13.46l-6.726 6.73H93.629zm0 0" fill="#f06"/><path d="M107.09 130.586l6.726-6.73v13.46l-6.726 6.73zm0 0" fill="#502"/><path d="M93.629 130.586l6.73-6.73h13.457l-6.726 6.73zm0 0" fill="#a04"/><path d="M93.629 114.434l6.73-6.727h13.457v13.457l-6.726 6.73H93.629zm0 0" fill="#f06"/><path d="M107.09 114.434l6.726-6.727v13.457l-6.726 6.73zm0 0" fill="#502"/><path d="M93.629 114.434l6.73-6.727h13.457l-6.726 6.727zm0 0" fill="#a04"/><path d="M109.781 114.434l6.727-6.727h13.457v13.457l-6.727 6.73h-13.457zm0 0" fill="#f06"/><path d="M123.238 114.434l6.727-6.727v13.457l-6.727 6.73zm0 0" fill="#502"/><path d="M109.781 114.434l6.727-6.727h13.457l-6.727 6.727zm0 0" fill="#a04"/><path d="M93.629 98.285l6.73-6.73h13.457v13.457l-6.726 6.73H93.629zm0 0" fill="#f06"/><path d="M107.09 98.285l6.726-6.73v13.457l-6.726 6.73zm0 0" fill="#502"/><path d="M93.629 98.285l6.73-6.73h13.457l-6.726 6.73zm0 0" fill="#a04"/><path d="M109.781 98.285l6.727-6.73h13.457v13.457l-6.727 6.73h-13.457zm0 0" fill="#f06"/><path d="M123.238 98.285l6.727-6.73v13.457l-6.727 6.73zm0 0" fill="#502"/><path d="M109.781 98.285l6.727-6.73h13.457l-6.727 6.73zm0 0" fill="#a04"/><path d="M29.035 82.133l6.727-6.73h13.457v13.46l-6.727 6.727H29.035zm0 0" fill="#f06"/><path d="M42.492 82.133l6.727-6.73v13.46l-6.727 6.727zm0 0" fill="#502"/><path d="M29.035 82.133l6.727-6.73h13.457l-6.727 6.73zm0 0" fill="#a04"/><path d="M45.184 82.133l6.726-6.73h13.461v13.46l-6.73 6.727H45.184zm0 0" fill="#f06"/><path d="M58.64 82.133l6.731-6.73v13.46l-6.73 6.727zm0 0" fill="#502"/><path d="M45.184 82.133l6.726-6.73h13.461l-6.73 6.73zm0 0" fill="#a04"/><path d="M93.629 82.133l6.73-6.73h13.457v13.46l-6.726 6.727H93.629zm0 0" fill="#f06"/><path d="M107.09 82.133l6.726-6.73v13.46l-6.726 6.727zm0 0" fill="#502"/><path d="M93.629 82.133l6.73-6.73h13.457l-6.726 6.73zm0 0" fill="#a04"/><path d="M109.781 82.133l6.727-6.73h13.457v13.46l-6.727 6.727h-13.457zm0 0" fill="#f06"/><path d="M123.238 82.133l6.727-6.73v13.46l-6.727 6.727zm0 0" fill="#502"/><path d="M109.781 82.133l6.727-6.73h13.457l-6.727 6.73zm0 0" fill="#a04"/><g clip-path="url(#d)"><path d="M45.184 65.98l6.726-6.73h13.461v13.46l-6.73 6.731H45.184zm0 0" fill="#f06"/></g><g clip-path="url(#e)"><path d="M58.64 65.98l6.731-6.73v13.46l-6.73 6.731zm0 0" fill="#502"/></g><g clip-path="url(#f)"><path d="M45.184 65.98l6.726-6.73h13.461l-6.73 6.73zm0 0" fill="#a04"/></g><g clip-path="url(#g)"><path d="M61.332 65.98l6.73-6.73H81.52v13.46l-6.73 6.731H61.331zm0 0" fill="#f06"/></g><g clip-path="url(#h)"><path d="M74.79 65.98l6.73-6.73v13.46l-6.73 6.731zm0 0" fill="#502"/></g><g clip-path="url(#i)"><path d="M61.332 65.98l6.73-6.73H81.52l-6.73 6.73zm0 0" fill="#a04"/></g><g clip-path="url(#j)"><path d="M77.48 65.98l6.73-6.73h13.458v13.46l-6.73 6.731H77.48zm0 0" fill="#f06"/></g><g clip-path="url(#k)"><path d="M90.938 65.98l6.73-6.73v13.46l-6.73 6.731zm0 0" fill="#502"/></g><g clip-path="url(#l)"><path d="M77.48 65.98l6.73-6.73h13.458l-6.73 6.73zm0 0" fill="#a04"/></g><g clip-path="url(#m)"><path d="M93.629 65.98l6.73-6.73h13.457v13.46l-6.726 6.731H93.629zm0 0" fill="#f06"/></g><g clip-path="url(#n)"><path d="M107.09 65.98l6.726-6.73v13.46l-6.726 6.731zm0 0" fill="#502"/></g><g clip-path="url(#o)"><path d="M93.629 65.98l6.73-6.73h13.457l-6.726 6.73zm0 0" fill="#a04"/></g></svg>