<svg xmlns="http://www.w3.org/2000/svg" xmlns:xlink="http://www.w3.org/1999/xlink" width="212.16" height="329.28" viewBox="0 0 159.12 246.96"><defs><symbol overflow="visible" id="a"><path d="M2.031-5.828h.672L.672.75H0zm0 0"/></symbol><symbol overflow="visible" id="c"><path d="M.688-4.078c.207-.5.5-1.078.875-1.734a31.08 31.08 0 0 1 1.265-2.047 29 29 0 0 1 1.516-2.079c.539-.687 1.082-1.3 1.625-1.843h1.515v7.484h1.391v1.281h-1.39V0H5.952v-3.016H.687zm5.265-5.828a16.65 16.65 0 0 0-1.031 1.219 25.08 25.08 0 0 0-1.016 1.39c-.324.492-.633.992-.922 1.5a19.833 19.833 0 0 0-.78 1.5h3.75zm0 0"/></symbol><symbol overflow="visible" id="d"><path d="M.844-5.906c0-1.969.347-3.485 1.047-4.547.695-1.063 1.664-1.594 2.906-1.594 1.226 0 2.191.531 2.89 1.594.696 1.062 1.047 2.578 1.047 4.547 0 1.98-.351 3.5-1.046 4.562C6.987-.28 6.022.25 4.796.25c-1.241 0-2.21-.531-2.906-1.594C1.19-2.406.844-3.926.844-5.906zm6.234 0c0-.645-.043-1.254-.125-1.828a6.016 6.016 0 0 0-.375-1.516c-.168-.426-.402-.766-.703-1.016a1.577 1.577 0 0 0-1.078-.39c-.438 0-.805.133-1.094.39-.293.25-.527.59-.703 1.016a5.7 5.7 0 0 0-.375 1.516c-.074.574-.11 1.183-.11 1.828 0 .648.036 1.261.11 1.843.07.575.195 1.079.375 1.516.176.43.41.774.703 1.031.29.25.656.375 1.094.375.426 0 .785-.125 1.078-.375.3-.257.535-.601.703-1.03.176-.438.3-.942.375-1.517.082-.582.125-1.195.125-1.843zm0 0"/></symbol><symbol overflow="visible" id="e"><path d="M3.688-3.844c0 .211-.063.39-.188.547a.604.604 0 0 1-.484.219.614.614 0 0 1-.5-.219.845.845 0 0 1-.188-.547c0-.207.063-.39.188-.547a.604.604 0 0 1 .5-.234c.195 0 .359.078.484.234.125.157.188.34.188.547zm-3.141.14c0-1.25.21-2.206.64-2.874.426-.664 1.032-1 1.813-1 .781 0 1.379.336 1.797 1 .426.668.64 1.625.64 2.875 0 1.242-.214 2.195-.64 2.86-.418.667-1.016 1-1.797 1-.781 0-1.387-.333-1.813-1-.43-.665-.64-1.618-.64-2.86zm3.875 0c0-.413-.027-.8-.078-1.155a3.585 3.585 0 0 0-.235-.954 1.546 1.546 0 0 0-.437-.64.96.96 0 0 0-.672-.25c-.281 0-.516.086-.703.25-.18.156-.324.371-.438.64-.105.274-.183.59-.234.954a9.697 9.697 0 0 0-.063 1.156c0 .406.02.793.063 1.156.05.356.129.668.234.938.114.273.258.492.438.656.187.156.422.234.703.234.27 0 .492-.078.672-.234a1.63 1.63 0 0 0 .437-.656 3.48 3.48 0 0 0 .235-.938c.05-.363.078-.75.078-1.156zm0 0"/></symbol><symbol overflow="visible" id="f"><path d="M4.547 0a14.777 14.777 0 0 0-.672-1.11c-.137-.206-.277-.41-.422-.609a26 26 0 0 0-.437-.562c-.149.18-.297.37-.454.578-.156.2-.312.402-.468.61A13.373 13.373 0 0 0 1.359 0H.344c.258-.477.578-.969.953-1.469.383-.508.758-.992 1.125-1.453L.437-5.547h1.11l1.5 1.938 1.375-1.938h1.047L3.64-2.984c.351.468.71.964 1.078 1.484.363.512.676 1.012.937 1.5zm0 0"/></symbol><symbol overflow="visible" id="g"><path d="M7.734-8.5c0 .398-.078.781-.234 1.156a4.984 4.984 0 0 1-.61 1.078c-.25.356-.538.704-.859 1.047-.312.344-.636.684-.968 1.016-.18.187-.391.414-.641.672-.25.25-.484.511-.703.781a5.9 5.9 0 0 0-.547.797c-.149.262-.219.48-.219.656h5.25V0H1.297a.525.525 0 0 1-.031-.188V-.39c0-.507.082-.984.25-1.421.175-.446.398-.868.671-1.266.27-.395.57-.766.907-1.11.344-.351.68-.695 1.015-1.03L4.891-6c.25-.258.468-.52.656-.781.195-.258.351-.524.469-.797a2.28 2.28 0 0 0 .171-.86c0-.332-.054-.613-.156-.843a1.575 1.575 0 0 0-.422-.578 1.713 1.713 0 0 0-.625-.344c-.23-.07-.48-.11-.75-.11a2.97 2.97 0 0 0-.875.126 3.415 3.415 0 0 0-.703.312c-.199.125-.37.246-.515.36-.149.117-.258.21-.329.28l-.765-1.062c.101-.113.25-.25.437-.406.196-.156.43-.3.704-.438.28-.144.593-.265.937-.359.344-.102.71-.156 1.11-.156 1.195 0 2.077.277 2.64.828.57.543.86 1.32.86 2.328zm0 0"/></symbol><symbol overflow="visible" id="h"><path d="M8.266-2.969c0 .961-.305 1.735-.907 2.328-.605.586-1.527.875-2.765.875-.719 0-1.313-.093-1.782-.28-.46-.188-.828-.43-1.109-.735a2.82 2.82 0 0 1-.594-1 3.643 3.643 0 0 1-.171-1.094c0-.645.175-1.219.53-1.719A4.63 4.63 0 0 1 2.75-5.828C1.695-6.41 1.172-7.312 1.172-8.531c0-.414.078-.813.234-1.188.164-.383.395-.719.688-1 .3-.281.66-.504 1.078-.672a3.74 3.74 0 0 1 1.437-.265c.614 0 1.133.094 1.563.281.437.18.789.414 1.062.703.27.281.47.602.594.953.125.356.188.7.188 1.031 0 .649-.168 1.211-.5 1.688a4.385 4.385 0 0 1-1.141 1.125c1.258.605 1.89 1.574 1.89 2.906zm-5.86.11c0 .199.035.406.11.625.082.21.207.406.375.593a1.9 1.9 0 0 0 .687.454c.281.117.625.171 1.031.171.375 0 .696-.05.97-.156a1.83 1.83 0 0 0 .687-.422c.187-.176.32-.375.406-.593.082-.227.125-.454.125-.672 0-.696-.258-1.235-.766-1.61-.5-.375-1.195-.66-2.078-.86-.492.274-.871.61-1.14 1.016-.274.407-.407.891-.407 1.454zm4.14-5.829a1.46 1.46 0 0 0-.124-.546 1.62 1.62 0 0 0-.344-.563 1.835 1.835 0 0 0-.594-.422 2.043 2.043 0 0 0-.875-.172c-.355 0-.652.059-.89.172a1.957 1.957 0 0 0-.61.406 1.563 1.563 0 0 0-.343.563c-.063.2-.094.398-.094.594 0 .5.18.969.547 1.406.363.438.96.758 1.797.953a3.81 3.81 0 0 0 1.109-.953c.281-.375.422-.852.422-1.438zm0 0"/></symbol><symbol overflow="visible" id="i"><path d="M28.656-46.25a172.305 172.305 0 0 0-4.218 5.266 111.646 111.646 0 0 0-4.204 5.875 126.414 126.414 0 0 0-3.906 6.25 91.53 91.53 0 0 0-3.406 6.328h15.734zm10.032-12.672v36.39h6.64v8.423h-6.64V0H28.655v-14.11H2.813v-7.312c1.124-2.5 2.632-5.363 4.53-8.594a178.337 178.337 0 0 1 6.345-9.937A174.745 174.745 0 0 1 21.078-50c2.613-3.29 5.223-6.266 7.828-8.922zm0 0"/></symbol><symbol overflow="visible" id="j"><path d="M44.64-29.5c0 9.918-1.82 17.527-5.453 22.828-3.624 5.305-8.636 7.953-15.03 7.953-6.407 0-11.43-2.648-15.063-7.953-3.625-5.3-5.438-12.91-5.438-22.828 0-4.938.469-9.316 1.406-13.14.938-3.82 2.297-7.036 4.079-9.641 1.78-2.614 3.93-4.598 6.453-5.953 2.531-1.364 5.383-2.047 8.562-2.047 6.395 0 11.407 2.652 15.032 7.953C42.82-47.035 44.64-39.426 44.64-29.5zm-10.624 0c0-3.063-.172-5.926-.516-8.594-.344-2.664-.898-4.972-1.656-6.922-.762-1.957-1.766-3.504-3.016-4.64-1.25-1.133-2.808-1.703-4.672-1.703-1.875 0-3.453.57-4.734 1.703-1.274 1.136-2.293 2.683-3.063 4.64-.761 1.95-1.297 4.258-1.609 6.922-.313 2.668-.469 5.532-.469 8.594 0 3.055.156 5.914.469 8.578.313 2.668.848 4.98 1.61 6.938.769 1.96 1.788 3.507 3.062 4.64 1.281 1.125 2.86 1.688 4.734 1.688 1.864 0 3.422-.563 4.672-1.688 1.25-1.133 2.254-2.68 3.016-4.64.758-1.957 1.312-4.27 1.656-6.938.344-2.664.516-5.523.516-8.578zm0 0"/></symbol><clipPath id="b"><path d="M0 0h159v246.75H0zm0 0"/></clipPath></defs><path fill="#fff" d="M0 0h159.12v246.96H0z"/><use xlink:href="#a" x="114.547" y="230"/><g clip-path="url(#b)"><path d="M0-15298.5h159v25908.75H0zm0 0" fill="#fff"/></g><use xlink:href="#c" x="11.332" y="25.501" fill="#929aa0"/><use xlink:href="#d" x="20.916" y="25.501" fill="#929aa0"/><use xlink:href="#e" x="116.32" y="25.501" fill="#888"/><use xlink:href="#f" x="122.303" y="25.501" fill="#888"/><use xlink:href="#g" x="128.977" y="25.501" fill="#929aa0"/><use xlink:href="#h" x="138.182" y="25.501" fill="#929aa0"/><use xlink:href="#i" x="31.781" y="111.001" fill="#929aa0"/><use xlink:href="#j" x="78.662" y="111.001" fill="#929aa0"/><path d="M24.016 205.793l5-4.98h9.996v9.96l-5 4.98h-9.996zm0 0" fill="#929aa0"/><path d="M34.012 205.793l5-4.98v9.96l-5 4.98zm0 0" fill="#596066"/><path d="M24.016 205.793l5-4.98h9.996l-5 4.98zm0 0" fill="#727b82"/><path d="M36.012 205.793l5-4.98h9.996v9.96l-5 4.98h-9.996zm0 0" fill="#929aa0"/><path d="M46.008 205.793l5-4.98v9.96l-5 4.98zm0 0" fill="#596066"/><path d="M36.012 205.793l5-4.98h9.996l-5 4.98zm0 0" fill="#727b82"/><path d="M48.008 205.793l5-4.98h9.996v9.96l-4.996 4.98h-10zm0 0" fill="#929aa0"/><path d="M58.008 205.793l4.996-4.98v9.96l-4.996 4.98zm0 0" fill="#596066"/><path d="M48.008 205.793l5-4.98h9.996l-4.996 4.98zm0 0" fill="#727b82"/><path d="M60.004 205.793l5-4.98H75v9.96l-4.996 4.98h-10zm0 0" fill="#929aa0"/><path d="M70.004 205.793l4.996-4.98v9.96l-4.996 4.98zm0 0" fill="#596066"/><path d="M60.004 205.793l5-4.98H75l-4.996 4.98zm0 0" fill="#727b82"/><path d="M84 205.793l4.996-4.98h10v9.96l-5 4.98H84zm0 0" fill="#929aa0"/><path d="M93.996 205.793l5-4.98v9.96l-5 4.98zm0 0" fill="#596066"/><path d="M84 205.793l4.996-4.98h10l-5 4.98zm0 0" fill="#727b82"/><path d="M95.996 205.793l4.996-4.98h10v9.96l-5 4.98h-9.996zm0 0" fill="#929aa0"/><path d="M105.992 205.793l5-4.98v9.96l-5 4.98zm0 0" fill="#596066"/><path d="M95.996 205.793l4.996-4.98h10l-5 4.98zm0 0" fill="#727b82"/><path d="M107.992 205.793l5-4.98h9.996v9.96l-5 4.98h-9.996zm0 0" fill="#929aa0"/><path d="M117.988 205.793l5-4.98v9.96l-5 4.98zm0 0" fill="#596066"/><path d="M107.992 205.793l5-4.98h9.996l-5 4.98zm0 0" fill="#727b82"/><path d="M119.988 205.793l5-4.98h9.996v9.96l-5 4.98h-9.996zm0 0" fill="#929aa0"/><path d="M129.984 205.793l5-4.98v9.96l-5 4.98zm0 0" fill="#596066"/><path d="M119.988 205.793l5-4.98h9.996l-5 4.98zm0 0" fill="#727b82"/><path d="M24.016 193.84l5-4.98h9.996v9.96l-5 4.98h-9.996zm0 0" fill="#929aa0"/><path d="M34.012 193.84l5-4.98v9.96l-5 4.98zm0 0" fill="#596066"/><path d="M24.016 193.84l5-4.98h9.996l-5 4.98zm0 0" fill="#727b82"/><path d="M36.012 193.84l5-4.98h9.996v9.96l-5 4.98h-9.996zm0 0" fill="#929aa0"/><path d="M46.008 193.84l5-4.98v9.96l-5 4.98zm0 0" fill="#596066"/><path d="M36.012 193.84l5-4.98h9.996l-5 4.98zm0 0" fill="#727b82"/><path d="M48.008 193.84l5-4.98h9.996v9.96l-4.996 4.98h-10zm0 0" fill="#929aa0"/><path d="M58.008 193.84l4.996-4.98v9.96l-4.996 4.98zm0 0" fill="#596066"/><path d="M48.008 193.84l5-4.98h9.996l-4.996 4.98zm0 0" fill="#727b82"/><path d="M60.004 193.84l5-4.98H75v9.96l-4.996 4.98h-10zm0 0" fill="#929aa0"/><path d="M70.004 193.84L75 188.86v9.96l-4.996 4.98zm0 0" fill="#596066"/><path d="M60.004 193.84l5-4.98H75l-4.996 4.98zm0 0" fill="#727b82"/><path d="M84 193.84l4.996-4.98h10v9.96l-5 4.98H84zm0 0" fill="#929aa0"/><path d="M93.996 193.84l5-4.98v9.96l-5 4.98zm0 0" fill="#596066"/><path d="M84 193.84l4.996-4.98h10l-5 4.98zm0 0" fill="#727b82"/><path d="M95.996 193.84l4.996-4.98h10v9.96l-5 4.98h-9.996zm0 0" fill="#929aa0"/><path d="M105.992 193.84l5-4.98v9.96l-5 4.98zm0 0" fill="#596066"/><path d="M95.996 193.84l4.996-4.98h10l-5 4.98zm0 0" fill="#727b82"/><path d="M107.992 193.84l5-4.98h9.996v9.96l-5 4.98h-9.996zm0 0" fill="#929aa0"/><path d="M117.988 193.84l5-4.98v9.96l-5 4.98zm0 0" fill="#596066"/><path d="M107.992 193.84l5-4.98h9.996l-5 4.98zm0 0" fill="#727b82"/><path d="M119.988 193.84l5-4.98h9.996v9.96l-5 4.98h-9.996zm0 0" fill="#929aa0"/><path d="M129.984 193.84l5-4.98v9.96l-5 4.98zm0 0" fill="#596066"/><path d="M119.988 193.84l5-4.98h9.996l-5 4.98zm0 0" fill="#727b82"/><path d="M24.016 181.887l5-4.98h9.996v9.96l-5 4.98h-9.996zm0 0" fill="#929aa0"/><path d="M34.012 181.887l5-4.98v9.96l-5 4.98zm0 0" fill="#596066"/><path d="M24.016 181.887l5-4.98h9.996l-5 4.98zm0 0" fill="#727b82"/><path d="M36.012 181.887l5-4.98h9.996v9.96l-5 4.98h-9.996zm0 0" fill="#929aa0"/><path d="M46.008 181.887l5-4.98v9.96l-5 4.98zm0 0" fill="#596066"/><path d="M36.012 181.887l5-4.98h9.996l-5 4.98zm0 0" fill="#727b82"/><path d="M48.008 181.887l5-4.98h9.996v9.96l-4.996 4.98h-10zm0 0" fill="#929aa0"/><path d="M58.008 181.887l4.996-4.98v9.96l-4.996 4.98zm0 0" fill="#596066"/><path d="M48.008 181.887l5-4.98h9.996l-4.996 4.98zm0 0" fill="#727b82"/><path d="M60.004 181.887l5-4.98H75v9.96l-4.996 4.98h-10zm0 0" fill="#929aa0"/><path d="M70.004 181.887l4.996-4.98v9.96l-4.996 4.98zm0 0" fill="#596066"/><path d="M60.004 181.887l5-4.98H75l-4.996 4.98zm0 0" fill="#727b82"/><path d="M84 181.887l4.996-4.98h10v9.96l-5 4.98H84zm0 0" fill="#929aa0"/><path d="M93.996 181.887l5-4.98v9.96l-5 4.98zm0 0" fill="#596066"/><path d="M84 181.887l4.996-4.98h10l-5 4.98zm0 0" fill="#727b82"/><path d="M95.996 181.887l4.996-4.98h10v9.96l-5 4.98h-9.996zm0 0" fill="#929aa0"/><path d="M105.992 181.887l5-4.98v9.96l-5 4.98zm0 0" fill="#596066"/><path d="M95.996 181.887l4.996-4.98h10l-5 4.98zm0 0" fill="#727b82"/><path d="M107.992 181.887l5-4.98h9.996v9.96l-5 4.98h-9.996zm0 0" fill="#929aa0"/><path d="M117.988 181.887l5-4.98v9.96l-5 4.98zm0 0" fill="#596066"/><path d="M107.992 181.887l5-4.98h9.996l-5 4.98zm0 0" fill="#727b82"/><path d="M119.988 181.887l5-4.98h9.996v9.96l-5 4.98h-9.996zm0 0" fill="#929aa0"/><path d="M129.984 181.887l5-4.98v9.96l-5 4.98zm0 0" fill="#596066"/><path d="M119.988 181.887l5-4.98h9.996l-5 4.98zm0 0" fill="#727b82"/><path d="M24.016 169.934l5-4.98h9.996v9.96l-5 4.98h-9.996zm0 0" fill="#929aa0"/><path d="M34.012 169.934l5-4.98v9.96l-5 4.98zm0 0" fill="#596066"/><path d="M24.016 169.934l5-4.98h9.996l-5 4.98zm0 0" fill="#727b82"/><path d="M36.012 169.934l5-4.98h9.996v9.96l-5 4.98h-9.996zm0 0" fill="#929aa0"/><path d="M46.008 169.934l5-4.98v9.96l-5 4.98zm0 0" fill="#596066"/><path d="M36.012 169.934l5-4.98h9.996l-5 4.98zm0 0" fill="#727b82"/><path d="M48.008 169.934l5-4.98h9.996v9.96l-4.996 4.98h-10zm0 0" fill="#929aa0"/><path d="M58.008 169.934l4.996-4.98v9.96l-4.996 4.98zm0 0" fill="#596066"/><path d="M48.008 169.934l5-4.98h9.996l-4.996 4.98zm0 0" fill="#727b82"/><path d="M60.004 169.934l5-4.98H75v9.96l-4.996 4.98h-10zm0 0" fill="#929aa0"/><path d="M70.004 169.934l4.996-4.98v9.96l-4.996 4.98zm0 0" fill="#596066"/><path d="M60.004 169.934l5-4.98H75l-4.996 4.98zm0 0" fill="#727b82"/><path d="M84 169.934l4.996-4.98h10v9.96l-5 4.98H84zm0 0" fill="#929aa0"/><path d="M93.996 169.934l5-4.98v9.96l-5 4.98zm0 0" fill="#596066"/><path d="M84 169.934l4.996-4.98h10l-5 4.98zm0 0" fill="#727b82"/><path d="M95.996 169.934l4.996-4.98h10v9.96l-5 4.98h-9.996zm0 0" fill="#929aa0"/><path d="M105.992 169.934l5-4.98v9.96l-5 4.98zm0 0" fill="#596066"/><path d="M95.996 169.934l4.996-4.98h10l-5 4.98zm0 0" fill="#727b82"/><path d="M107.992 169.934l5-4.98h9.996v9.96l-5 4.98h-9.996zm0 0" fill="#929aa0"/><path d="M117.988 169.934l5-4.98v9.96l-5 4.98zm0 0" fill="#596066"/><path d="M107.992 169.934l5-4.98h9.996l-5 4.98zm0 0" fill="#727b82"/><path d="M119.988 169.934l5-4.98h9.996v9.96l-5 4.98h-9.996zm0 0" fill="#929aa0"/><path d="M129.984 169.934l5-4.98v9.96l-5 4.98zm0 0" fill="#596066"/><path d="M119.988 169.934l5-4.98h9.996l-5 4.98zm0 0" fill="#727b82"/><path d="M24.016 157.98l5-4.98h9.996v9.96l-5 4.981h-9.996zm0 0" fill="#929aa0"/><path d="M34.012 157.98l5-4.98v9.96l-5 4.981zm0 0" fill="#596066"/><path d="M24.016 157.98l5-4.98h9.996l-5 4.98zm0 0" fill="#727b82"/><path d="M36.012 157.98l5-4.98h9.996v9.96l-5 4.981h-9.996zm0 0" fill="#929aa0"/><path d="M46.008 157.98l5-4.98v9.96l-5 4.981zm0 0" fill="#596066"/><path d="M36.012 157.98l5-4.98h9.996l-5 4.98zm0 0" fill="#727b82"/><path d="M48.008 157.98l5-4.98h9.996v9.96l-4.996 4.981h-10zm0 0" fill="#929aa0"/><path d="M58.008 157.98l4.996-4.98v9.96l-4.996 4.981zm0 0" fill="#596066"/><path d="M48.008 157.98l5-4.98h9.996l-4.996 4.98zm0 0" fill="#727b82"/><path d="M60.004 157.98l5-4.98H75v9.96l-4.996 4.981h-10zm0 0" fill="#929aa0"/><path d="M70.004 157.98L75 153v9.96l-4.996 4.981zm0 0" fill="#596066"/><path d="M60.004 157.98l5-4.98H75l-4.996 4.98zm0 0" fill="#727b82"/><path d="M84 157.98l4.996-4.98h10v9.96l-5 4.981H84zm0 0" fill="#929aa0"/><path d="M93.996 157.98l5-4.98v9.96l-5 4.981zm0 0" fill="#596066"/><path d="M84 157.98l4.996-4.98h10l-5 4.98zm0 0" fill="#727b82"/><path d="M95.996 157.98l4.996-4.98h10v9.96l-5 4.981h-9.996zm0 0" fill="#929aa0"/><path d="M105.992 157.98l5-4.98v9.96l-5 4.981zm0 0" fill="#596066"/><path d="M95.996 157.98l4.996-4.98h10l-5 4.98zm0 0" fill="#727b82"/><path d="M107.992 157.98l5-4.98h9.996v9.96l-5 4.981h-9.996zm0 0" fill="#929aa0"/><path d="M117.988 157.98l5-4.98v9.96l-5 4.981zm0 0" fill="#596066"/><path d="M107.992 157.98l5-4.98h9.996l-5 4.98zm0 0" fill="#727b82"/><path d="M119.988 157.98l5-4.98h9.996v9.96l-5 4.981h-9.996zm0 0" fill="#929aa0"/><path d="M129.984 157.98l5-4.98v9.96l-5 4.981zm0 0" fill="#596066"/><path d="M119.988 157.98l5-4.98h9.996l-5 4.98zm0 0" fill="#727b82"/></svg>