<svg xmlns="http://www.w3.org/2000/svg" xmlns:xlink="http://www.w3.org/1999/xlink" width="212.16" height="329.28" viewBox="0 0 159.12 246.96"><defs><symbol overflow="visible" id="a"><path d="M2.031-5.828h.672L.672.75H0zm0 0"/></symbol><symbol overflow="visible" id="c"><path d="M8.656-3.063c0 .481-.086.922-.25 1.329a3.049 3.049 0 0 1-.734 1.046c-.324.305-.73.532-1.219.688-.48.164-1.039.25-1.672.25-.742 0-1.36-.105-1.86-.313C2.43-.27 2.04-.53 1.75-.843a2.917 2.917 0 0 1-.625-1.048 3.482 3.482 0 0 1-.188-1.078c0-.332.051-.648.157-.953.113-.3.254-.582.422-.844a4.02 4.02 0 0 1 .609-.703c.238-.207.488-.39.75-.547-1.117-.632-1.672-1.57-1.672-2.812a3.025 3.025 0 0 1 .984-2.25c.313-.3.688-.535 1.126-.703a4.016 4.016 0 0 1 1.484-.266c.633 0 1.176.102 1.625.297.457.188.828.434 1.11.734.288.293.5.621.624.985.133.367.203.719.203 1.062 0 .324-.046.633-.14.922a3.32 3.32 0 0 1-.39.813 4.15 4.15 0 0 1-.563.656c-.211.187-.43.36-.657.516 1.344.636 2.024 1.636 2.047 3zm-6.125.11c0 .2.035.414.11.64.07.22.195.422.375.61.187.187.421.344.703.469.281.125.64.187 1.078.187.383 0 .719-.055 1-.172.289-.113.523-.258.703-.437.188-.176.328-.375.422-.594.094-.227.14-.46.14-.703 0-.363-.074-.68-.218-.953a2.24 2.24 0 0 0-.594-.719 3.271 3.271 0 0 0-.906-.516 8.057 8.057 0 0 0-1.219-.375c-.512.293-.906.649-1.188 1.063-.273.418-.406.918-.406 1.5zM6.781-9a1.66 1.66 0 0 0-.11-.547 1.8 1.8 0 0 0-.343-.578 1.85 1.85 0 0 0-.61-.438c-.25-.124-.558-.187-.921-.187-.367 0-.68.059-.938.172a1.85 1.85 0 0 0-.609.437c-.156.18-.277.371-.36.579a1.86 1.86 0 0 0-.109.624c0 .25.047.5.14.75.095.25.235.485.423.704.195.21.453.402.765.578.313.168.68.297 1.11.39.476-.28.86-.609 1.14-.984.282-.383.422-.883.422-1.5zm0 0"/></symbol><symbol overflow="visible" id="d"><path d="M3.688-3.844c0 .211-.063.39-.188.547a.604.604 0 0 1-.484.219.614.614 0 0 1-.5-.219.845.845 0 0 1-.188-.547c0-.207.063-.39.188-.547a.604.604 0 0 1 .5-.234c.195 0 .359.078.484.234.125.157.188.34.188.547zm-3.141.14c0-1.25.21-2.206.64-2.874.426-.664 1.032-1 1.813-1 .781 0 1.379.336 1.797 1 .426.668.64 1.625.64 2.875 0 1.242-.214 2.195-.64 2.86-.418.667-1.016 1-1.797 1-.781 0-1.387-.333-1.813-1-.43-.665-.64-1.618-.64-2.86zm3.875 0c0-.413-.027-.8-.078-1.155a3.585 3.585 0 0 0-.235-.954 1.546 1.546 0 0 0-.437-.64.96.96 0 0 0-.672-.25c-.281 0-.516.086-.703.25-.18.156-.324.371-.438.64-.105.274-.183.59-.234.954a9.697 9.697 0 0 0-.063 1.156c0 .406.02.793.063 1.156.05.356.129.668.234.938.114.273.258.492.438.656.187.156.422.234.703.234.27 0 .492-.078.672-.234a1.63 1.63 0 0 0 .437-.656 3.48 3.48 0 0 0 .235-.938c.05-.363.078-.75.078-1.156zm0 0"/></symbol><symbol overflow="visible" id="e"><path d="M4.547 0a14.777 14.777 0 0 0-.672-1.11c-.137-.206-.277-.41-.422-.609a26 26 0 0 0-.437-.562c-.149.18-.297.37-.454.578-.156.2-.312.402-.468.61A13.373 13.373 0 0 0 1.359 0H.344c.258-.477.578-.969.953-1.469.383-.508.758-.992 1.125-1.453L.437-5.547h1.11l1.5 1.938 1.375-1.938h1.047L3.64-2.984c.351.468.71.964 1.078 1.484.363.512.676 1.012.937 1.5zm0 0"/></symbol><symbol overflow="visible" id="f"><path d="M5.672-5.906c0 .312-.094.59-.281.828a.916.916 0 0 1-.75.344c-.325 0-.586-.114-.782-.344a1.304 1.304 0 0 1-.28-.828c0-.32.093-.602.28-.844a.943.943 0 0 1 .782-.375.89.89 0 0 1 .75.375c.187.242.28.523.28.844zm-4.828.203c0-1.914.328-3.383.984-4.406.656-1.032 1.582-1.547 2.781-1.547 1.196 0 2.118.515 2.766 1.547.656 1.023.984 2.492.984 4.406 0 1.906-.328 3.375-.984 4.406C6.727-.273 5.805.234 4.609.234c-1.199 0-2.125-.507-2.78-1.53-.657-1.032-.985-2.5-.985-4.407zm5.968 0c0-.633-.039-1.227-.109-1.781a5.716 5.716 0 0 0-.375-1.47c-.168-.413-.39-.741-.672-.983-.281-.25-.633-.376-1.047-.376-.418 0-.773.126-1.062.376-.281.242-.512.57-.688.984A5.885 5.885 0 0 0 2.5-7.484c-.074.554-.11 1.148-.11 1.78 0 .626.036 1.22.11 1.782.07.555.191 1.04.36 1.453.175.418.406.75.687 1 .289.242.644.36 1.062.36.414 0 .766-.118 1.047-.36.282-.25.504-.582.672-1 .176-.414.3-.898.375-1.453.07-.562.11-1.156.11-1.781zm0 0"/></symbol><symbol overflow="visible" id="g"><path d="M8.266-2.969c0 .961-.305 1.735-.907 2.328-.605.586-1.527.875-2.765.875-.719 0-1.313-.093-1.782-.28-.46-.188-.828-.43-1.109-.735a2.82 2.82 0 0 1-.594-1 3.643 3.643 0 0 1-.171-1.094c0-.645.175-1.219.53-1.719A4.63 4.63 0 0 1 2.75-5.828C1.695-6.41 1.172-7.312 1.172-8.531c0-.414.078-.813.234-1.188.164-.383.395-.719.688-1 .3-.281.66-.504 1.078-.672a3.74 3.74 0 0 1 1.437-.265c.614 0 1.133.094 1.563.281.437.18.789.414 1.062.703.27.281.47.602.594.953.125.356.188.7.188 1.031 0 .649-.168 1.211-.5 1.688a4.385 4.385 0 0 1-1.141 1.125c1.258.605 1.89 1.574 1.89 2.906zm-5.86.11c0 .199.035.406.11.625.082.21.207.406.375.593a1.9 1.9 0 0 0 .687.454c.281.117.625.171 1.031.171.375 0 .696-.05.97-.156a1.83 1.83 0 0 0 .687-.422c.187-.176.32-.375.406-.593.082-.227.125-.454.125-.672 0-.696-.258-1.235-.766-1.61-.5-.375-1.195-.66-2.078-.86-.492.274-.871.61-1.14 1.016-.274.407-.407.891-.407 1.454zm4.14-5.829a1.46 1.46 0 0 0-.124-.546 1.62 1.62 0 0 0-.344-.563 1.835 1.835 0 0 0-.594-.422 2.043 2.043 0 0 0-.875-.172c-.355 0-.652.059-.89.172a1.957 1.957 0 0 0-.61.406 1.563 1.563 0 0 0-.343.563c-.063.2-.094.398-.094.594 0 .5.18.969.547 1.406.363.438.96.758 1.797.953a3.81 3.81 0 0 0 1.109-.953c.281-.375.422-.852.422-1.438zm0 0"/></symbol><symbol overflow="visible" id="h"><path d="M44.219-15.813c0 2.438-.43 4.711-1.282 6.813a14.508 14.508 0 0 1-3.828 5.438C37.41-2.04 35.301-.853 32.781 0c-2.523.852-5.43 1.281-8.718 1.281-3.856 0-7.06-.539-9.61-1.61C11.898-1.41 9.86-2.772 8.328-4.421 6.797-6.066 5.703-7.836 5.047-9.734c-.649-1.895-.969-3.696-.969-5.407 0-1.695.238-3.265.719-4.703a15.979 15.979 0 0 1 2-4 22.161 22.161 0 0 1 2.89-3.36 27.271 27.271 0 0 1 3.407-2.733c-2.606-1.813-4.547-3.782-5.828-5.907-1.274-2.125-1.907-4.718-1.907-7.781a15.7 15.7 0 0 1 1.313-6.328 16.082 16.082 0 0 1 3.781-5.313c1.645-1.53 3.629-2.75 5.953-3.656 2.32-.906 4.907-1.36 7.75-1.36 3.344 0 6.188.485 8.532 1.454 2.351.96 4.28 2.203 5.78 3.734 1.509 1.532 2.602 3.235 3.282 5.11.676 1.867 1.016 3.672 1.016 5.422 0 3.124-.852 5.89-2.547 8.296-1.7 2.407-3.653 4.32-5.86 5.735 3.344 1.812 5.82 3.914 7.438 6.297 1.613 2.386 2.422 5.195 2.422 8.422zm-30.016.5c0 .856.164 1.766.5 2.735.344.96.91 1.836 1.703 2.625.79.793 1.813 1.46 3.063 2 1.25.543 2.812.812 4.687.812 1.696 0 3.164-.222 4.407-.671 1.25-.458 2.269-1.067 3.062-1.829a7.512 7.512 0 0 0 1.797-2.64c.394-1 .594-2.008.594-3.031 0-1.583-.313-2.97-.938-4.157-.625-1.195-1.523-2.234-2.687-3.11-1.157-.874-2.532-1.632-4.125-2.28-1.586-.657-3.34-1.239-5.266-1.75-2.043 1.304-3.688 2.875-4.938 4.718-1.242 1.844-1.859 4.04-1.859 6.578zM32.734-44.39c0-.726-.156-1.53-.468-2.406-.313-.883-.825-1.695-1.532-2.437-.71-.739-1.605-1.364-2.687-1.875-1.074-.508-2.371-.766-3.89-.766-1.532 0-2.856.246-3.97.734-1.105.48-1.996 1.106-2.671 1.875a8.116 8.116 0 0 0-1.532 2.47c-.343.874-.515 1.733-.515 2.577 0 2.157.804 4.2 2.422 6.125 1.625 1.93 4.332 3.461 8.125 4.594 2.101-1.3 3.75-2.785 4.937-4.453 1.188-1.676 1.781-3.82 1.781-6.438zm0 0"/></symbol><clipPath id="b"><path d="M0 0h159v246.75H0zm0 0"/></clipPath></defs><path fill="#fff" d="M0 0h159.12v246.96H0z"/><use xlink:href="#a" x="114.547" y="230"/><g clip-path="url(#b)"><path d="M0-14558.25h159V11350.5H0zm0 0" fill="#fff"/></g><use xlink:href="#c" x="11.332" y="25.501" fill="#929aa0"/><use xlink:href="#d" x="116.32" y="25.501" fill="#888"/><use xlink:href="#e" x="122.303" y="25.501" fill="#888"/><use xlink:href="#f" x="128.977" y="25.501" fill="#929aa0"/><use xlink:href="#g" x="138.182" y="25.501" fill="#929aa0"/><use xlink:href="#h" x="55.219" y="111.001" fill="#929aa0"/><path d="M39.191 196.352l6.399-6.375h12.797v12.75l-6.399 6.375H39.191zm0 0" fill="#929aa0"/><path d="M51.988 196.352l6.399-6.375v12.75l-6.399 6.375zm0 0" fill="#596066"/><path d="M39.191 196.352l6.399-6.375h12.797l-6.399 6.375zm0 0" fill="#727b82"/><path d="M54.547 196.352l6.398-6.375h12.797v12.75l-6.398 6.375H54.547zm0 0" fill="#929aa0"/><path d="M67.344 196.352l6.398-6.375v12.75l-6.398 6.375zm0 0" fill="#596066"/><path d="M54.547 196.352l6.398-6.375h12.797l-6.398 6.375zm0 0" fill="#727b82"/><path d="M69.902 196.352l6.399-6.375h12.797v12.75l-6.399 6.375H69.902zm0 0" fill="#929aa0"/><path d="M82.7 196.352l6.398-6.375v12.75l-6.399 6.375zm0 0" fill="#596066"/><path d="M69.902 196.352l6.399-6.375h12.797l-6.399 6.375zm0 0" fill="#727b82"/><path d="M85.258 196.352l6.398-6.375h12.797v12.75l-6.398 6.375H85.258zm0 0" fill="#929aa0"/><path d="M98.055 196.352l6.398-6.375v12.75l-6.398 6.375zm0 0" fill="#596066"/><path d="M85.258 196.352l6.398-6.375h12.797l-6.398 6.375zm0 0" fill="#727b82"/><path d="M100.613 196.352l6.399-6.375h12.797v12.75l-6.399 6.375h-12.797zm0 0" fill="#929aa0"/><path d="M113.41 196.352l6.399-6.375v12.75l-6.399 6.375zm0 0" fill="#596066"/><path d="M100.613 196.352l6.399-6.375h12.797l-6.399 6.375zm0 0" fill="#727b82"/><path d="M54.547 165.75l6.398-6.375h12.797v12.75l-6.398 6.375H54.547zm0 0" fill="#929aa0"/><path d="M67.344 165.75l6.398-6.375v12.75l-6.398 6.375zm0 0" fill="#596066"/><path d="M54.547 165.75l6.398-6.375h12.797l-6.398 6.375zm0 0" fill="#727b82"/><path d="M69.902 165.75l6.399-6.375h12.797v12.75l-6.399 6.375H69.902zm0 0" fill="#929aa0"/><path d="M82.7 165.75l6.398-6.375v12.75l-6.399 6.375zm0 0" fill="#596066"/><path d="M69.902 165.75l6.399-6.375h12.797l-6.399 6.375zm0 0" fill="#727b82"/><path d="M85.258 165.75l6.398-6.375h12.797v12.75l-6.398 6.375H85.258zm0 0" fill="#929aa0"/><path d="M98.055 165.75l6.398-6.375v12.75l-6.398 6.375zm0 0" fill="#596066"/><path d="M85.258 165.75l6.398-6.375h12.797l-6.398 6.375zm0 0" fill="#727b82"/></svg>