<svg xmlns="http://www.w3.org/2000/svg" xmlns:xlink="http://www.w3.org/1999/xlink" width="212.16" height="329.28" viewBox="0 0 159.12 246.96"><defs><symbol overflow="visible" id="a"><path d="M2.031-5.828h.672L.672.75H0zm0 0"/></symbol><symbol overflow="visible" id="c"><path d="M3.844-1.156c1.008 0 1.726-.196 2.156-.594.438-.395.656-.926.656-1.594 0-.437-.09-.8-.265-1.094a2.1 2.1 0 0 0-.72-.703 3.103 3.103 0 0 0-1.03-.375 6.615 6.615 0 0 0-1.188-.109h-.406v-1.297h.562c.282 0 .57-.023.875-.078a2.52 2.52 0 0 0 .813-.313 1.74 1.74 0 0 0 .61-.593c.163-.258.25-.582.25-.969 0-.313-.06-.582-.173-.813a1.695 1.695 0 0 0-.453-.562 1.763 1.763 0 0 0-.656-.313 3.045 3.045 0 0 0-.766-.093c-.543 0-1.007.078-1.39.234a5.373 5.373 0 0 0-.953.5l-.61-1.219c.133-.082.305-.175.516-.28.207-.114.441-.212.703-.298.258-.094.54-.172.844-.234.3-.063.617-.094.953-.094.613 0 1.144.078 1.594.235.457.148.832.359 1.125.64.3.274.523.602.671.985.145.374.22.789.22 1.234 0 .605-.18 1.125-.532 1.562a3.355 3.355 0 0 1-1.266 1c.301.094.594.227.875.391.29.168.54.383.75.64.207.262.375.563.5.907.133.344.204.726.204 1.14 0 .512-.09.985-.266 1.422-.18.438-.45.82-.813 1.141-.367.313-.828.559-1.39.734C5.289.16 4.633.25 3.875.25A7.315 7.315 0 0 1 2.094.016a10.929 10.929 0 0 1-.719-.188 2.71 2.71 0 0 1-.438-.187l.297-1.375c.196.093.52.214.97.359.444.148.991.219 1.64.219zm0 0"/></symbol><symbol overflow="visible" id="d"><path d="M3.688-3.844c0 .211-.063.39-.188.547a.604.604 0 0 1-.484.219.614.614 0 0 1-.5-.219.845.845 0 0 1-.188-.547c0-.207.063-.39.188-.547a.604.604 0 0 1 .5-.234c.195 0 .359.078.484.234.125.157.188.34.188.547zm-3.141.14c0-1.25.21-2.206.64-2.874.426-.664 1.032-1 1.813-1 .781 0 1.379.336 1.797 1 .426.668.64 1.625.64 2.875 0 1.242-.214 2.195-.64 2.86-.418.667-1.016 1-1.797 1-.781 0-1.387-.333-1.813-1-.43-.665-.64-1.618-.64-2.86zm3.875 0c0-.413-.027-.8-.078-1.155a3.585 3.585 0 0 0-.235-.954 1.546 1.546 0 0 0-.437-.64.96.96 0 0 0-.672-.25c-.281 0-.516.086-.703.25-.18.156-.324.371-.438.64-.105.274-.183.59-.234.954a9.697 9.697 0 0 0-.063 1.156c0 .406.02.793.063 1.156.05.356.129.668.234.938.114.273.258.492.438.656.187.156.422.234.703.234.27 0 .492-.078.672-.234a1.63 1.63 0 0 0 .437-.656 3.48 3.48 0 0 0 .235-.938c.05-.363.078-.75.078-1.156zm0 0"/></symbol><symbol overflow="visible" id="e"><path d="M4.547 0a14.777 14.777 0 0 0-.672-1.11c-.137-.206-.277-.41-.422-.609a26 26 0 0 0-.437-.562c-.149.18-.297.37-.454.578-.156.2-.312.402-.468.61A13.373 13.373 0 0 0 1.359 0H.344c.258-.477.578-.969.953-1.469.383-.508.758-.992 1.125-1.453L.437-5.547h1.11l1.5 1.938 1.375-1.938h1.047L3.64-2.984c.351.468.71.964 1.078 1.484.363.512.676 1.012.937 1.5zm0 0"/></symbol><symbol overflow="visible" id="f"><path d="M5.672-5.906c0 .312-.094.59-.281.828a.916.916 0 0 1-.75.344c-.325 0-.586-.114-.782-.344a1.304 1.304 0 0 1-.28-.828c0-.32.093-.602.28-.844a.943.943 0 0 1 .782-.375.89.89 0 0 1 .75.375c.187.242.28.523.28.844zm-4.828.203c0-1.914.328-3.383.984-4.406.656-1.032 1.582-1.547 2.781-1.547 1.196 0 2.118.515 2.766 1.547.656 1.023.984 2.492.984 4.406 0 1.906-.328 3.375-.984 4.406C6.727-.273 5.805.234 4.609.234c-1.199 0-2.125-.507-2.78-1.53-.657-1.032-.985-2.5-.985-4.407zm5.968 0c0-.633-.039-1.227-.109-1.781a5.716 5.716 0 0 0-.375-1.47c-.168-.413-.39-.741-.672-.983-.281-.25-.633-.376-1.047-.376-.418 0-.773.126-1.062.376-.281.242-.512.57-.688.984A5.885 5.885 0 0 0 2.5-7.484c-.074.554-.11 1.148-.11 1.78 0 .626.036 1.22.11 1.782.07.555.191 1.04.36 1.453.175.418.406.75.687 1 .289.242.644.36 1.062.36.414 0 .766-.118 1.047-.36.282-.25.504-.582.672-1 .176-.414.3-.898.375-1.453.07-.562.11-1.156.11-1.781zm0 0"/></symbol><symbol overflow="visible" id="g"><path d="M3.906-1.11c.969 0 1.656-.19 2.063-.577.414-.383.625-.907.625-1.563 0-.414-.09-.766-.266-1.047a1.909 1.909 0 0 0-.672-.672 2.92 2.92 0 0 0-.984-.375c-.367-.07-.75-.11-1.156-.11h-.391v-1.234h.547a4.3 4.3 0 0 0 .828-.078c.29-.062.555-.16.797-.296.238-.145.43-.336.578-.579.145-.25.219-.562.219-.937 0-.633-.196-1.082-.578-1.344a2.395 2.395 0 0 0-1.36-.39c-.523 0-.968.078-1.343.234a5.304 5.304 0 0 0-.922.469l-.579-1.172c.25-.176.633-.364 1.157-.563a4.775 4.775 0 0 1 1.75-.312c.601 0 1.117.074 1.547.219a2.75 2.75 0 0 1 1.046.624c.282.274.489.59.625.954.133.355.204.75.204 1.187 0 .594-.157 1.106-.47 1.531a3.01 3.01 0 0 1-1.202.954c.593.167 1.101.5 1.531 1 .426.5.64 1.164.64 1.984 0 .492-.085.95-.25 1.375a2.944 2.944 0 0 1-.765 1.094c-.336.304-.766.543-1.297.718-.531.164-1.168.25-1.906.25A6.832 6.832 0 0 1 2.203 0c-.25-.063-.48-.125-.687-.188-.2-.07-.34-.124-.422-.156l.281-1.312c.195.093.508.21.938.343.437.137.968.204 1.593.204zm0 0"/></symbol><symbol overflow="visible" id="h"><path d="M20.063 1.281c-1.532 0-3.106-.101-4.72-.297A51.637 51.637 0 0 1 10.75.22 48.98 48.98 0 0 1 6.797-.797c-1.188-.375-2.094-.734-2.719-1.078l2.047-8.75c1.188.563 2.91 1.2 5.172 1.906 2.27.711 5.082 1.063 8.437 1.063 4.47 0 7.692-.864 9.672-2.594 1.989-1.727 2.985-4.035 2.985-6.922 0-1.875-.387-3.43-1.157-4.672-.761-1.25-1.808-2.254-3.14-3.015-1.324-.77-2.852-1.313-4.578-1.625a30.836 30.836 0 0 0-5.485-.47h-3.484v-8.327h4.25c1.3 0 2.617-.125 3.953-.375a10.798 10.798 0 0 0 3.61-1.375 8.045 8.045 0 0 0 2.624-2.594c.688-1.07 1.032-2.46 1.032-4.172 0-1.351-.258-2.508-.766-3.469a7.166 7.166 0 0 0-2-2.39c-.824-.625-1.777-1.078-2.86-1.36a13.329 13.329 0 0 0-3.39-.422c-2.555 0-4.824.387-6.813 1.157-1.98.761-3.734 1.62-5.265 2.578L5.187-55.36a29.925 29.925 0 0 1 2.891-1.61 36.619 36.619 0 0 1 3.781-1.625 28.505 28.505 0 0 1 4.454-1.218 26.1 26.1 0 0 1 5.03-.47c3.29 0 6.126.4 8.5 1.188 2.384.793 4.352 1.914 5.907 3.36a13.63 13.63 0 0 1 3.484 5.109c.77 1.95 1.157 4.086 1.157 6.406 0 2.719-.75 5.157-2.25 7.313a14.643 14.643 0 0 1-5.828 4.937c3.062 1.074 5.597 2.86 7.609 5.36 2.008 2.492 3.016 5.695 3.016 9.609 0 2.605-.454 5.027-1.36 7.266-.906 2.242-2.297 4.168-4.172 5.78-1.867 1.618-4.23 2.892-7.093 3.829-2.868.938-6.282 1.406-10.25 1.406zm0 0"/></symbol><clipPath id="b"><path d="M0 0h159v246.75H0zm0 0"/></clipPath></defs><path fill="#fff" d="M0 0h159.12v246.96H0z"/><use xlink:href="#a" x="114.547" y="230"/><g clip-path="url(#b)"><path d="M0-10857h159v25908.75H0zm0 0" fill="#fff"/></g><use xlink:href="#c" x="11.332" y="25.5" fill="#8a2be2"/><use xlink:href="#d" x="116.32" y="25.5" fill="#888"/><use xlink:href="#e" x="122.303" y="25.5" fill="#888"/><use xlink:href="#f" x="128.977" y="25.5" fill="#8a2be2"/><use xlink:href="#g" x="138.182" y="25.5" fill="#8a2be2"/><use xlink:href="#h" x="56.625" y="111" fill="#8a2be2"/><path d="M46.867 181.05l6.399-6.374h12.797v12.75l-6.399 6.375H46.867zm0 0" fill="#8a2be2"/><path d="M59.664 181.05l6.398-6.374v12.75l-6.398 6.375zm0 0" fill="#4c187c"/><path d="M46.867 181.05l6.399-6.374h12.797l-6.399 6.375zm0 0" fill="#6820aa"/><path d="M77.582 181.05l6.398-6.374h12.793v12.75L90.38 193.8H77.582zm0 0" fill="#8a2be2"/><path d="M90.379 181.05l6.394-6.374v12.75L90.38 193.8zm0 0" fill="#4c187c"/><path d="M77.582 181.05l6.398-6.374h12.793l-6.394 6.375zm0 0" fill="#6820aa"/><path d="M92.938 181.05l6.398-6.374h12.797v12.75l-6.399 6.375H92.938zm0 0" fill="#8a2be2"/><path d="M105.734 181.05l6.399-6.374v12.75l-6.399 6.375zm0 0" fill="#4c187c"/><path d="M92.938 181.05l6.398-6.374h12.797l-6.399 6.375zm0 0" fill="#6820aa"/></svg>