<svg xmlns="http://www.w3.org/2000/svg" xmlns:xlink="http://www.w3.org/1999/xlink" width="212.16" height="329.28" viewBox="0 0 159.12 246.96"><defs><symbol overflow="visible" id="a"><path d="M2.031-5.828h.672L.672.75H0zm0 0"/></symbol><symbol overflow="visible" id="c"><path d="M3.438-4.313c.351 0 .675-.113.968-.343.29-.227.567-.617.828-1.172-.261-.563-.539-.957-.828-1.188a1.554 1.554 0 0 0-.968-.343c-.376 0-.704.132-.985.39-.281.25-.422.633-.422 1.14 0 .5.14.884.422 1.141.281.25.61.375.985.375zm2.39-.234A3.598 3.598 0 0 1 5.406-4c-.156.18-.34.34-.547.484-.21.149-.437.266-.687.36-.25.094-.524.14-.813.14-.25 0-.539-.039-.859-.125a2.988 2.988 0 0 1-.906-.453 2.687 2.687 0 0 1-.719-.875c-.188-.363-.281-.816-.281-1.36 0-.538.094-.991.281-1.359.195-.363.438-.656.719-.875a2.67 2.67 0 0 1 .906-.453c.32-.093.61-.14.86-.14.288 0 .562.047.812.14a2.912 2.912 0 0 1 1.234.86c.164.187.305.367.422.531.125-.164.266-.344.422-.531a2.76 2.76 0 0 1 .547-.5c.219-.145.453-.266.703-.36.25-.093.52-.14.813-.14.25 0 .53.047.843.14.32.086.625.235.906.454.29.218.532.511.72.874.195.368.296.82.296 1.36 0 .543-.101.996-.297 1.36a2.51 2.51 0 0 1-.719.874 2.82 2.82 0 0 1-.906.453 3.198 3.198 0 0 1-.844.125 2.29 2.29 0 0 1-.812-.14 3.315 3.315 0 0 1-.703-.36A2.854 2.854 0 0 1 6.25-4a4.99 4.99 0 0 1-.422-.547zm2.406.234c.375 0 .704-.125.985-.375.281-.257.422-.64.422-1.14 0-.508-.141-.89-.422-1.14a1.415 1.415 0 0 0-.985-.391c-.355 0-.68.117-.968.343-.293.23-.575.625-.844 1.188.27.555.55.945.844 1.172.289.23.613.343.968.343zm0 0"/></symbol><symbol overflow="visible" id="d"><path d="M49.703-50.781c3.445-7.914 7.227-13.407 11.344-16.469 4.113-3.07 9.723-4.61 16.828-4.61 8.164 0 15.066 2.946 20.703 8.829 5.633 5.886 8.453 13.523 8.453 22.906 0 9.293-2.746 16.95-8.234 22.969-5.48 6.011-11.594 9.015-18.344 9.015-5.023 0-9.687-1.851-14-5.562-2.844-2.438-6.73-7.844-11.656-16.219-3.242 6.293-6.793 10.824-10.656 13.594-3.856 2.762-8.524 4.14-14 4.14-7.313 0-13.496-2.609-18.547-7.828C6.55-25.242 4.03-31.992 4.03-40.266c0-8.375 2.332-15.125 7-20.25 4.664-5.125 10.117-7.687 16.36-7.687 4.363 0 8.222 1.133 11.578 3.39 3.351 2.25 6.93 6.93 10.734 14.032zm7.313 15.453c3.8 7.918 7.55 13.234 11.25 15.953 3.707 2.719 7.875 4.078 12.5 4.078 6.238 0 11.453-2.242 15.64-6.734 4.188-4.5 6.281-10.532 6.281-18.094 0-7.457-2.21-13.617-6.624-18.484-4.418-4.875-9.368-7.313-14.844-7.313-3.5 0-6.559.89-9.172 2.672-2.617 1.773-4.992 4.61-7.125 8.516-1.219 2.28-3.856 8.75-7.906 19.406zM47.5-44.922c-2.492-5.57-5.336-9.676-8.531-12.312-3.2-2.645-7.133-3.97-11.797-3.97-5.387 0-9.89 1.892-13.516 5.673-3.625 3.781-5.437 8.843-5.437 15.187 0 6.75 1.785 12.14 5.36 16.172 3.581 4.031 7.628 6.047 12.14 6.047 4.82 0 9.086-2.156 12.797-6.469 2.382-2.843 5.379-9.617 8.984-20.328zm0 0"/></symbol><clipPath id="b"><path d="M0 0h159v246.75H0zm0 0"/></clipPath><clipPath id="e"><path d="M11.25 187H23v12H11.25zm0 0"/></clipPath><clipPath id="f"><path d="M11.25 187H23v13H11.25zm0 0"/></clipPath><clipPath id="g"><path d="M11.25 187H23v5H11.25zm0 0"/></clipPath><clipPath id="h"><path d="M136 187h11.75v12H136zm0 0"/></clipPath><clipPath id="i"><path d="M136 187h11.75v13H136zm0 0"/></clipPath><clipPath id="j"><path d="M143 187h4.75v12H143zm0 0"/></clipPath><clipPath id="k"><path d="M143 187h4.75v13H143zm0 0"/></clipPath><clipPath id="l"><path d="M136 187h11.75v5H136zm0 0"/></clipPath><clipPath id="m"><path d="M11.25 178H23v13H11.25zm0 0"/></clipPath><clipPath id="n"><path d="M11.25 178H23v5H11.25zm0 0"/></clipPath><clipPath id="o"><path d="M136 178h11.75v13H136zm0 0"/></clipPath><clipPath id="p"><path d="M143 178h4.75v13H143zm0 0"/></clipPath><clipPath id="q"><path d="M136 178h11.75v5H136zm0 0"/></clipPath><clipPath id="r"><path d="M11.25 170H23v12H11.25zm0 0"/></clipPath><clipPath id="s"><path d="M11.25 169H23v13H11.25zm0 0"/></clipPath><clipPath id="t"><path d="M11.25 170H23v4H11.25zm0 0"/></clipPath><clipPath id="u"><path d="M11.25 169H23v5H11.25zm0 0"/></clipPath><clipPath id="v"><path d="M136 170h11.75v12H136zm0 0"/></clipPath><clipPath id="w"><path d="M136 169h11.75v13H136zm0 0"/></clipPath><clipPath id="x"><path d="M143 170h4.75v12H143zm0 0"/></clipPath><clipPath id="y"><path d="M143 169h4.75v13H143zm0 0"/></clipPath><clipPath id="z"><path d="M136 170h11.75v4H136zm0 0"/></clipPath><clipPath id="A"><path d="M136 169h11.75v5H136zm0 0"/></clipPath></defs><path fill="#fff" d="M0 0h159.12v246.96H0z"/><use xlink:href="#a" x="114.547" y="230"/><g clip-path="url(#b)"><path d="M0-12584.25h159V13324.5H0zm0 0" fill="#fff"/></g><use xlink:href="#c" x="11.332" y="21.751" fill="#8a2be2"/><use xlink:href="#c" x="135.738" y="21.751" fill="#8a2be2"/><use xlink:href="#d" x="23.801" y="127.501" fill="#8a2be2"/><path d="M0 0l4.997-5h10.005V5L10 10H0zm0 0" transform="matrix(.74185 0 0 .73916 20.523 200.398)" fill="#fff" stroke-width=".3" stroke-linecap="round" stroke-linejoin="round" stroke="#888"/><path d="M10 0l5.002-5V5L10 10zm0 0" transform="matrix(.74185 0 0 .73916 20.523 200.398)" fill="#fff" stroke-width=".3" stroke-linecap="round" stroke-linejoin="round" stroke="#888"/><path d="M0 0l4.997-5h10.005L10 0zm0 0" transform="matrix(.74185 0 0 .73916 20.523 200.398)" fill="#fff" stroke-width=".3" stroke-linecap="round" stroke-linejoin="round" stroke="#888"/><path d="M0 0l4.998-5h10.004V5L10 10H0zm0 0" transform="matrix(.74185 0 0 .73916 29.425 200.398)" fill="#fff" stroke-width=".3" stroke-linecap="round" stroke-linejoin="round" stroke="#888"/><path d="M10 0l5.002-5V5L10 10zm0 0" transform="matrix(.74185 0 0 .73916 29.425 200.398)" fill="#fff" stroke-width=".3" stroke-linecap="round" stroke-linejoin="round" stroke="#888"/><path d="M0 0l4.998-5h10.004L10 0zm0 0" transform="matrix(.74185 0 0 .73916 29.425 200.398)" fill="#fff" stroke-width=".3" stroke-linecap="round" stroke-linejoin="round" stroke="#888"/><path d="M0 0l4.998-5h10.005V5L10 10H0zm0 0" transform="matrix(.74185 0 0 .73916 38.327 200.398)" fill="#fff" stroke-width=".3" stroke-linecap="round" stroke-linejoin="round" stroke="#888"/><path d="M10 0l5.003-5V5L10 10zm0 0" transform="matrix(.74185 0 0 .73916 38.327 200.398)" fill="#fff" stroke-width=".3" stroke-linecap="round" stroke-linejoin="round" stroke="#888"/><path d="M0 0l4.998-5h10.005L10 0zm0 0" transform="matrix(.74185 0 0 .73916 38.327 200.398)" fill="#fff" stroke-width=".3" stroke-linecap="round" stroke-linejoin="round" stroke="#888"/><path d="M.001 0l4.997-5h10V5L10 10H.001zm0 0" transform="matrix(.74185 0 0 .73916 47.23 200.398)" fill="#fff" stroke-width=".3" stroke-linecap="round" stroke-linejoin="round" stroke="#888"/><path d="M10 0l4.997-5V5L10 10zm0 0" transform="matrix(.74185 0 0 .73916 47.23 200.398)" fill="#fff" stroke-width=".3" stroke-linecap="round" stroke-linejoin="round" stroke="#888"/><path d="M.001 0l4.997-5h10L10 0zm0 0" transform="matrix(.74185 0 0 .73916 47.23 200.398)" fill="#fff" stroke-width=".3" stroke-linecap="round" stroke-linejoin="round" stroke="#888"/><path d="M.001 0l4.997-5h10V5L10 10H0zm0 0" transform="matrix(.74185 0 0 .73916 56.132 200.398)" fill="#fff" stroke-width=".3" stroke-linecap="round" stroke-linejoin="round" stroke="#888"/><path d="M10 0l4.998-5V5L10 10zm0 0" transform="matrix(.74185 0 0 .73916 56.132 200.398)" fill="#fff" stroke-width=".3" stroke-linecap="round" stroke-linejoin="round" stroke="#888"/><path d="M.001 0l4.997-5h10L10 0zm0 0" transform="matrix(.74185 0 0 .73916 56.132 200.398)" fill="#fff" stroke-width=".3" stroke-linecap="round" stroke-linejoin="round" stroke="#888"/><path d="M.002 0L5-5h10V5l-4.997 5h-10zm0 0" transform="matrix(.74185 0 0 .73916 91.74 200.398)" fill="#fff" stroke-width=".3" stroke-linecap="round" stroke-linejoin="round" stroke="#888"/><path d="M10.002 0l4.997-5V5l-4.997 5zm0 0" transform="matrix(.74185 0 0 .73916 91.74 200.398)" fill="#fff" stroke-width=".3" stroke-linecap="round" stroke-linejoin="round" stroke="#888"/><path d="M.002 0L5-5h10l-4.997 5zm0 0" transform="matrix(.74185 0 0 .73916 91.74 200.398)" fill="#fff" stroke-width=".3" stroke-linecap="round" stroke-linejoin="round" stroke="#888"/><path d="M.003 0L5-5h9.999V5l-4.997 5h-10zm0 0" transform="matrix(.74185 0 0 .73916 100.643 200.398)" fill="#fff" stroke-width=".3" stroke-linecap="round" stroke-linejoin="round" stroke="#888"/><path d="M10.002 0l4.997-5V5l-4.997 5zm0 0" transform="matrix(.74185 0 0 .73916 100.643 200.398)" fill="#fff" stroke-width=".3" stroke-linecap="round" stroke-linejoin="round" stroke="#888"/><path d="M.003 0L5-5h9.999l-4.997 5zm0 0" transform="matrix(.74185 0 0 .73916 100.643 200.398)" fill="#fff" stroke-width=".3" stroke-linecap="round" stroke-linejoin="round" stroke="#888"/><path d="M-.003 0L5-5h10V5l-4.998 5H-.003zm0 0" transform="matrix(.74185 0 0 .73916 109.545 200.398)" fill="#fff" stroke-width=".3" stroke-linecap="round" stroke-linejoin="round" stroke="#888"/><path d="M10.002 0L15-5V5l-4.997 5zM-.003 0L5-5h10l-4.998 5zm0 0" transform="matrix(.74185 0 0 .73916 109.545 200.398)" fill="#fff" stroke-width=".3" stroke-linecap="round" stroke-linejoin="round" stroke="#888"/><path d="M-.002 0L5-5h10V5l-4.998 5H-.002zm0 0" transform="matrix(.74185 0 0 .73916 118.447 200.398)" fill="#fff" stroke-width=".3" stroke-linecap="round" stroke-linejoin="round" stroke="#888"/><path d="M10.002 0L15-5V5l-4.997 5zM-.002 0L5-5h10l-4.998 5zm0 0" transform="matrix(.74185 0 0 .73916 118.447 200.398)" fill="#fff" stroke-width=".3" stroke-linecap="round" stroke-linejoin="round" stroke="#888"/><path d="M-.002 0L5-5h10V5l-4.997 5H-.002zm0 0" transform="matrix(.74185 0 0 .73916 127.35 200.398)" fill="#fff" stroke-width=".3" stroke-linecap="round" stroke-linejoin="round" stroke="#888"/><path d="M10.003 0L15-5V5l-4.997 5zm0 0" transform="matrix(.74185 0 0 .73916 127.35 200.398)" fill="#fff" stroke-width=".3" stroke-linecap="round" stroke-linejoin="round" stroke="#888"/><path d="M-.002 0L5-5h10l-4.997 5zm0 0" transform="matrix(.74185 0 0 .73916 127.35 200.398)" fill="#fff" stroke-width=".3" stroke-linecap="round" stroke-linejoin="round" stroke="#888"/><g clip-path="url(#e)"><path d="M11.621 191.527l3.711-3.695h7.418v7.39l-3.71 3.696h-7.42zm0 0" fill="#fff"/></g><g clip-path="url(#f)"><path d="M0-.001l5.003-5h9.999v9.999l-5.002 5H0zm0 0" transform="matrix(.74185 0 0 .73916 11.62 191.528)" fill="none" stroke-width=".3" stroke-linecap="round" stroke-linejoin="round" stroke="#888"/></g><path d="M10-.001l5.002-5v9.999l-5.002 5zm0 0" transform="matrix(.74185 0 0 .73916 11.62 191.528)" fill="#fff" stroke-width=".3" stroke-linecap="round" stroke-linejoin="round" stroke="#888"/><g clip-path="url(#g)"><path d="M0-.001l5.003-5h9.999L10 0zm0 0" transform="matrix(.74185 0 0 .73916 11.62 191.528)" fill="#fff" stroke-width=".3" stroke-linecap="round" stroke-linejoin="round" stroke="#888"/></g><path d="M0-.001l4.997-5h10.005v9.999l-5.002 5H0zm0 0" transform="matrix(.74185 0 0 .73916 20.523 191.528)" fill="#fff" stroke-width=".3" stroke-linecap="round" stroke-linejoin="round" stroke="#888"/><path d="M10-.001l5.002-5v9.999l-5.002 5zm0 0" transform="matrix(.74185 0 0 .73916 20.523 191.528)" fill="#fff" stroke-width=".3" stroke-linecap="round" stroke-linejoin="round" stroke="#888"/><path d="M0-.001l4.997-5h10.005L10 0zm0 0" transform="matrix(.74185 0 0 .73916 20.523 191.528)" fill="#fff" stroke-width=".3" stroke-linecap="round" stroke-linejoin="round" stroke="#888"/><path d="M.001-.001l4.997-5h10v9.999l-4.997 5H0zm0 0" transform="matrix(.74185 0 0 .73916 56.132 191.528)" fill="#fff" stroke-width=".3" stroke-linecap="round" stroke-linejoin="round" stroke="#888"/><path d="M10-.001l4.998-5v9.999l-4.997 5zm0 0" transform="matrix(.74185 0 0 .73916 56.132 191.528)" fill="#fff" stroke-width=".3" stroke-linecap="round" stroke-linejoin="round" stroke="#888"/><path d="M.001-.001l4.997-5h10L10 0zm0 0" transform="matrix(.74185 0 0 .73916 56.132 191.528)" fill="#fff" stroke-width=".3" stroke-linecap="round" stroke-linejoin="round" stroke="#888"/><path d="M.002-.001l4.997-5h9.999v9.999l-4.997 5H0zm0 0" transform="matrix(.74185 0 0 .73916 65.034 191.528)" fill="#fff" stroke-width=".3" stroke-linecap="round" stroke-linejoin="round" stroke="#888"/><path d="M10-.001l4.998-5v9.999l-4.997 5zm0 0" transform="matrix(.74185 0 0 .73916 65.034 191.528)" fill="#fff" stroke-width=".3" stroke-linecap="round" stroke-linejoin="round" stroke="#888"/><path d="M.002-.001l4.997-5h9.999L10 0zm0 0" transform="matrix(.74185 0 0 .73916 65.034 191.528)" fill="#fff" stroke-width=".3" stroke-linecap="round" stroke-linejoin="round" stroke="#888"/><path d="M.002-.001l4.997-5h10v9.999l-4.998 5H.002zm0 0" transform="matrix(.74185 0 0 .73916 82.838 191.528)" fill="#fff" stroke-width=".3" stroke-linecap="round" stroke-linejoin="round" stroke="#888"/><path d="M10.001-.001l4.997-5v9.999l-4.997 5zm0 0" transform="matrix(.74185 0 0 .73916 82.838 191.528)" fill="#fff" stroke-width=".3" stroke-linecap="round" stroke-linejoin="round" stroke="#888"/><path d="M.002-.001l4.997-5h10L10 0zm0 0" transform="matrix(.74185 0 0 .73916 82.838 191.528)" fill="#fff" stroke-width=".3" stroke-linecap="round" stroke-linejoin="round" stroke="#888"/><path d="M.002-.001l4.997-5h10v9.999l-4.997 5h-10zm0 0" transform="matrix(.74185 0 0 .73916 91.74 191.528)" fill="#fff" stroke-width=".3" stroke-linecap="round" stroke-linejoin="round" stroke="#888"/><path d="M10.002-.001l4.997-5v9.999l-4.997 5zm-10 0l4.997-5h10l-4.997 5zm0 0" transform="matrix(.74185 0 0 .73916 91.74 191.528)" fill="#fff" stroke-width=".3" stroke-linecap="round" stroke-linejoin="round" stroke="#888"/><path d="M-.002-.001l5.002-5h10v9.999l-4.997 5H-.002zm0 0" transform="matrix(.74185 0 0 .73916 127.35 191.528)" fill="#fff" stroke-width=".3" stroke-linecap="round" stroke-linejoin="round" stroke="#888"/><path d="M10.003-.001l4.997-5v9.999l-4.997 5zm0 0" transform="matrix(.74185 0 0 .73916 127.35 191.528)" fill="#fff" stroke-width=".3" stroke-linecap="round" stroke-linejoin="round" stroke="#888"/><path d="M-.002-.001l5.002-5h10l-4.997 5zm0 0" transform="matrix(.74185 0 0 .73916 127.35 191.528)" fill="#fff" stroke-width=".3" stroke-linecap="round" stroke-linejoin="round" stroke="#888"/><g clip-path="url(#h)"><path d="M136.25 191.527l3.71-3.695h7.419v7.39l-3.711 3.696h-7.418zm0 0" fill="#fff"/></g><g clip-path="url(#i)"><path d="M-.002-.001l5.002-5h10v9.999l-5.003 5H-.002zm0 0" transform="matrix(.74185 0 0 .73916 136.251 191.528)" fill="none" stroke-width=".3" stroke-linecap="round" stroke-linejoin="round" stroke="#888"/></g><g clip-path="url(#j)"><path d="M143.668 191.527l3.71-3.695v7.39l-3.71 3.696zm0 0" fill="#fff"/></g><g clip-path="url(#k)"><path d="M9.997-.001l5.003-5v9.999l-5.003 5zm0 0" transform="matrix(.74185 0 0 .73916 136.251 191.528)" fill="none" stroke-width=".3" stroke-linecap="round" stroke-linejoin="round" stroke="#888"/></g><g clip-path="url(#l)"><path d="M-.002-.001l5.002-5h10L9.997 0zm0 0" transform="matrix(.74185 0 0 .73916 136.251 191.528)" fill="#fff" stroke-width=".3" stroke-linecap="round" stroke-linejoin="round" stroke="#888"/></g><g clip-path="url(#m)"><path d="M0 .002l5.003-5.004h9.999V5.002L10 10H0zm0 0" transform="matrix(.74185 0 0 .73916 11.62 182.658)" fill="#fff" stroke-width=".3" stroke-linecap="round" stroke-linejoin="round" stroke="#888"/></g><path d="M10 .002l5.002-5.004V5.002L10 10zm0 0" transform="matrix(.74185 0 0 .73916 11.62 182.658)" fill="#fff" stroke-width=".3" stroke-linecap="round" stroke-linejoin="round" stroke="#888"/><g clip-path="url(#n)"><path d="M0 .002l5.003-5.004h9.999L10 .002zm0 0" transform="matrix(.74185 0 0 .73916 11.62 182.658)" fill="#fff" stroke-width=".3" stroke-linecap="round" stroke-linejoin="round" stroke="#888"/></g><path d="M0 .002l4.997-5.004h10.005V5.002L10 10H0zm0 0" transform="matrix(.74185 0 0 .73916 20.523 182.658)" fill="#fff" stroke-width=".3" stroke-linecap="round" stroke-linejoin="round" stroke="#888"/><path d="M10 .002l5.002-5.004V5.002L10 10zm0 0" transform="matrix(.74185 0 0 .73916 20.523 182.658)" fill="#fff" stroke-width=".3" stroke-linecap="round" stroke-linejoin="round" stroke="#888"/><path d="M0 .002l4.997-5.004h10.005L10 .002zm0 0" transform="matrix(.74185 0 0 .73916 20.523 182.658)" fill="#fff" stroke-width=".3" stroke-linecap="round" stroke-linejoin="round" stroke="#888"/><path d="M.002.002l4.997-5.004h9.999V5.002L10 10H0zm0 0" transform="matrix(.74185 0 0 .73916 65.034 182.658)" fill="#fff" stroke-width=".3" stroke-linecap="round" stroke-linejoin="round" stroke="#888"/><path d="M10 .002l4.998-5.004V5.002L10 10zm0 0" transform="matrix(.74185 0 0 .73916 65.034 182.658)" fill="#fff" stroke-width=".3" stroke-linecap="round" stroke-linejoin="round" stroke="#888"/><path d="M.002.002l4.997-5.004h9.999L10 .002zm0 0" transform="matrix(.74185 0 0 .73916 65.034 182.658)" fill="#fff" stroke-width=".3" stroke-linecap="round" stroke-linejoin="round" stroke="#888"/><path d="M.002.002l4.997-5.004h10V5.002L10 10H0zm0 0" transform="matrix(.74185 0 0 .73916 73.936 182.658)" fill="#fff" stroke-width=".3" stroke-linecap="round" stroke-linejoin="round" stroke="#888"/><path d="M10.001.002l4.997-5.004V5.002L10.001 10zm0 0" transform="matrix(.74185 0 0 .73916 73.936 182.658)" fill="#fff" stroke-width=".3" stroke-linecap="round" stroke-linejoin="round" stroke="#888"/><path d="M.002.002l4.997-5.004h10L10 .002zm0 0" transform="matrix(.74185 0 0 .73916 73.936 182.658)" fill="#fff" stroke-width=".3" stroke-linecap="round" stroke-linejoin="round" stroke="#888"/><path d="M.002.002L5-5.002h10V5.002L10 10H.002zm0 0" transform="matrix(.74185 0 0 .73916 82.838 182.658)" fill="#fff" stroke-width=".3" stroke-linecap="round" stroke-linejoin="round" stroke="#888"/><path d="M10.001.002l4.997-5.004V5.002L10.001 10zm0 0" transform="matrix(.74185 0 0 .73916 82.838 182.658)" fill="#fff" stroke-width=".3" stroke-linecap="round" stroke-linejoin="round" stroke="#888"/><path d="M.002.002L5-5.002h10L10 .002zm0 0" transform="matrix(.74185 0 0 .73916 82.838 182.658)" fill="#fff" stroke-width=".3" stroke-linecap="round" stroke-linejoin="round" stroke="#888"/><path d="M-.002.002L5-5.002h10V5.002L10.003 10H-.002zm0 0" transform="matrix(.74185 0 0 .73916 127.35 182.658)" fill="#fff" stroke-width=".3" stroke-linecap="round" stroke-linejoin="round" stroke="#888"/><path d="M10.003.002L15-5.002V5.002L10.003 10zm0 0" transform="matrix(.74185 0 0 .73916 127.35 182.658)" fill="#fff" stroke-width=".3" stroke-linecap="round" stroke-linejoin="round" stroke="#888"/><path d="M-.002.002L5-5.002h10L10.003.002zm0 0" transform="matrix(.74185 0 0 .73916 127.35 182.658)" fill="#fff" stroke-width=".3" stroke-linecap="round" stroke-linejoin="round" stroke="#888"/><g clip-path="url(#o)"><path d="M-.002.002L5-5.002h10V5.002L9.997 10H-.002zm0 0" transform="matrix(.74185 0 0 .73916 136.251 182.658)" fill="#fff" stroke-width=".3" stroke-linecap="round" stroke-linejoin="round" stroke="#888"/></g><g clip-path="url(#p)"><path d="M9.997.002L15-5.002V5.002L9.997 10zm0 0" transform="matrix(.74185 0 0 .73916 136.251 182.658)" fill="#fff" stroke-width=".3" stroke-linecap="round" stroke-linejoin="round" stroke="#888"/></g><g clip-path="url(#q)"><path d="M-.002.002L5-5.002h10L9.997.002zm0 0" transform="matrix(.74185 0 0 .73916 136.251 182.658)" fill="#fff" stroke-width=".3" stroke-linecap="round" stroke-linejoin="round" stroke="#888"/></g><g clip-path="url(#r)"><path d="M11.621 173.79l3.711-3.696h7.418v7.39l-3.71 3.696h-7.42zm0 0" fill="#fff"/></g><g clip-path="url(#s)"><path d="M0 0l5.003-4.999h9.999V5L10 10H0zm0 0" transform="matrix(.74185 0 0 .73916 11.62 173.789)" fill="none" stroke-width=".3" stroke-linecap="round" stroke-linejoin="round" stroke="#888"/></g><path d="M10 0l5.002-4.999V5L10 10zm0 0" transform="matrix(.74185 0 0 .73916 11.62 173.789)" fill="#fff" stroke-width=".3" stroke-linecap="round" stroke-linejoin="round" stroke="#888"/><g clip-path="url(#t)"><path d="M11.621 173.79l3.711-3.696h7.418l-3.71 3.695zm0 0" fill="#fff"/></g><g clip-path="url(#u)"><path d="M0 0l5.003-4.999h9.999L10 .001zm0 0" transform="matrix(.74185 0 0 .73916 11.62 173.789)" fill="none" stroke-width=".3" stroke-linecap="round" stroke-linejoin="round" stroke="#888"/></g><path d="M0 0l4.997-4.999h10.005V5L10 10H0zm0 0" transform="matrix(.74185 0 0 .73916 20.523 173.789)" fill="#fff" stroke-width=".3" stroke-linecap="round" stroke-linejoin="round" stroke="#888"/><path d="M10 0l5.002-4.999V5L10 10zm0 0" transform="matrix(.74185 0 0 .73916 20.523 173.789)" fill="#fff" stroke-width=".3" stroke-linecap="round" stroke-linejoin="round" stroke="#888"/><path d="M0 0l4.997-4.999h10.005L10 .001zm0 0" transform="matrix(.74185 0 0 .73916 20.523 173.789)" fill="#fff" stroke-width=".3" stroke-linecap="round" stroke-linejoin="round" stroke="#888"/><path d="M.001 0l4.997-4.999h10V5L10 10H0zm0 0" transform="matrix(.74185 0 0 .73916 56.132 173.789)" fill="#fff" stroke-width=".3" stroke-linecap="round" stroke-linejoin="round" stroke="#888"/><path d="M10 0l4.998-4.999V5L10 10zm0 0" transform="matrix(.74185 0 0 .73916 56.132 173.789)" fill="#fff" stroke-width=".3" stroke-linecap="round" stroke-linejoin="round" stroke="#888"/><path d="M.001 0l4.997-4.999h10L10 .001zm0 0" transform="matrix(.74185 0 0 .73916 56.132 173.789)" fill="#fff" stroke-width=".3" stroke-linecap="round" stroke-linejoin="round" stroke="#888"/><path d="M.002 0l4.997-4.999h9.999V5L10 10H0zm0 0" transform="matrix(.74185 0 0 .73916 65.034 173.789)" fill="#fff" stroke-width=".3" stroke-linecap="round" stroke-linejoin="round" stroke="#888"/><path d="M10 0l4.998-4.999V5L10 10zm0 0" transform="matrix(.74185 0 0 .73916 65.034 173.789)" fill="#fff" stroke-width=".3" stroke-linecap="round" stroke-linejoin="round" stroke="#888"/><path d="M.002 0l4.997-4.999h9.999L10 .001zm0 0" transform="matrix(.74185 0 0 .73916 65.034 173.789)" fill="#fff" stroke-width=".3" stroke-linecap="round" stroke-linejoin="round" stroke="#888"/><path d="M.002 0L5-4.998h10V5l-5 5H.002zm0 0" transform="matrix(.74185 0 0 .73916 82.838 173.789)" fill="#fff" stroke-width=".3" stroke-linecap="round" stroke-linejoin="round" stroke="#888"/><path d="M10.001 0l4.997-4.999V5l-4.997 5zm0 0" transform="matrix(.74185 0 0 .73916 82.838 173.789)" fill="#fff" stroke-width=".3" stroke-linecap="round" stroke-linejoin="round" stroke="#888"/><path d="M.002 0L5-4.998h10L10 .001zm0 0" transform="matrix(.74185 0 0 .73916 82.838 173.789)" fill="#fff" stroke-width=".3" stroke-linecap="round" stroke-linejoin="round" stroke="#888"/><path d="M.002 0L5-4.998h10V5l-4.997 5h-10zm0 0" transform="matrix(.74185 0 0 .73916 91.74 173.789)" fill="#fff" stroke-width=".3" stroke-linecap="round" stroke-linejoin="round" stroke="#888"/><path d="M10.002 0l4.997-4.999V5l-4.997 5zm0 0" transform="matrix(.74185 0 0 .73916 91.74 173.789)" fill="#fff" stroke-width=".3" stroke-linecap="round" stroke-linejoin="round" stroke="#888"/><path d="M.002 0L5-4.998h10l-4.997 5zm0 0" transform="matrix(.74185 0 0 .73916 91.74 173.789)" fill="#fff" stroke-width=".3" stroke-linecap="round" stroke-linejoin="round" stroke="#888"/><path d="M-.002 0L5-4.998h10V5l-4.997 5H-.002zm0 0" transform="matrix(.74185 0 0 .73916 127.35 173.789)" fill="#fff" stroke-width=".3" stroke-linecap="round" stroke-linejoin="round" stroke="#888"/><path d="M10.003 0L15-4.998V5l-4.997 5zm0 0" transform="matrix(.74185 0 0 .73916 127.35 173.789)" fill="#fff" stroke-width=".3" stroke-linecap="round" stroke-linejoin="round" stroke="#888"/><path d="M-.002 0L5-4.998h10l-4.997 5zm0 0" transform="matrix(.74185 0 0 .73916 127.35 173.789)" fill="#fff" stroke-width=".3" stroke-linecap="round" stroke-linejoin="round" stroke="#888"/><g clip-path="url(#v)"><path d="M136.25 173.79l3.71-3.696h7.419v7.39l-3.711 3.696h-7.418zm0 0" fill="#fff"/></g><g clip-path="url(#w)"><path d="M-.002 0L5-4.998h10V5l-5.003 5H-.002zm0 0" transform="matrix(.74185 0 0 .73916 136.251 173.789)" fill="none" stroke-width=".3" stroke-linecap="round" stroke-linejoin="round" stroke="#888"/></g><g clip-path="url(#x)"><path d="M143.668 173.79l3.71-3.696v7.39l-3.71 3.696zm0 0" fill="#fff"/></g><g clip-path="url(#y)"><path d="M9.997 0L15-4.998V5l-5.003 5zm0 0" transform="matrix(.74185 0 0 .73916 136.251 173.789)" fill="none" stroke-width=".3" stroke-linecap="round" stroke-linejoin="round" stroke="#888"/></g><g clip-path="url(#z)"><path d="M136.25 173.79l3.71-3.696h7.419l-3.711 3.695zm0 0" fill="#fff"/></g><g clip-path="url(#A)"><path d="M-.002 0L5-4.998h10l-5.003 5zm0 0" transform="matrix(.74185 0 0 .73916 136.251 173.789)" fill="none" stroke-width=".3" stroke-linecap="round" stroke-linejoin="round" stroke="#888"/></g><path d="M0-.001l4.997-5h10.005V5L10 9.997H0zm0 0" transform="matrix(.74185 0 0 .73916 20.523 164.919)" fill="#fff" stroke-width=".3" stroke-linecap="round" stroke-linejoin="round" stroke="#888"/><path d="M10-.001l5.002-5V5L10 9.997zm0 0" transform="matrix(.74185 0 0 .73916 20.523 164.919)" fill="#fff" stroke-width=".3" stroke-linecap="round" stroke-linejoin="round" stroke="#888"/><path d="M0-.001l4.997-5h10.005L10 0zm0 0" transform="matrix(.74185 0 0 .73916 20.523 164.919)" fill="#fff" stroke-width=".3" stroke-linecap="round" stroke-linejoin="round" stroke="#888"/><path d="M0-.001l4.998-5h10.004V5L10 9.997H0zm0 0" transform="matrix(.74185 0 0 .73916 29.425 164.919)" fill="#fff" stroke-width=".3" stroke-linecap="round" stroke-linejoin="round" stroke="#888"/><path d="M10-.001l5.002-5V5L10 9.997zm0 0" transform="matrix(.74185 0 0 .73916 29.425 164.919)" fill="#fff" stroke-width=".3" stroke-linecap="round" stroke-linejoin="round" stroke="#888"/><path d="M0-.001l4.998-5h10.004L10 0zm0 0" transform="matrix(.74185 0 0 .73916 29.425 164.919)" fill="#fff" stroke-width=".3" stroke-linecap="round" stroke-linejoin="round" stroke="#888"/><path d="M0-.001l4.998-5h10.005V5L10 9.997H0zm0 0" transform="matrix(.74185 0 0 .73916 38.327 164.919)" fill="#fff" stroke-width=".3" stroke-linecap="round" stroke-linejoin="round" stroke="#888"/><path d="M10-.001l5.003-5V5L10 9.997zm0 0" transform="matrix(.74185 0 0 .73916 38.327 164.919)" fill="#fff" stroke-width=".3" stroke-linecap="round" stroke-linejoin="round" stroke="#888"/><path d="M0-.001l4.998-5h10.005L10 0zm0 0" transform="matrix(.74185 0 0 .73916 38.327 164.919)" fill="#fff" stroke-width=".3" stroke-linecap="round" stroke-linejoin="round" stroke="#888"/><path d="M.001-.001l4.997-5h10V5L10 9.997H.001zm0 0" transform="matrix(.74185 0 0 .73916 47.23 164.919)" fill="#fff" stroke-width=".3" stroke-linecap="round" stroke-linejoin="round" stroke="#888"/><path d="M10-.001l4.997-5V5L10 9.997zm0 0" transform="matrix(.74185 0 0 .73916 47.23 164.919)" fill="#fff" stroke-width=".3" stroke-linecap="round" stroke-linejoin="round" stroke="#888"/><path d="M.001-.001l4.997-5h10L10 0zm0 0" transform="matrix(.74185 0 0 .73916 47.23 164.919)" fill="#fff" stroke-width=".3" stroke-linecap="round" stroke-linejoin="round" stroke="#888"/><path d="M.001-.001l4.997-5h10V5L10 9.997H0zm0 0" transform="matrix(.74185 0 0 .73916 56.132 164.919)" fill="#fff" stroke-width=".3" stroke-linecap="round" stroke-linejoin="round" stroke="#888"/><path d="M10-.001l4.998-5V5L10 9.997zm0 0" transform="matrix(.74185 0 0 .73916 56.132 164.919)" fill="#fff" stroke-width=".3" stroke-linecap="round" stroke-linejoin="round" stroke="#888"/><path d="M.001-.001l4.997-5h10L10 0zm0 0" transform="matrix(.74185 0 0 .73916 56.132 164.919)" fill="#fff" stroke-width=".3" stroke-linecap="round" stroke-linejoin="round" stroke="#888"/><path d="M.002-.001l4.997-5h10V5l-4.997 4.999h-10zm0 0" transform="matrix(.74185 0 0 .73916 91.74 164.919)" fill="#fff" stroke-width=".3" stroke-linecap="round" stroke-linejoin="round" stroke="#888"/><path d="M10.002-.001l4.997-5V5l-4.997 4.999zm-10 0l4.997-5h10l-4.997 5zm0 0" transform="matrix(.74185 0 0 .73916 91.74 164.919)" fill="#fff" stroke-width=".3" stroke-linecap="round" stroke-linejoin="round" stroke="#888"/><path d="M.003-.001l4.997-5h9.999V5l-4.997 4.999h-10zm0 0" transform="matrix(.74185 0 0 .73916 100.643 164.919)" fill="#fff" stroke-width=".3" stroke-linecap="round" stroke-linejoin="round" stroke="#888"/><path d="M10.002-.001l4.997-5V5l-4.997 4.999zm0 0" transform="matrix(.74185 0 0 .73916 100.643 164.919)" fill="#fff" stroke-width=".3" stroke-linecap="round" stroke-linejoin="round" stroke="#888"/><path d="M.003-.001l4.997-5h9.999l-4.997 5zm0 0" transform="matrix(.74185 0 0 .73916 100.643 164.919)" fill="#fff" stroke-width=".3" stroke-linecap="round" stroke-linejoin="round" stroke="#888"/><path d="M-.003-.001l5.003-5h10V5l-4.998 4.999H-.003zm0 0" transform="matrix(.74185 0 0 .73916 109.545 164.919)" fill="#fff" stroke-width=".3" stroke-linecap="round" stroke-linejoin="round" stroke="#888"/><path d="M10.002-.001l4.997-5V5l-4.997 4.999zm0 0" transform="matrix(.74185 0 0 .73916 109.545 164.919)" fill="#fff" stroke-width=".3" stroke-linecap="round" stroke-linejoin="round" stroke="#888"/><path d="M-.003-.001l5.003-5h10l-4.998 5zm0 0" transform="matrix(.74185 0 0 .73916 109.545 164.919)" fill="#fff" stroke-width=".3" stroke-linecap="round" stroke-linejoin="round" stroke="#888"/><path d="M-.002-.001l5.002-5h10V5l-4.998 4.999H-.002zm0 0" transform="matrix(.74185 0 0 .73916 118.447 164.919)" fill="#fff" stroke-width=".3" stroke-linecap="round" stroke-linejoin="round" stroke="#888"/><path d="M10.002-.001l4.997-5V5l-4.997 4.999zm0 0" transform="matrix(.74185 0 0 .73916 118.447 164.919)" fill="#fff" stroke-width=".3" stroke-linecap="round" stroke-linejoin="round" stroke="#888"/><path d="M-.002-.001l5.002-5h10l-4.998 5zm0 0" transform="matrix(.74185 0 0 .73916 118.447 164.919)" fill="#fff" stroke-width=".3" stroke-linecap="round" stroke-linejoin="round" stroke="#888"/><path d="M-.002-.001l5.002-5h10V5l-4.997 4.999H-.002zm0 0" transform="matrix(.74185 0 0 .73916 127.35 164.919)" fill="#fff" stroke-width=".3" stroke-linecap="round" stroke-linejoin="round" stroke="#888"/><path d="M10.003-.001l4.997-5V5l-4.997 4.999zm0 0" transform="matrix(.74185 0 0 .73916 127.35 164.919)" fill="#fff" stroke-width=".3" stroke-linecap="round" stroke-linejoin="round" stroke="#888"/><path d="M-.002-.001l5.002-5h10l-4.997 5zm0 0" transform="matrix(.74185 0 0 .73916 127.35 164.919)" fill="#fff" stroke-width=".3" stroke-linecap="round" stroke-linejoin="round" stroke="#888"/></svg>