<svg xmlns="http://www.w3.org/2000/svg" xmlns:xlink="http://www.w3.org/1999/xlink" width="212.16" height="329.28" viewBox="0 0 159.12 246.96"><defs><symbol overflow="visible" id="a"><path d="M2.031-5.828h.672L.672.75H0zm0 0"/></symbol><symbol overflow="visible" id="c"><path d="M7.938-8.766a3 3 0 0 1-.25 1.188 4.894 4.894 0 0 1-.657 1.11c-.273.366-.578.73-.922 1.093a51.51 51.51 0 0 1-1.015 1.047l-.672.672c-.25.261-.492.539-.719.828-.23.281-.422.555-.578.812-.148.262-.219.485-.219.672h5.422V0h-7.14a1.249 1.249 0 0 1-.016-.203v-.188c0-.53.086-1.023.266-1.484.175-.457.406-.89.687-1.297.281-.414.598-.8.953-1.156.352-.363.695-.719 1.031-1.063.282-.27.547-.535.797-.796.258-.27.489-.536.688-.797a3.68 3.68 0 0 0 .484-.829c.113-.289.172-.593.172-.906a2.14 2.14 0 0 0-.156-.86 1.602 1.602 0 0 0-.438-.593 1.616 1.616 0 0 0-.64-.36 2.727 2.727 0 0 0-.766-.109 2.73 2.73 0 0 0-.906.141 3.709 3.709 0 0 0-.735.313 2.79 2.79 0 0 0-.53.374c-.15.126-.263.227-.345.297l-.78-1.125a4.74 4.74 0 0 1 .452-.421c.207-.165.453-.32.735-.47a4.7 4.7 0 0 1 .953-.359 4.107 4.107 0 0 1 1.14-.156c1.239 0 2.164.29 2.782.86.613.562.921 1.37.921 2.421zm0 0"/></symbol><symbol overflow="visible" id="d"><path d="M.844-5.906c0-1.969.347-3.485 1.047-4.547.695-1.063 1.664-1.594 2.906-1.594 1.226 0 2.191.531 2.89 1.594.696 1.062 1.047 2.578 1.047 4.547 0 1.98-.351 3.5-1.046 4.562C6.987-.28 6.022.25 4.796.25c-1.241 0-2.21-.531-2.906-1.594C1.19-2.406.844-3.926.844-5.906zm6.234 0c0-.645-.043-1.254-.125-1.828a6.016 6.016 0 0 0-.375-1.516c-.168-.426-.402-.766-.703-1.016a1.577 1.577 0 0 0-1.078-.39c-.438 0-.805.133-1.094.39-.293.25-.527.59-.703 1.016a5.7 5.7 0 0 0-.375 1.516c-.074.574-.11 1.183-.11 1.828 0 .648.036 1.261.11 1.843.07.575.195 1.079.375 1.516.176.43.41.774.703 1.031.29.25.656.375 1.094.375.426 0 .785-.125 1.078-.375.3-.257.535-.601.703-1.03.176-.438.3-.942.375-1.517.082-.582.125-1.195.125-1.843zm0 0"/></symbol><symbol overflow="visible" id="e"><path d="M3.688-3.844c0 .211-.063.39-.188.547a.604.604 0 0 1-.484.219.614.614 0 0 1-.5-.219.845.845 0 0 1-.188-.547c0-.207.063-.39.188-.547a.604.604 0 0 1 .5-.234c.195 0 .359.078.484.234.125.157.188.34.188.547zm-3.141.14c0-1.25.21-2.206.64-2.874.426-.664 1.032-1 1.813-1 .781 0 1.379.336 1.797 1 .426.668.64 1.625.64 2.875 0 1.242-.214 2.195-.64 2.86-.418.667-1.016 1-1.797 1-.781 0-1.387-.333-1.813-1-.43-.665-.64-1.618-.64-2.86zm3.875 0c0-.413-.027-.8-.078-1.155a3.585 3.585 0 0 0-.235-.954 1.546 1.546 0 0 0-.437-.64.96.96 0 0 0-.672-.25c-.281 0-.516.086-.703.25-.18.156-.324.371-.438.64-.105.274-.183.59-.234.954a9.697 9.697 0 0 0-.063 1.156c0 .406.02.793.063 1.156.05.356.129.668.234.938.114.273.258.492.438.656.187.156.422.234.703.234.27 0 .492-.078.672-.234a1.63 1.63 0 0 0 .437-.656 3.48 3.48 0 0 0 .235-.938c.05-.363.078-.75.078-1.156zm0 0"/></symbol><symbol overflow="visible" id="f"><path d="M4.547 0a14.777 14.777 0 0 0-.672-1.11c-.137-.206-.277-.41-.422-.609a26 26 0 0 0-.437-.562c-.149.18-.297.37-.454.578-.156.2-.312.402-.468.61A13.373 13.373 0 0 0 1.359 0H.344c.258-.477.578-.969.953-1.469.383-.508.758-.992 1.125-1.453L.437-5.547h1.11l1.5 1.938 1.375-1.938h1.047L3.64-2.984c.351.468.71.964 1.078 1.484.363.512.676 1.012.937 1.5zm0 0"/></symbol><symbol overflow="visible" id="g"><path d="M1.375-9.047a9.785 9.785 0 0 0 1.828-.922 7.232 7.232 0 0 0 1.64-1.437h1.063v10.11h2.157V0H1.936v-1.297h2.47V-9.28c-.137.125-.305.25-.5.375-.188.125-.4.25-.626.375a8.43 8.43 0 0 1-.703.36c-.25.105-.492.194-.719.265zm0 0"/></symbol><symbol overflow="visible" id="h"><path d="M.656-3.938c.207-.488.492-1.05.86-1.687a32.96 32.96 0 0 1 2.671-4 20.55 20.55 0 0 1 1.579-1.781h1.468v7.25h1.344v1.25H7.234V0H5.766v-2.906H.656zm5.11-5.656c-.336.356-.672.746-1.016 1.172a22.539 22.539 0 0 0-1.875 2.813 21.16 21.16 0 0 0-.734 1.453h3.625zm0 0"/></symbol><symbol overflow="visible" id="i"><path d="M40.906-43.625c0 2.043-.43 4.043-1.281 6a30.686 30.686 0 0 1-3.281 5.703 45.331 45.331 0 0 1-4.547 5.344c-1.7 1.73-3.399 3.418-5.094 5.062a83.463 83.463 0 0 0-3.062 3.063 84.138 84.138 0 0 0-3.235 3.578 36.01 36.01 0 0 0-2.64 3.438c-.73 1.105-1.125 2.027-1.188 2.765h26.188V0h-37.5a14.306 14.306 0 0 1-.079-1.656v-1.485c0-2.726.438-5.238 1.313-7.53a28.706 28.706 0 0 1 3.453-6.407 44.96 44.96 0 0 1 4.75-5.625 410.146 410.146 0 0 1 5.281-5.188 279.53 279.53 0 0 0 3.907-3.828 38.273 38.273 0 0 0 3.28-3.703c.938-1.219 1.688-2.46 2.25-3.734a9.654 9.654 0 0 0 .845-3.953c0-2.946-.852-5.047-2.547-6.297-1.7-1.25-3.766-1.875-6.203-1.875-1.594 0-3.075.23-4.438.687-1.355.461-2.558 1-3.61 1.625-1.042.617-1.96 1.25-2.75 1.907-.792.648-1.39 1.171-1.796 1.578L3.828-52.72c2.375-2.27 5.16-4.097 8.36-5.484 3.207-1.383 6.656-2.078 10.343-2.078 6.29 0 10.926 1.492 13.907 4.468 2.976 2.97 4.468 7.032 4.468 12.188zm0 0"/></symbol><symbol overflow="visible" id="j"><path d="M44.64-29.5c0 9.918-1.82 17.527-5.453 22.828-3.624 5.305-8.636 7.953-15.03 7.953-6.407 0-11.43-2.648-15.063-7.953-3.625-5.3-5.438-12.91-5.438-22.828 0-4.938.469-9.316 1.406-13.14.938-3.82 2.297-7.036 4.079-9.641 1.78-2.614 3.93-4.598 6.453-5.953 2.531-1.364 5.383-2.047 8.562-2.047 6.395 0 11.407 2.652 15.032 7.953C42.82-47.035 44.64-39.426 44.64-29.5zm-10.624 0c0-3.063-.172-5.926-.516-8.594-.344-2.664-.898-4.972-1.656-6.922-.762-1.957-1.766-3.504-3.016-4.64-1.25-1.133-2.808-1.703-4.672-1.703-1.875 0-3.453.57-4.734 1.703-1.274 1.136-2.293 2.683-3.063 4.64-.761 1.95-1.297 4.258-1.609 6.922-.313 2.668-.469 5.532-.469 8.594 0 3.055.156 5.914.469 8.578.313 2.668.848 4.98 1.61 6.938.769 1.96 1.788 3.507 3.062 4.64 1.281 1.125 2.86 1.688 4.734 1.688 1.864 0 3.422-.563 4.672-1.688 1.25-1.133 2.254-2.68 3.016-4.64.758-1.957 1.312-4.27 1.656-6.938.344-2.664.516-5.523.516-8.578zm0 0"/></symbol><clipPath id="b"><path d="M0 0h159v246.75H0zm0 0"/></clipPath></defs><path fill="#fff" d="M0 0h159.12v246.96H0z"/><use xlink:href="#a" x="114.547" y="230"/><g clip-path="url(#b)"><path d="M0-2220.75h159V23688H0zm0 0" fill="#fff"/></g><use xlink:href="#c" x="11.332" y="25.5" fill="#228b22"/><use xlink:href="#d" x="20.916" y="25.5" fill="#228b22"/><use xlink:href="#e" x="116.32" y="25.5" fill="#888"/><use xlink:href="#f" x="122.303" y="25.5" fill="#888"/><use xlink:href="#g" x="128.977" y="25.5" fill="#228b22"/><use xlink:href="#h" x="138.182" y="25.5" fill="#228b22"/><use xlink:href="#i" x="33.902" y="111" fill="#228b22"/><use xlink:href="#j" x="76.531" y="111" fill="#228b22"/><path d="M48.008 205.793l5-4.98h9.996v9.96l-4.996 4.98h-10zm0 0" fill="#228b22"/><path d="M58.008 205.793l4.996-4.98v9.96l-4.996 4.98zm0 0" fill="#196619"/><path d="M48.008 205.793l5-4.98h9.996l-4.996 4.98zm0 0" fill="#28a428"/><path d="M60.004 205.793l5-4.98H75v9.96l-4.996 4.98h-10zm0 0" fill="#228b22"/><path d="M70.004 205.793l4.996-4.98v9.96l-4.996 4.98zm0 0" fill="#196619"/><path d="M60.004 205.793l5-4.98H75l-4.996 4.98zm0 0" fill="#28a428"/><path d="M72.004 205.793l4.996-4.98h9.996v9.96L82 215.753h-9.996zm0 0" fill="#228b22"/><path d="M82 205.793l4.996-4.98v9.96L82 215.753zm0 0" fill="#196619"/><path d="M72.004 205.793l4.996-4.98h9.996L82 205.792zm0 0" fill="#28a428"/><path d="M84 205.793l4.996-4.98h10v9.96l-5 4.98H84zm0 0" fill="#228b22"/><path d="M93.996 205.793l5-4.98v9.96l-5 4.98zm0 0" fill="#196619"/><path d="M84 205.793l4.996-4.98h10l-5 4.98zm0 0" fill="#28a428"/><path d="M95.996 205.793l4.996-4.98h10v9.96l-5 4.98h-9.996zm0 0" fill="#228b22"/><path d="M105.992 205.793l5-4.98v9.96l-5 4.98zm0 0" fill="#196619"/><path d="M95.996 205.793l4.996-4.98h10l-5 4.98zm0 0" fill="#28a428"/><path d="M48.008 193.84l5-4.98h9.996v9.96l-4.996 4.98h-10zm0 0" fill="#228b22"/><path d="M58.008 193.84l4.996-4.98v9.96l-4.996 4.98zm0 0" fill="#196619"/><path d="M48.008 193.84l5-4.98h9.996l-4.996 4.98zm0 0" fill="#28a428"/><path d="M60.004 193.84l5-4.98H75v9.96l-4.996 4.98h-10zm0 0" fill="#228b22"/><path d="M70.004 193.84L75 188.86v9.96l-4.996 4.98zm0 0" fill="#196619"/><path d="M60.004 193.84l5-4.98H75l-4.996 4.98zm0 0" fill="#28a428"/><path d="M72.004 193.84L77 188.86h9.996v9.96L82 203.8h-9.996zm0 0" fill="#228b22"/><path d="M82 193.84l4.996-4.98v9.96L82 203.8zm0 0" fill="#196619"/><path d="M72.004 193.84L77 188.86h9.996L82 193.84zm0 0" fill="#28a428"/><path d="M84 193.84l4.996-4.98h10v9.96l-5 4.98H84zm0 0" fill="#228b22"/><path d="M93.996 193.84l5-4.98v9.96l-5 4.98zm0 0" fill="#196619"/><path d="M84 193.84l4.996-4.98h10l-5 4.98zm0 0" fill="#28a428"/><path d="M95.996 193.84l4.996-4.98h10v9.96l-5 4.98h-9.996zm0 0" fill="#228b22"/><path d="M105.992 193.84l5-4.98v9.96l-5 4.98zm0 0" fill="#196619"/><path d="M95.996 193.84l4.996-4.98h10l-5 4.98zm0 0" fill="#28a428"/><path d="M48.008 169.934l5-4.98h9.996v9.96l-4.996 4.98h-10zm0 0" fill="#228b22"/><path d="M58.008 169.934l4.996-4.98v9.96l-4.996 4.98zm0 0" fill="#196619"/><path d="M48.008 169.934l5-4.98h9.996l-4.996 4.98zm0 0" fill="#28a428"/><path d="M60.004 169.934l5-4.98H75v9.96l-4.996 4.98h-10zm0 0" fill="#228b22"/><path d="M70.004 169.934l4.996-4.98v9.96l-4.996 4.98zm0 0" fill="#196619"/><path d="M60.004 169.934l5-4.98H75l-4.996 4.98zm0 0" fill="#28a428"/><path d="M72.004 169.934l4.996-4.98h9.996v9.96L82 179.894h-9.996zm0 0" fill="#228b22"/><path d="M82 169.934l4.996-4.98v9.96L82 179.894zm0 0" fill="#196619"/><path d="M72.004 169.934l4.996-4.98h9.996L82 169.933zm0 0" fill="#28a428"/><path d="M84 169.934l4.996-4.98h10v9.96l-5 4.98H84zm0 0" fill="#228b22"/><path d="M93.996 169.934l5-4.98v9.96l-5 4.98zm0 0" fill="#196619"/><path d="M84 169.934l4.996-4.98h10l-5 4.98zm0 0" fill="#28a428"/><path d="M95.996 169.934l4.996-4.98h10v9.96l-5 4.98h-9.996zm0 0" fill="#228b22"/><path d="M105.992 169.934l5-4.98v9.96l-5 4.98zm0 0" fill="#196619"/><path d="M95.996 169.934l4.996-4.98h10l-5 4.98zm0 0" fill="#28a428"/><path d="M48.008 157.98l5-4.98h9.996v9.96l-4.996 4.981h-10zm0 0" fill="#228b22"/><path d="M58.008 157.98l4.996-4.98v9.96l-4.996 4.981zm0 0" fill="#196619"/><path d="M48.008 157.98l5-4.98h9.996l-4.996 4.98zm0 0" fill="#28a428"/><path d="M60.004 157.98l5-4.98H75v9.96l-4.996 4.981h-10zm0 0" fill="#228b22"/><path d="M70.004 157.98L75 153v9.96l-4.996 4.981zm0 0" fill="#196619"/><path d="M60.004 157.98l5-4.98H75l-4.996 4.98zm0 0" fill="#28a428"/><path d="M72.004 157.98L77 153h9.996v9.96L82 167.942h-9.996zm0 0" fill="#228b22"/><path d="M82 157.98l4.996-4.98v9.96L82 167.942zm0 0" fill="#196619"/><path d="M72.004 157.98L77 153h9.996L82 157.98zm0 0" fill="#28a428"/><path d="M84 157.98l4.996-4.98h10v9.96l-5 4.981H84zm0 0" fill="#228b22"/><path d="M93.996 157.98l5-4.98v9.96l-5 4.981zm0 0" fill="#196619"/><path d="M84 157.98l4.996-4.98h10l-5 4.98zm0 0" fill="#28a428"/><path d="M95.996 157.98l4.996-4.98h10v9.96l-5 4.981h-9.996zm0 0" fill="#228b22"/><path d="M105.992 157.98l5-4.98v9.96l-5 4.981zm0 0" fill="#196619"/><path d="M95.996 157.98l4.996-4.98h10l-5 4.98zm0 0" fill="#28a428"/></svg>