<svg xmlns="http://www.w3.org/2000/svg" xmlns:xlink="http://www.w3.org/1999/xlink" width="212.16" height="329.28" viewBox="0 0 159.12 246.96"><defs><symbol overflow="visible" id="a"><path d="M2.031-5.828h.672L.672.75H0zm0 0"/></symbol><symbol overflow="visible" id="c"><path d="M.844-5.906c0-1.969.347-3.485 1.047-4.547.695-1.063 1.664-1.594 2.906-1.594 1.226 0 2.191.531 2.89 1.594.696 1.062 1.047 2.578 1.047 4.547 0 1.98-.351 3.5-1.046 4.562C6.987-.28 6.022.25 4.796.25c-1.241 0-2.21-.531-2.906-1.594C1.19-2.406.844-3.926.844-5.906zm6.234 0c0-.645-.043-1.254-.125-1.828a6.016 6.016 0 0 0-.375-1.516c-.168-.426-.402-.766-.703-1.016a1.577 1.577 0 0 0-1.078-.39c-.438 0-.805.133-1.094.39-.293.25-.527.59-.703 1.016a5.7 5.7 0 0 0-.375 1.516c-.074.574-.11 1.183-.11 1.828 0 .648.036 1.261.11 1.843.07.575.195 1.079.375 1.516.176.43.41.774.703 1.031.29.25.656.375 1.094.375.426 0 .785-.125 1.078-.375.3-.257.535-.601.703-1.03.176-.438.3-.942.375-1.517.082-.582.125-1.195.125-1.843zm0 0"/></symbol><symbol overflow="visible" id="d"><path d="M3.688-3.844c0 .211-.063.39-.188.547a.604.604 0 0 1-.484.219.614.614 0 0 1-.5-.219.845.845 0 0 1-.188-.547c0-.207.063-.39.188-.547a.604.604 0 0 1 .5-.234c.195 0 .359.078.484.234.125.157.188.34.188.547zm-3.141.14c0-1.25.21-2.206.64-2.874.426-.664 1.032-1 1.813-1 .781 0 1.379.336 1.797 1 .426.668.64 1.625.64 2.875 0 1.242-.214 2.195-.64 2.86-.418.667-1.016 1-1.797 1-.781 0-1.387-.333-1.813-1-.43-.665-.64-1.618-.64-2.86zm3.875 0c0-.413-.027-.8-.078-1.155a3.585 3.585 0 0 0-.235-.954 1.546 1.546 0 0 0-.437-.64.96.96 0 0 0-.672-.25c-.281 0-.516.086-.703.25-.18.156-.324.371-.438.64-.105.274-.183.59-.234.954a9.697 9.697 0 0 0-.063 1.156c0 .406.02.793.063 1.156.05.356.129.668.234.938.114.273.258.492.438.656.187.156.422.234.703.234.27 0 .492-.078.672-.234a1.63 1.63 0 0 0 .437-.656 3.48 3.48 0 0 0 .235-.938c.05-.363.078-.75.078-1.156zm0 0"/></symbol><symbol overflow="visible" id="e"><path d="M4.547 0a14.777 14.777 0 0 0-.672-1.11c-.137-.206-.277-.41-.422-.609a26 26 0 0 0-.437-.562c-.149.18-.297.37-.454.578-.156.2-.312.402-.468.61A13.373 13.373 0 0 0 1.359 0H.344c.258-.477.578-.969.953-1.469.383-.508.758-.992 1.125-1.453L.437-5.547h1.11l1.5 1.938 1.375-1.938h1.047L3.64-2.984c.351.468.71.964 1.078 1.484.363.512.676 1.012.937 1.5zm0 0"/></symbol><symbol overflow="visible" id="f"><path d="M5.672-5.906c0 .312-.094.59-.281.828a.916.916 0 0 1-.75.344c-.325 0-.586-.114-.782-.344a1.304 1.304 0 0 1-.28-.828c0-.32.093-.602.28-.844a.943.943 0 0 1 .782-.375.89.89 0 0 1 .75.375c.187.242.28.523.28.844zm-4.828.203c0-1.914.328-3.383.984-4.406.656-1.032 1.582-1.547 2.781-1.547 1.196 0 2.118.515 2.766 1.547.656 1.023.984 2.492.984 4.406 0 1.906-.328 3.375-.984 4.406C6.727-.273 5.805.234 4.609.234c-1.199 0-2.125-.507-2.78-1.53-.657-1.032-.985-2.5-.985-4.407zm5.968 0c0-.633-.039-1.227-.109-1.781a5.716 5.716 0 0 0-.375-1.47c-.168-.413-.39-.741-.672-.983-.281-.25-.633-.376-1.047-.376-.418 0-.773.126-1.062.376-.281.242-.512.57-.688.984A5.885 5.885 0 0 0 2.5-7.484c-.074.554-.11 1.148-.11 1.78 0 .626.036 1.22.11 1.782.07.555.191 1.04.36 1.453.175.418.406.75.687 1 .289.242.644.36 1.062.36.414 0 .766-.118 1.047-.36.282-.25.504-.582.672-1 .176-.414.3-.898.375-1.453.07-.562.11-1.156.11-1.781zm0 0"/></symbol><symbol overflow="visible" id="g"><path d="M44.64-29.5c0 9.918-1.82 17.527-5.453 22.828-3.624 5.305-8.636 7.953-15.03 7.953-6.407 0-11.43-2.648-15.063-7.953-3.625-5.3-5.438-12.91-5.438-22.828 0-4.938.469-9.316 1.406-13.14.938-3.82 2.297-7.036 4.079-9.641 1.78-2.614 3.93-4.598 6.453-5.953 2.531-1.364 5.383-2.047 8.562-2.047 6.395 0 11.407 2.652 15.032 7.953C42.82-47.035 44.64-39.426 44.64-29.5zm-10.624 0c0-3.063-.172-5.926-.516-8.594-.344-2.664-.898-4.972-1.656-6.922-.762-1.957-1.766-3.504-3.016-4.64-1.25-1.133-2.808-1.703-4.672-1.703-1.875 0-3.453.57-4.734 1.703-1.274 1.136-2.293 2.683-3.063 4.64-.761 1.95-1.297 4.258-1.609 6.922-.313 2.668-.469 5.532-.469 8.594 0 3.055.156 5.914.469 8.578.313 2.668.848 4.98 1.61 6.938.769 1.96 1.788 3.507 3.062 4.64 1.281 1.125 2.86 1.688 4.734 1.688 1.864 0 3.422-.563 4.672-1.688 1.25-1.133 2.254-2.68 3.016-4.64.758-1.957 1.312-4.27 1.656-6.938.344-2.664.516-5.523.516-8.578zm0 0"/></symbol><clipPath id="b"><path d="M0 0h159v246.75H0zm0 0"/></clipPath></defs><path fill="#fff" d="M0 0h159.12v246.96H0z"/><use xlink:href="#a" x="114.547" y="230"/><g clip-path="url(#b)"><path d="M0-22701h159V3207.75H0zm0 0" fill="#fff"/></g><use xlink:href="#c" x="11.332" y="25.5" fill="#3771c8"/><use xlink:href="#d" x="116.32" y="25.5" fill="#888"/><use xlink:href="#e" x="122.303" y="25.5" fill="#888"/><use xlink:href="#f" x="128.977" y="25.5" fill="#3771c8"/><use xlink:href="#f" x="138.182" y="25.5" fill="#3771c8"/><use xlink:href="#g" x="55.219" y="111" fill="#3771c8"/><path d="M0 0l5-5h10V5l-5 5H0zm0 0" transform="matrix(1.27964 0 0 1.275 69.903 181.05)" fill="#fff" stroke-width=".3" stroke-linecap="round" stroke-linejoin="round" stroke="#888"/><path d="M10 0l5-5V5l-5 5zm0 0" transform="matrix(1.27964 0 0 1.275 69.903 181.05)" fill="#fff" stroke-width=".3" stroke-linecap="round" stroke-linejoin="round" stroke="#888"/><path d="M0 0l5-5h10l-5 5zm0 0" transform="matrix(1.27964 0 0 1.275 69.903 181.05)" fill="#fff" stroke-width=".3" stroke-linecap="round" stroke-linejoin="round" stroke="#888"/></svg>