<svg xmlns="http://www.w3.org/2000/svg" xmlns:xlink="http://www.w3.org/1999/xlink" width="212.16" height="329.28" viewBox="0 0 159.12 246.96"><defs><symbol overflow="visible" id="a"><path d="M2.031-5.828h.672L.672.75H0zm0 0"/></symbol><symbol overflow="visible" id="c"><path d="M1.578-9.344c.645-.25 1.274-.566 1.89-.953a7.809 7.809 0 0 0 1.688-1.484h1.11V0H4.687v-9.594a4.475 4.475 0 0 1-.5.39 7.457 7.457 0 0 1-.64.392c-.23.124-.477.246-.735.359a7.48 7.48 0 0 1-.734.297zm0 0"/></symbol><symbol overflow="visible" id="d"><path d="M.844-5.906c0-1.969.347-3.485 1.047-4.547.695-1.063 1.664-1.594 2.906-1.594 1.226 0 2.191.531 2.89 1.594.696 1.062 1.047 2.578 1.047 4.547 0 1.98-.351 3.5-1.046 4.562C6.987-.28 6.022.25 4.796.25c-1.241 0-2.21-.531-2.906-1.594C1.19-2.406.844-3.926.844-5.906zm6.234 0c0-.645-.043-1.254-.125-1.828a6.016 6.016 0 0 0-.375-1.516c-.168-.426-.402-.766-.703-1.016a1.577 1.577 0 0 0-1.078-.39c-.438 0-.805.133-1.094.39-.293.25-.527.59-.703 1.016a5.7 5.7 0 0 0-.375 1.516c-.074.574-.11 1.183-.11 1.828 0 .648.036 1.261.11 1.843.07.575.195 1.079.375 1.516.176.43.41.774.703 1.031.29.25.656.375 1.094.375.426 0 .785-.125 1.078-.375.3-.257.535-.601.703-1.03.176-.438.3-.942.375-1.517.082-.582.125-1.195.125-1.843zm0 0"/></symbol><symbol overflow="visible" id="e"><path d="M3.688-3.844c0 .211-.063.39-.188.547a.604.604 0 0 1-.484.219.614.614 0 0 1-.5-.219.845.845 0 0 1-.188-.547c0-.207.063-.39.188-.547a.604.604 0 0 1 .5-.234c.195 0 .359.078.484.234.125.157.188.34.188.547zm-3.141.14c0-1.25.21-2.206.64-2.874.426-.664 1.032-1 1.813-1 .781 0 1.379.336 1.797 1 .426.668.64 1.625.64 2.875 0 1.242-.214 2.195-.64 2.86-.418.667-1.016 1-1.797 1-.781 0-1.387-.333-1.813-1-.43-.665-.64-1.618-.64-2.86zm3.875 0c0-.413-.027-.8-.078-1.155a3.585 3.585 0 0 0-.235-.954 1.546 1.546 0 0 0-.437-.64.96.96 0 0 0-.672-.25c-.281 0-.516.086-.703.25-.18.156-.324.371-.438.64-.105.274-.183.59-.234.954a9.697 9.697 0 0 0-.063 1.156c0 .406.02.793.063 1.156.05.356.129.668.234.938.114.273.258.492.438.656.187.156.422.234.703.234.27 0 .492-.078.672-.234a1.63 1.63 0 0 0 .437-.656 3.48 3.48 0 0 0 .235-.938c.05-.363.078-.75.078-1.156zm0 0"/></symbol><symbol overflow="visible" id="f"><path d="M4.547 0a14.777 14.777 0 0 0-.672-1.11c-.137-.206-.277-.41-.422-.609a26 26 0 0 0-.437-.562c-.149.18-.297.37-.454.578-.156.2-.312.402-.468.61A13.373 13.373 0 0 0 1.359 0H.344c.258-.477.578-.969.953-1.469.383-.508.758-.992 1.125-1.453L.437-5.547h1.11l1.5 1.938 1.375-1.938h1.047L3.64-2.984c.351.468.71.964 1.078 1.484.363.512.676 1.012.937 1.5zm0 0"/></symbol><symbol overflow="visible" id="g"><path d="M1-4.563c0-1.113.145-2.093.438-2.937.3-.852.734-1.566 1.296-2.14a5.547 5.547 0 0 1 2.032-1.329c.8-.312 1.707-.472 2.718-.484l.125 1.281a7.936 7.936 0 0 0-1.78.219 4.11 4.11 0 0 0-1.423.625 3.906 3.906 0 0 0-1.062 1.125c-.281.45-.496 1-.64 1.656.3-.133.624-.242.968-.328A4.939 4.939 0 0 1 4.797-7c.633 0 1.176.102 1.625.297.445.2.805.46 1.078.781.27.324.46.703.578 1.14.125.43.188.868.188 1.313a4.4 4.4 0 0 1-.204 1.281c-.136.438-.343.84-.624 1.204a3.157 3.157 0 0 1-1.094.89c-.438.219-.965.328-1.578.328-1.262 0-2.204-.421-2.829-1.265C1.313-1.875 1-3.051 1-4.563zM4.625-5.75c-.398 0-.758.04-1.078.11a5.597 5.597 0 0 0-.985.327c-.011.125-.015.25-.015.375v.375c0 .481.031.934.094 1.36.07.418.191.789.359 1.11.164.323.39.585.672.78.281.188.64.282 1.078.282.375 0 .68-.07.922-.219.25-.156.453-.348.61-.578.155-.238.265-.504.327-.797.07-.29.11-.563.11-.813 0-.75-.172-1.32-.516-1.718-.336-.395-.86-.594-1.578-.594zm0 0"/></symbol><symbol overflow="visible" id="h"><path d="M.656-3.938c.207-.488.492-1.05.86-1.687a32.96 32.96 0 0 1 2.671-4 20.55 20.55 0 0 1 1.579-1.781h1.468v7.25h1.344v1.25H7.234V0H5.766v-2.906H.656zm5.11-5.656c-.336.356-.672.746-1.016 1.172a22.539 22.539 0 0 0-1.875 2.813 21.16 21.16 0 0 0-.734 1.453h3.625zm0 0"/></symbol><clipPath id="b"><path d="M0 0h159v246.75H0zm0 0"/></clipPath><clipPath id="i"><path d="M34 59.25h13V72H34zm0 0"/></clipPath><clipPath id="j"><path d="M42 59.25h5V72h-5zm0 0"/></clipPath><clipPath id="k"><path d="M34 59.25h13V64H34zm0 0"/></clipPath><clipPath id="l"><path d="M43 59.25h14V72H43zm0 0"/></clipPath><clipPath id="m"><path d="M52 59.25h5V72h-5zm0 0"/></clipPath><clipPath id="n"><path d="M43 59.25h14V64H43zm0 0"/></clipPath><clipPath id="o"><path d="M53 59.25h13V72H53zm0 0"/></clipPath><clipPath id="p"><path d="M61 59.25h5V72h-5zm0 0"/></clipPath><clipPath id="q"><path d="M53 59.25h13V64H53zm0 0"/></clipPath><clipPath id="r"><path d="M63 59.25h13V72H63zm0 0"/></clipPath><clipPath id="s"><path d="M71 59.25h5V72h-5zm0 0"/></clipPath><clipPath id="t"><path d="M63 59.25h13V64H63zm0 0"/></clipPath><clipPath id="u"><path d="M73 59.25h13V72H73zm0 0"/></clipPath><clipPath id="v"><path d="M81 59.25h5V72h-5zm0 0"/></clipPath><clipPath id="w"><path d="M73 59.25h13V64H73zm0 0"/></clipPath><clipPath id="x"><path d="M83 59.25h13V72H83zm0 0"/></clipPath><clipPath id="y"><path d="M91 59.25h5V72h-5zm0 0"/></clipPath><clipPath id="z"><path d="M83 59.25h13V64H83zm0 0"/></clipPath><clipPath id="A"><path d="M93 59.25h13V72H93zm0 0"/></clipPath><clipPath id="B"><path d="M101 59.25h5V72h-5zm0 0"/></clipPath><clipPath id="C"><path d="M93 59.25h13V64H93zm0 0"/></clipPath><clipPath id="D"><path d="M102 59.25h14V72h-14zm0 0"/></clipPath><clipPath id="E"><path d="M111 59.25h5V72h-5zm0 0"/></clipPath><clipPath id="F"><path d="M102 59.25h14V64h-14zm0 0"/></clipPath><clipPath id="G"><path d="M112 59.25h13V72h-13zm0 0"/></clipPath><clipPath id="H"><path d="M120 59.25h5V72h-5zm0 0"/></clipPath><clipPath id="I"><path d="M112 59.25h13V64h-13zm0 0"/></clipPath></defs><path fill="#fff" d="M0 0h159.12v246.96H0z"/><use xlink:href="#a" x="114.547" y="230"/><g clip-path="url(#b)"><path d="M0-25168.496h159V740.25H0zm0 0" fill="#fff"/></g><use xlink:href="#c" x="11.332" y="25.502" fill="#3771c8"/><use xlink:href="#d" x="20.916" y="25.502" fill="#3771c8"/><use xlink:href="#d" x="30.499" y="25.502" fill="#3771c8"/><use xlink:href="#e" x="116.32" y="25.502" fill="#888"/><use xlink:href="#f" x="122.303" y="25.502" fill="#888"/><use xlink:href="#g" x="128.977" y="25.502" fill="#3771c8"/><use xlink:href="#h" x="138.182" y="25.502" fill="#3771c8"/><path d="M34.035 200.988l4.098-4.093h8.191v8.19l-4.097 4.099h-8.192zm0 0" fill="#3771c8"/><path d="M42.227 200.988l4.097-4.093v8.19l-4.097 4.099zm0 0" fill="#214478"/><path d="M34.035 200.988l4.098-4.093h8.191l-4.097 4.093zm0 0" fill="#2c5aa0"/><path d="M43.867 200.988l4.094-4.093h8.191v8.19l-4.093 4.099h-8.192zm0 0" fill="#3771c8"/><path d="M52.059 200.988l4.093-4.093v8.19l-4.093 4.099zm0 0" fill="#214478"/><path d="M43.867 200.988l4.094-4.093h8.191l-4.093 4.093zm0 0" fill="#2c5aa0"/><path d="M34.035 191.156l4.098-4.094h8.191v8.192l-4.097 4.098h-8.192zm0 0" fill="#3771c8"/><path d="M42.227 191.156l4.097-4.094v8.192l-4.097 4.098zm0 0" fill="#214478"/><path d="M34.035 191.156l4.098-4.094h8.191l-4.097 4.094zm0 0" fill="#2c5aa0"/><path d="M43.867 191.156l4.094-4.094h8.191v8.192l-4.093 4.098h-8.192zm0 0" fill="#3771c8"/><path d="M52.059 191.156l4.093-4.094v8.192l-4.093 4.098zm0 0" fill="#214478"/><path d="M43.867 191.156l4.094-4.094h8.191l-4.093 4.094zm0 0" fill="#2c5aa0"/><path d="M53.695 191.156l4.098-4.094h8.191v8.192l-4.097 4.098h-8.192zm0 0" fill="#3771c8"/><path d="M61.887 191.156l4.097-4.094v8.192l-4.097 4.098zm0 0" fill="#214478"/><path d="M53.695 191.156l4.098-4.094h8.191l-4.097 4.094zm0 0" fill="#2c5aa0"/><path d="M63.527 191.156l4.094-4.094h8.192v8.192l-4.094 4.098h-8.192zm0 0" fill="#3771c8"/><path d="M71.719 191.156l4.094-4.094v8.192l-4.094 4.098zm0 0" fill="#214478"/><path d="M63.527 191.156l4.094-4.094h8.192l-4.094 4.094zm0 0" fill="#2c5aa0"/><path d="M73.355 191.156l4.098-4.094h8.192v8.192l-4.098 4.098h-8.192zm0 0" fill="#3771c8"/><path d="M81.547 191.156l4.098-4.094v8.192l-4.098 4.098zm0 0" fill="#214478"/><path d="M73.355 191.156l4.098-4.094h8.192l-4.098 4.094zm0 0" fill="#2c5aa0"/><path d="M83.188 191.156l4.093-4.094h8.192v8.192l-4.094 4.098h-8.192zm0 0" fill="#3771c8"/><path d="M91.379 191.156l4.094-4.094v8.192l-4.094 4.098zm0 0" fill="#214478"/><path d="M83.188 191.156l4.093-4.094h8.192l-4.094 4.094zm0 0" fill="#2c5aa0"/><path d="M93.016 191.156l4.097-4.094h8.192v8.192l-4.098 4.098h-8.191zm0 0" fill="#3771c8"/><path d="M101.207 191.156l4.098-4.094v8.192l-4.098 4.098zm0 0" fill="#214478"/><path d="M93.016 191.156l4.097-4.094h8.192l-4.098 4.094zm0 0" fill="#2c5aa0"/><path d="M102.848 191.156l4.093-4.094h8.192v8.192l-4.094 4.098h-8.191zm0 0" fill="#3771c8"/><path d="M111.04 191.156l4.093-4.094v8.192l-4.094 4.098zm0 0" fill="#214478"/><path d="M102.848 191.156l4.093-4.094h8.192l-4.094 4.094zm0 0" fill="#2c5aa0"/><path d="M112.676 191.156l4.097-4.094h8.192v8.192l-4.098 4.098h-8.191zm0 0" fill="#3771c8"/><path d="M120.867 191.156l4.098-4.094v8.192l-4.098 4.098zm0 0" fill="#214478"/><path d="M112.676 191.156l4.097-4.094h8.192l-4.098 4.094zm0 0" fill="#2c5aa0"/><path d="M34.035 181.328l4.098-4.098h8.191v8.192l-4.097 4.098h-8.192zm0 0" fill="#3771c8"/><path d="M42.227 181.328l4.097-4.098v8.192l-4.097 4.098zm0 0" fill="#214478"/><path d="M34.035 181.328l4.098-4.098h8.191l-4.097 4.098zm0 0" fill="#2c5aa0"/><path d="M43.867 181.328l4.094-4.098h8.191v8.192l-4.093 4.098h-8.192zm0 0" fill="#3771c8"/><path d="M52.059 181.328l4.093-4.098v8.192l-4.093 4.098zm0 0" fill="#214478"/><path d="M43.867 181.328l4.094-4.098h8.191l-4.093 4.098zm0 0" fill="#2c5aa0"/><path d="M53.695 181.328l4.098-4.098h8.191v8.192l-4.097 4.098h-8.192zm0 0" fill="#3771c8"/><path d="M61.887 181.328l4.097-4.098v8.192l-4.097 4.098zm0 0" fill="#214478"/><path d="M53.695 181.328l4.098-4.098h8.191l-4.097 4.098zm0 0" fill="#2c5aa0"/><path d="M63.527 181.328l4.094-4.098h8.192v8.192l-4.094 4.098h-8.192zm0 0" fill="#3771c8"/><path d="M71.719 181.328l4.094-4.098v8.192l-4.094 4.098zm0 0" fill="#214478"/><path d="M63.527 181.328l4.094-4.098h8.192l-4.094 4.098zm0 0" fill="#2c5aa0"/><path d="M73.355 181.328l4.098-4.098h8.192v8.192l-4.098 4.098h-8.192zm0 0" fill="#3771c8"/><path d="M81.547 181.328l4.098-4.098v8.192l-4.098 4.098zm0 0" fill="#214478"/><path d="M73.355 181.328l4.098-4.098h8.192l-4.098 4.098zm0 0" fill="#2c5aa0"/><path d="M83.188 181.328l4.093-4.098h8.192v8.192l-4.094 4.098h-8.192zm0 0" fill="#3771c8"/><path d="M91.379 181.328l4.094-4.098v8.192l-4.094 4.098zm0 0" fill="#214478"/><path d="M83.188 181.328l4.093-4.098h8.192l-4.094 4.098zm0 0" fill="#2c5aa0"/><path d="M93.016 181.328l4.097-4.098h8.192v8.192l-4.098 4.098h-8.191zm0 0" fill="#3771c8"/><path d="M101.207 181.328l4.098-4.098v8.192l-4.098 4.098zm0 0" fill="#214478"/><path d="M93.016 181.328l4.097-4.098h8.192l-4.098 4.098zm0 0" fill="#2c5aa0"/><path d="M102.848 181.328l4.093-4.098h8.192v8.192l-4.094 4.098h-8.191zm0 0" fill="#3771c8"/><path d="M111.04 181.328l4.093-4.098v8.192l-4.094 4.098zm0 0" fill="#214478"/><path d="M102.848 181.328l4.093-4.098h8.192l-4.094 4.098zm0 0" fill="#2c5aa0"/><path d="M112.676 181.328l4.097-4.098h8.192v8.192l-4.098 4.098h-8.191zm0 0" fill="#3771c8"/><path d="M120.867 181.328l4.098-4.098v8.192l-4.098 4.098zm0 0" fill="#214478"/><path d="M112.676 181.328l4.097-4.098h8.192l-4.098 4.098zm0 0" fill="#2c5aa0"/><path d="M34.035 161.664l4.098-4.098h8.191v8.196l-4.097 4.093h-8.192zm0 0" fill="#3771c8"/><path d="M42.227 161.664l4.097-4.098v8.196l-4.097 4.093zm0 0" fill="#214478"/><path d="M34.035 161.664l4.098-4.098h8.191l-4.097 4.098zm0 0" fill="#2c5aa0"/><path d="M43.867 161.664l4.094-4.098h8.191v8.196l-4.093 4.093h-8.192zm0 0" fill="#3771c8"/><path d="M52.059 161.664l4.093-4.098v8.196l-4.093 4.093zm0 0" fill="#214478"/><path d="M43.867 161.664l4.094-4.098h8.191l-4.093 4.098zm0 0" fill="#2c5aa0"/><path d="M53.695 161.664l4.098-4.098h8.191v8.196l-4.097 4.093h-8.192zm0 0" fill="#3771c8"/><path d="M61.887 161.664l4.097-4.098v8.196l-4.097 4.093zm0 0" fill="#214478"/><path d="M53.695 161.664l4.098-4.098h8.191l-4.097 4.098zm0 0" fill="#2c5aa0"/><path d="M63.527 161.664l4.094-4.098h8.192v8.196l-4.094 4.093h-8.192zm0 0" fill="#3771c8"/><path d="M71.719 161.664l4.094-4.098v8.196l-4.094 4.093zm0 0" fill="#214478"/><path d="M63.527 161.664l4.094-4.098h8.192l-4.094 4.098zm0 0" fill="#2c5aa0"/><path d="M73.355 161.664l4.098-4.098h8.192v8.196l-4.098 4.093h-8.192zm0 0" fill="#3771c8"/><path d="M81.547 161.664l4.098-4.098v8.196l-4.098 4.093zm0 0" fill="#214478"/><path d="M73.355 161.664l4.098-4.098h8.192l-4.098 4.098zm0 0" fill="#2c5aa0"/><path d="M83.188 161.664l4.093-4.098h8.192v8.196l-4.094 4.093h-8.192zm0 0" fill="#3771c8"/><path d="M91.379 161.664l4.094-4.098v8.196l-4.094 4.093zm0 0" fill="#214478"/><path d="M83.188 161.664l4.093-4.098h8.192l-4.094 4.098zm0 0" fill="#2c5aa0"/><path d="M93.016 161.664l4.097-4.098h8.192v8.196l-4.098 4.093h-8.191zm0 0" fill="#3771c8"/><path d="M101.207 161.664l4.098-4.098v8.196l-4.098 4.093zm0 0" fill="#214478"/><path d="M93.016 161.664l4.097-4.098h8.192l-4.098 4.098zm0 0" fill="#2c5aa0"/><path d="M102.848 161.664l4.093-4.098h8.192v8.196l-4.094 4.093h-8.191zm0 0" fill="#3771c8"/><path d="M111.04 161.664l4.093-4.098v8.196l-4.094 4.093zm0 0" fill="#214478"/><path d="M102.848 161.664l4.093-4.098h8.192l-4.094 4.098zm0 0" fill="#2c5aa0"/><path d="M112.676 161.664l4.097-4.098h8.192v8.196l-4.098 4.093h-8.191zm0 0" fill="#3771c8"/><path d="M120.867 161.664l4.098-4.098v8.196l-4.098 4.093zm0 0" fill="#214478"/><path d="M112.676 161.664l4.097-4.098h8.192l-4.098 4.098zm0 0" fill="#2c5aa0"/><path d="M34.035 151.832l4.098-4.098h8.191v8.196l-4.097 4.093h-8.192zm0 0" fill="#3771c8"/><path d="M42.227 151.832l4.097-4.098v8.196l-4.097 4.093zm0 0" fill="#214478"/><path d="M34.035 151.832l4.098-4.098h8.191l-4.097 4.098zm0 0" fill="#2c5aa0"/><path d="M43.867 151.832l4.094-4.098h8.191v8.196l-4.093 4.093h-8.192zm0 0" fill="#3771c8"/><path d="M52.059 151.832l4.093-4.098v8.196l-4.093 4.093zm0 0" fill="#214478"/><path d="M43.867 151.832l4.094-4.098h8.191l-4.093 4.098zm0 0" fill="#2c5aa0"/><path d="M53.695 151.832l4.098-4.098h8.191v8.196l-4.097 4.093h-8.192zm0 0" fill="#3771c8"/><path d="M61.887 151.832l4.097-4.098v8.196l-4.097 4.093zm0 0" fill="#214478"/><path d="M53.695 151.832l4.098-4.098h8.191l-4.097 4.098zm0 0" fill="#2c5aa0"/><path d="M63.527 151.832l4.094-4.098h8.192v8.196l-4.094 4.093h-8.192zm0 0" fill="#3771c8"/><path d="M71.719 151.832l4.094-4.098v8.196l-4.094 4.093zm0 0" fill="#214478"/><path d="M63.527 151.832l4.094-4.098h8.192l-4.094 4.098zm0 0" fill="#2c5aa0"/><path d="M73.355 151.832l4.098-4.098h8.192v8.196l-4.098 4.093h-8.192zm0 0" fill="#3771c8"/><path d="M81.547 151.832l4.098-4.098v8.196l-4.098 4.093zm0 0" fill="#214478"/><path d="M73.355 151.832l4.098-4.098h8.192l-4.098 4.098zm0 0" fill="#2c5aa0"/><path d="M83.188 151.832l4.093-4.098h8.192v8.196l-4.094 4.093h-8.192zm0 0" fill="#3771c8"/><path d="M91.379 151.832l4.094-4.098v8.196l-4.094 4.093zm0 0" fill="#214478"/><path d="M83.188 151.832l4.093-4.098h8.192l-4.094 4.098zm0 0" fill="#2c5aa0"/><path d="M93.016 151.832l4.097-4.098h8.192v8.196l-4.098 4.093h-8.191zm0 0" fill="#3771c8"/><path d="M101.207 151.832l4.098-4.098v8.196l-4.098 4.093zm0 0" fill="#214478"/><path d="M93.016 151.832l4.097-4.098h8.192l-4.098 4.098zm0 0" fill="#2c5aa0"/><path d="M102.848 151.832l4.093-4.098h8.192v8.196l-4.094 4.093h-8.191zm0 0" fill="#3771c8"/><path d="M111.04 151.832l4.093-4.098v8.196l-4.094 4.093zm0 0" fill="#214478"/><path d="M102.848 151.832l4.093-4.098h8.192l-4.094 4.098zm0 0" fill="#2c5aa0"/><path d="M112.676 151.832l4.097-4.098h8.192v8.196l-4.098 4.093h-8.191zm0 0" fill="#3771c8"/><path d="M120.867 151.832l4.098-4.098v8.196l-4.098 4.093zm0 0" fill="#214478"/><path d="M112.676 151.832l4.097-4.098h8.192l-4.098 4.098zm0 0" fill="#2c5aa0"/><path d="M34.035 142l4.098-4.098h8.191v8.196l-4.097 4.097h-8.192zm0 0" fill="#3771c8"/><path d="M42.227 142l4.097-4.098v8.196l-4.097 4.097zm0 0" fill="#214478"/><path d="M34.035 142l4.098-4.098h8.191L42.227 142zm0 0" fill="#2c5aa0"/><path d="M43.867 142l4.094-4.098h8.191v8.196l-4.093 4.097h-8.192zm0 0" fill="#3771c8"/><path d="M52.059 142l4.093-4.098v8.196l-4.093 4.097zm0 0" fill="#214478"/><path d="M43.867 142l4.094-4.098h8.191L52.06 142zm0 0" fill="#2c5aa0"/><path d="M102.848 142l4.093-4.098h8.192v8.196l-4.094 4.097h-8.191zm0 0" fill="#3771c8"/><path d="M111.04 142l4.093-4.098v8.196l-4.094 4.097zm0 0" fill="#214478"/><path d="M102.848 142l4.093-4.098h8.192L111.039 142zm0 0" fill="#2c5aa0"/><path d="M112.676 142l4.097-4.098h8.192v8.196l-4.098 4.097h-8.191zm0 0" fill="#3771c8"/><path d="M120.867 142l4.098-4.098v8.196l-4.098 4.097zm0 0" fill="#214478"/><path d="M112.676 142l4.097-4.098h8.192L120.867 142zm0 0" fill="#2c5aa0"/><path d="M34.035 132.168l4.098-4.094h8.191v8.192l-4.097 4.097h-8.192zm0 0" fill="#3771c8"/><path d="M42.227 132.168l4.097-4.094v8.192l-4.097 4.097zm0 0" fill="#214478"/><path d="M34.035 132.168l4.098-4.094h8.191l-4.097 4.094zm0 0" fill="#2c5aa0"/><path d="M43.867 132.168l4.094-4.094h8.191v8.192l-4.093 4.097h-8.192zm0 0" fill="#3771c8"/><path d="M52.059 132.168l4.093-4.094v8.192l-4.093 4.097zm0 0" fill="#214478"/><path d="M43.867 132.168l4.094-4.094h8.191l-4.093 4.094zm0 0" fill="#2c5aa0"/><path d="M53.695 132.168l4.098-4.094h8.191v8.192l-4.097 4.097h-8.192zm0 0" fill="#3771c8"/><path d="M61.887 132.168l4.097-4.094v8.192l-4.097 4.097zm0 0" fill="#214478"/><path d="M53.695 132.168l4.098-4.094h8.191l-4.097 4.094zm0 0" fill="#2c5aa0"/><path d="M63.527 132.168l4.094-4.094h8.192v8.192l-4.094 4.097h-8.192zm0 0" fill="#3771c8"/><path d="M71.719 132.168l4.094-4.094v8.192l-4.094 4.097zm0 0" fill="#214478"/><path d="M63.527 132.168l4.094-4.094h8.192l-4.094 4.094zm0 0" fill="#2c5aa0"/><path d="M73.355 132.168l4.098-4.094h8.192v8.192l-4.098 4.097h-8.192zm0 0" fill="#3771c8"/><path d="M81.547 132.168l4.098-4.094v8.192l-4.098 4.097zm0 0" fill="#214478"/><path d="M73.355 132.168l4.098-4.094h8.192l-4.098 4.094zm0 0" fill="#2c5aa0"/><path d="M83.188 132.168l4.093-4.094h8.192v8.192l-4.094 4.097h-8.192zm0 0" fill="#3771c8"/><path d="M91.379 132.168l4.094-4.094v8.192l-4.094 4.097zm0 0" fill="#214478"/><path d="M83.188 132.168l4.093-4.094h8.192l-4.094 4.094zm0 0" fill="#2c5aa0"/><path d="M93.016 132.168l4.097-4.094h8.192v8.192l-4.098 4.097h-8.191zm0 0" fill="#3771c8"/><path d="M101.207 132.168l4.098-4.094v8.192l-4.098 4.097zm0 0" fill="#214478"/><path d="M93.016 132.168l4.097-4.094h8.192l-4.098 4.094zm0 0" fill="#2c5aa0"/><path d="M102.848 132.168l4.093-4.094h8.192v8.192l-4.094 4.097h-8.191zm0 0" fill="#3771c8"/><path d="M111.04 132.168l4.093-4.094v8.192l-4.094 4.097zm0 0" fill="#214478"/><path d="M102.848 132.168l4.093-4.094h8.192l-4.094 4.094zm0 0" fill="#2c5aa0"/><path d="M112.676 132.168l4.097-4.094h8.192v8.192l-4.098 4.097h-8.191zm0 0" fill="#3771c8"/><path d="M120.867 132.168l4.098-4.094v8.192l-4.098 4.097zm0 0" fill="#214478"/><path d="M112.676 132.168l4.097-4.094h8.192l-4.098 4.094zm0 0" fill="#2c5aa0"/><path d="M34.035 122.336l4.098-4.094h8.191v8.192l-4.097 4.097h-8.192zm0 0" fill="#3771c8"/><path d="M42.227 122.336l4.097-4.094v8.192l-4.097 4.097zm0 0" fill="#214478"/><path d="M34.035 122.336l4.098-4.094h8.191l-4.097 4.094zm0 0" fill="#2c5aa0"/><path d="M43.867 122.336l4.094-4.094h8.191v8.192l-4.093 4.097h-8.192zm0 0" fill="#3771c8"/><path d="M52.059 122.336l4.093-4.094v8.192l-4.093 4.097zm0 0" fill="#214478"/><path d="M43.867 122.336l4.094-4.094h8.191l-4.093 4.094zm0 0" fill="#2c5aa0"/><path d="M53.695 122.336l4.098-4.094h8.191v8.192l-4.097 4.097h-8.192zm0 0" fill="#3771c8"/><path d="M61.887 122.336l4.097-4.094v8.192l-4.097 4.097zm0 0" fill="#214478"/><path d="M53.695 122.336l4.098-4.094h8.191l-4.097 4.094zm0 0" fill="#2c5aa0"/><path d="M63.527 122.336l4.094-4.094h8.192v8.192l-4.094 4.097h-8.192zm0 0" fill="#3771c8"/><path d="M71.719 122.336l4.094-4.094v8.192l-4.094 4.097zm0 0" fill="#214478"/><path d="M63.527 122.336l4.094-4.094h8.192l-4.094 4.094zm0 0" fill="#2c5aa0"/><path d="M73.355 122.336l4.098-4.094h8.192v8.192l-4.098 4.097h-8.192zm0 0" fill="#3771c8"/><path d="M81.547 122.336l4.098-4.094v8.192l-4.098 4.097zm0 0" fill="#214478"/><path d="M73.355 122.336l4.098-4.094h8.192l-4.098 4.094zm0 0" fill="#2c5aa0"/><path d="M83.188 122.336l4.093-4.094h8.192v8.192l-4.094 4.097h-8.192zm0 0" fill="#3771c8"/><path d="M91.379 122.336l4.094-4.094v8.192l-4.094 4.097zm0 0" fill="#214478"/><path d="M83.188 122.336l4.093-4.094h8.192l-4.094 4.094zm0 0" fill="#2c5aa0"/><path d="M93.016 122.336l4.097-4.094h8.192v8.192l-4.098 4.097h-8.191zm0 0" fill="#3771c8"/><path d="M101.207 122.336l4.098-4.094v8.192l-4.098 4.097zm0 0" fill="#214478"/><path d="M93.016 122.336l4.097-4.094h8.192l-4.098 4.094zm0 0" fill="#2c5aa0"/><path d="M102.848 122.336l4.093-4.094h8.192v8.192l-4.094 4.097h-8.191zm0 0" fill="#3771c8"/><path d="M111.04 122.336l4.093-4.094v8.192l-4.094 4.097zm0 0" fill="#214478"/><path d="M102.848 122.336l4.093-4.094h8.192l-4.094 4.094zm0 0" fill="#2c5aa0"/><path d="M112.676 122.336l4.097-4.094h8.192v8.192l-4.098 4.097h-8.191zm0 0" fill="#3771c8"/><path d="M120.867 122.336l4.098-4.094v8.192l-4.098 4.097zm0 0" fill="#214478"/><path d="M112.676 122.336l4.097-4.094h8.192l-4.098 4.094zm0 0" fill="#2c5aa0"/><path d="M34.035 102.676l4.098-4.098h8.191v8.192l-4.097 4.097h-8.192zm0 0" fill="#3771c8"/><path d="M42.227 102.676l4.097-4.098v8.192l-4.097 4.097zm0 0" fill="#214478"/><path d="M34.035 102.676l4.098-4.098h8.191l-4.097 4.098zm0 0" fill="#2c5aa0"/><path d="M43.867 102.676l4.094-4.098h8.191v8.192l-4.093 4.097h-8.192zm0 0" fill="#3771c8"/><path d="M52.059 102.676l4.093-4.098v8.192l-4.093 4.097zm0 0" fill="#214478"/><path d="M43.867 102.676l4.094-4.098h8.191l-4.093 4.098zm0 0" fill="#2c5aa0"/><path d="M53.695 102.676l4.098-4.098h8.191v8.192l-4.097 4.097h-8.192zm0 0" fill="#3771c8"/><path d="M61.887 102.676l4.097-4.098v8.192l-4.097 4.097zm0 0" fill="#214478"/><path d="M53.695 102.676l4.098-4.098h8.191l-4.097 4.098zm0 0" fill="#2c5aa0"/><path d="M63.527 102.676l4.094-4.098h8.192v8.192l-4.094 4.097h-8.192zm0 0" fill="#3771c8"/><path d="M71.719 102.676l4.094-4.098v8.192l-4.094 4.097zm0 0" fill="#214478"/><path d="M63.527 102.676l4.094-4.098h8.192l-4.094 4.098zm0 0" fill="#2c5aa0"/><path d="M73.355 102.676l4.098-4.098h8.192v8.192l-4.098 4.097h-8.192zm0 0" fill="#3771c8"/><path d="M81.547 102.676l4.098-4.098v8.192l-4.098 4.097zm0 0" fill="#214478"/><path d="M73.355 102.676l4.098-4.098h8.192l-4.098 4.098zm0 0" fill="#2c5aa0"/><path d="M83.188 102.676l4.093-4.098h8.192v8.192l-4.094 4.097h-8.192zm0 0" fill="#3771c8"/><path d="M91.379 102.676l4.094-4.098v8.192l-4.094 4.097zm0 0" fill="#214478"/><path d="M83.188 102.676l4.093-4.098h8.192l-4.094 4.098zm0 0" fill="#2c5aa0"/><path d="M93.016 102.676l4.097-4.098h8.192v8.192l-4.098 4.097h-8.191zm0 0" fill="#3771c8"/><path d="M101.207 102.676l4.098-4.098v8.192l-4.098 4.097zm0 0" fill="#214478"/><path d="M93.016 102.676l4.097-4.098h8.192l-4.098 4.098zm0 0" fill="#2c5aa0"/><path d="M102.848 102.676l4.093-4.098h8.192v8.192l-4.094 4.097h-8.191zm0 0" fill="#3771c8"/><path d="M111.04 102.676l4.093-4.098v8.192l-4.094 4.097zm0 0" fill="#214478"/><path d="M102.848 102.676l4.093-4.098h8.192l-4.094 4.098zm0 0" fill="#2c5aa0"/><path d="M112.676 102.676l4.097-4.098h8.192v8.192l-4.098 4.097h-8.191zm0 0" fill="#3771c8"/><path d="M120.867 102.676l4.098-4.098v8.192l-4.098 4.097zm0 0" fill="#214478"/><path d="M112.676 102.676l4.097-4.098h8.192l-4.098 4.098zm0 0" fill="#2c5aa0"/><path d="M34.035 92.844l4.098-4.098h8.191v8.192l-4.097 4.097h-8.192zm0 0" fill="#3771c8"/><path d="M42.227 92.844l4.097-4.098v8.192l-4.097 4.097zm0 0" fill="#214478"/><path d="M34.035 92.844l4.098-4.098h8.191l-4.097 4.098zm0 0" fill="#2c5aa0"/><path d="M43.867 92.844l4.094-4.098h8.191v8.192l-4.093 4.097h-8.192zm0 0" fill="#3771c8"/><path d="M52.059 92.844l4.093-4.098v8.192l-4.093 4.097zm0 0" fill="#214478"/><path d="M43.867 92.844l4.094-4.098h8.191l-4.093 4.098zm0 0" fill="#2c5aa0"/><path d="M53.695 92.844l4.098-4.098h8.191v8.192l-4.097 4.097h-8.192zm0 0" fill="#3771c8"/><path d="M61.887 92.844l4.097-4.098v8.192l-4.097 4.097zm0 0" fill="#214478"/><path d="M53.695 92.844l4.098-4.098h8.191l-4.097 4.098zm0 0" fill="#2c5aa0"/><path d="M63.527 92.844l4.094-4.098h8.192v8.192l-4.094 4.097h-8.192zm0 0" fill="#3771c8"/><path d="M71.719 92.844l4.094-4.098v8.192l-4.094 4.097zm0 0" fill="#214478"/><path d="M63.527 92.844l4.094-4.098h8.192l-4.094 4.098zm0 0" fill="#2c5aa0"/><path d="M73.355 92.844l4.098-4.098h8.192v8.192l-4.098 4.097h-8.192zm0 0" fill="#3771c8"/><path d="M81.547 92.844l4.098-4.098v8.192l-4.098 4.097zm0 0" fill="#214478"/><path d="M73.355 92.844l4.098-4.098h8.192l-4.098 4.098zm0 0" fill="#2c5aa0"/><path d="M83.188 92.844l4.093-4.098h8.192v8.192l-4.094 4.097h-8.192zm0 0" fill="#3771c8"/><path d="M91.379 92.844l4.094-4.098v8.192l-4.094 4.097zm0 0" fill="#214478"/><path d="M83.188 92.844l4.093-4.098h8.192l-4.094 4.098zm0 0" fill="#2c5aa0"/><path d="M93.016 92.844l4.097-4.098h8.192v8.192l-4.098 4.097h-8.191zm0 0" fill="#3771c8"/><path d="M101.207 92.844l4.098-4.098v8.192l-4.098 4.097zm0 0" fill="#214478"/><path d="M93.016 92.844l4.097-4.098h8.192l-4.098 4.098zm0 0" fill="#2c5aa0"/><path d="M102.848 92.844l4.093-4.098h8.192v8.192l-4.094 4.097h-8.191zm0 0" fill="#3771c8"/><path d="M111.04 92.844l4.093-4.098v8.192l-4.094 4.097zm0 0" fill="#214478"/><path d="M102.848 92.844l4.093-4.098h8.192l-4.094 4.098zm0 0" fill="#2c5aa0"/><path d="M112.676 92.844l4.097-4.098h8.192v8.192l-4.098 4.097h-8.191zm0 0" fill="#3771c8"/><path d="M120.867 92.844l4.098-4.098v8.192l-4.098 4.097zm0 0" fill="#214478"/><path d="M112.676 92.844l4.097-4.098h8.192l-4.098 4.098zm0 0" fill="#2c5aa0"/><path d="M34.035 83.012l4.098-4.098h8.191v8.195l-4.097 4.094h-8.192zm0 0" fill="#3771c8"/><path d="M42.227 83.012l4.097-4.098v8.195l-4.097 4.094zm0 0" fill="#214478"/><path d="M34.035 83.012l4.098-4.098h8.191l-4.097 4.098zm0 0" fill="#2c5aa0"/><path d="M43.867 83.012l4.094-4.098h8.191v8.195l-4.093 4.094h-8.192zm0 0" fill="#3771c8"/><path d="M52.059 83.012l4.093-4.098v8.195l-4.093 4.094zm0 0" fill="#214478"/><path d="M43.867 83.012l4.094-4.098h8.191l-4.093 4.098zm0 0" fill="#2c5aa0"/><path d="M102.848 83.012l4.093-4.098h8.192v8.195l-4.094 4.094h-8.191zm0 0" fill="#3771c8"/><path d="M111.04 83.012l4.093-4.098v8.195l-4.094 4.094zm0 0" fill="#214478"/><path d="M102.848 83.012l4.093-4.098h8.192l-4.094 4.098zm0 0" fill="#2c5aa0"/><path d="M112.676 83.012l4.097-4.098h8.192v8.195l-4.098 4.094h-8.191zm0 0" fill="#3771c8"/><path d="M120.867 83.012l4.098-4.098v8.195l-4.098 4.094zm0 0" fill="#214478"/><path d="M112.676 83.012l4.097-4.098h8.192l-4.098 4.098zm0 0" fill="#2c5aa0"/><path d="M34.035 73.18l4.098-4.098h8.191v8.195l-4.097 4.094h-8.192zm0 0" fill="#3771c8"/><path d="M42.227 73.18l4.097-4.098v8.195l-4.097 4.094zm0 0" fill="#214478"/><path d="M34.035 73.18l4.098-4.098h8.191l-4.097 4.098zm0 0" fill="#2c5aa0"/><path d="M43.867 73.18l4.094-4.098h8.191v8.195l-4.093 4.094h-8.192zm0 0" fill="#3771c8"/><path d="M52.059 73.18l4.093-4.098v8.195l-4.093 4.094zm0 0" fill="#214478"/><path d="M43.867 73.18l4.094-4.098h8.191L52.06 73.18zm0 0" fill="#2c5aa0"/><path d="M53.695 73.18l4.098-4.098h8.191v8.195l-4.097 4.094h-8.192zm0 0" fill="#3771c8"/><path d="M61.887 73.18l4.097-4.098v8.195l-4.097 4.094zm0 0" fill="#214478"/><path d="M53.695 73.18l4.098-4.098h8.191l-4.097 4.098zm0 0" fill="#2c5aa0"/><path d="M63.527 73.18l4.094-4.098h8.192v8.195l-4.094 4.094h-8.192zm0 0" fill="#3771c8"/><path d="M71.719 73.18l4.094-4.098v8.195l-4.094 4.094zm0 0" fill="#214478"/><path d="M63.527 73.18l4.094-4.098h8.192l-4.094 4.098zm0 0" fill="#2c5aa0"/><path d="M73.355 73.18l4.098-4.098h8.192v8.195l-4.098 4.094h-8.192zm0 0" fill="#3771c8"/><path d="M81.547 73.18l4.098-4.098v8.195l-4.098 4.094zm0 0" fill="#214478"/><path d="M73.355 73.18l4.098-4.098h8.192l-4.098 4.098zm0 0" fill="#2c5aa0"/><path d="M83.188 73.18l4.093-4.098h8.192v8.195l-4.094 4.094h-8.192zm0 0" fill="#3771c8"/><path d="M91.379 73.18l4.094-4.098v8.195l-4.094 4.094zm0 0" fill="#214478"/><path d="M83.188 73.18l4.093-4.098h8.192l-4.094 4.098zm0 0" fill="#2c5aa0"/><path d="M93.016 73.18l4.097-4.098h8.192v8.195l-4.098 4.094h-8.191zm0 0" fill="#3771c8"/><path d="M101.207 73.18l4.098-4.098v8.195l-4.098 4.094zm0 0" fill="#214478"/><path d="M93.016 73.18l4.097-4.098h8.192l-4.098 4.098zm0 0" fill="#2c5aa0"/><path d="M102.848 73.18l4.093-4.098h8.192v8.195l-4.094 4.094h-8.191zm0 0" fill="#3771c8"/><path d="M111.04 73.18l4.093-4.098v8.195l-4.094 4.094zm0 0" fill="#214478"/><path d="M102.848 73.18l4.093-4.098h8.192l-4.094 4.098zm0 0" fill="#2c5aa0"/><path d="M112.676 73.18l4.097-4.098h8.192v8.195l-4.098 4.094h-8.191zm0 0" fill="#3771c8"/><path d="M120.867 73.18l4.098-4.098v8.195l-4.098 4.094zm0 0" fill="#214478"/><path d="M112.676 73.18l4.097-4.098h8.192l-4.098 4.098zm0 0" fill="#2c5aa0"/><g clip-path="url(#i)"><path d="M34.035 63.348l4.098-4.098h8.191v8.195l-4.097 4.098h-8.192zm0 0" fill="#3771c8"/></g><g clip-path="url(#j)"><path d="M42.227 63.348l4.097-4.098v8.195l-4.097 4.098zm0 0" fill="#214478"/></g><g clip-path="url(#k)"><path d="M34.035 63.348l4.098-4.098h8.191l-4.097 4.098zm0 0" fill="#2c5aa0"/></g><g clip-path="url(#l)"><path d="M43.867 63.348l4.094-4.098h8.191v8.195l-4.093 4.098h-8.192zm0 0" fill="#3771c8"/></g><g clip-path="url(#m)"><path d="M52.059 63.348l4.093-4.098v8.195l-4.093 4.098zm0 0" fill="#214478"/></g><g clip-path="url(#n)"><path d="M43.867 63.348l4.094-4.098h8.191l-4.093 4.098zm0 0" fill="#2c5aa0"/></g><g clip-path="url(#o)"><path d="M53.695 63.348l4.098-4.098h8.191v8.195l-4.097 4.098h-8.192zm0 0" fill="#3771c8"/></g><g clip-path="url(#p)"><path d="M61.887 63.348l4.097-4.098v8.195l-4.097 4.098zm0 0" fill="#214478"/></g><g clip-path="url(#q)"><path d="M53.695 63.348l4.098-4.098h8.191l-4.097 4.098zm0 0" fill="#2c5aa0"/></g><g clip-path="url(#r)"><path d="M63.527 63.348l4.094-4.098h8.192v8.195l-4.094 4.098h-8.192zm0 0" fill="#3771c8"/></g><g clip-path="url(#s)"><path d="M71.719 63.348l4.094-4.098v8.195l-4.094 4.098zm0 0" fill="#214478"/></g><g clip-path="url(#t)"><path d="M63.527 63.348l4.094-4.098h8.192l-4.094 4.098zm0 0" fill="#2c5aa0"/></g><g clip-path="url(#u)"><path d="M73.355 63.348l4.098-4.098h8.192v8.195l-4.098 4.098h-8.192zm0 0" fill="#3771c8"/></g><g clip-path="url(#v)"><path d="M81.547 63.348l4.098-4.098v8.195l-4.098 4.098zm0 0" fill="#214478"/></g><g clip-path="url(#w)"><path d="M73.355 63.348l4.098-4.098h8.192l-4.098 4.098zm0 0" fill="#2c5aa0"/></g><g clip-path="url(#x)"><path d="M83.188 63.348l4.093-4.098h8.192v8.195l-4.094 4.098h-8.192zm0 0" fill="#3771c8"/></g><g clip-path="url(#y)"><path d="M91.379 63.348l4.094-4.098v8.195l-4.094 4.098zm0 0" fill="#214478"/></g><g clip-path="url(#z)"><path d="M83.188 63.348l4.093-4.098h8.192l-4.094 4.098zm0 0" fill="#2c5aa0"/></g><g clip-path="url(#A)"><path d="M93.016 63.348l4.097-4.098h8.192v8.195l-4.098 4.098h-8.191zm0 0" fill="#3771c8"/></g><g clip-path="url(#B)"><path d="M101.207 63.348l4.098-4.098v8.195l-4.098 4.098zm0 0" fill="#214478"/></g><g clip-path="url(#C)"><path d="M93.016 63.348l4.097-4.098h8.192l-4.098 4.098zm0 0" fill="#2c5aa0"/></g><g clip-path="url(#D)"><path d="M102.848 63.348l4.093-4.098h8.192v8.195l-4.094 4.098h-8.191zm0 0" fill="#3771c8"/></g><g clip-path="url(#E)"><path d="M111.04 63.348l4.093-4.098v8.195l-4.094 4.098zm0 0" fill="#214478"/></g><g clip-path="url(#F)"><path d="M102.848 63.348l4.093-4.098h8.192l-4.094 4.098zm0 0" fill="#2c5aa0"/></g><g clip-path="url(#G)"><path d="M112.676 63.348l4.097-4.098h8.192v8.195l-4.098 4.098h-8.191zm0 0" fill="#3771c8"/></g><g clip-path="url(#H)"><path d="M120.867 63.348l4.098-4.098v8.195l-4.098 4.098zm0 0" fill="#214478"/></g><g clip-path="url(#I)"><path d="M112.676 63.348l4.097-4.098h8.192l-4.098 4.098zm0 0" fill="#2c5aa0"/></g></svg>