<svg xmlns="http://www.w3.org/2000/svg" xmlns:xlink="http://www.w3.org/1999/xlink" width="212.16" height="329.28" viewBox="0 0 159.12 246.96"><defs><symbol overflow="visible" id="a"><path d="M2.031-5.828h.672L.672.75H0zm0 0"/></symbol><symbol overflow="visible" id="c"><path d="M1.578-9.344c.645-.25 1.274-.566 1.89-.953a7.809 7.809 0 0 0 1.688-1.484h1.11V0H4.687v-9.594a4.475 4.475 0 0 1-.5.39 7.457 7.457 0 0 1-.64.392c-.23.124-.477.246-.735.359a7.48 7.48 0 0 1-.734.297zm0 0"/></symbol><symbol overflow="visible" id="d"><path d="M3.688-3.844c0 .211-.063.39-.188.547a.604.604 0 0 1-.484.219.614.614 0 0 1-.5-.219.845.845 0 0 1-.188-.547c0-.207.063-.39.188-.547a.604.604 0 0 1 .5-.234c.195 0 .359.078.484.234.125.157.188.34.188.547zm-3.141.14c0-1.25.21-2.206.64-2.874.426-.664 1.032-1 1.813-1 .781 0 1.379.336 1.797 1 .426.668.64 1.625.64 2.875 0 1.242-.214 2.195-.64 2.86-.418.667-1.016 1-1.797 1-.781 0-1.387-.333-1.813-1-.43-.665-.64-1.618-.64-2.86zm3.875 0c0-.413-.027-.8-.078-1.155a3.585 3.585 0 0 0-.235-.954 1.546 1.546 0 0 0-.437-.64.96.96 0 0 0-.672-.25c-.281 0-.516.086-.703.25-.18.156-.324.371-.438.64-.105.274-.183.59-.234.954a9.697 9.697 0 0 0-.063 1.156c0 .406.02.793.063 1.156.05.356.129.668.234.938.114.273.258.492.438.656.187.156.422.234.703.234.27 0 .492-.078.672-.234a1.63 1.63 0 0 0 .437-.656 3.48 3.48 0 0 0 .235-.938c.05-.363.078-.75.078-1.156zm0 0"/></symbol><symbol overflow="visible" id="e"><path d="M4.547 0a14.777 14.777 0 0 0-.672-1.11c-.137-.206-.277-.41-.422-.609a26 26 0 0 0-.437-.562c-.149.18-.297.37-.454.578-.156.2-.312.402-.468.61A13.373 13.373 0 0 0 1.359 0H.344c.258-.477.578-.969.953-1.469.383-.508.758-.992 1.125-1.453L.437-5.547h1.11l1.5 1.938 1.375-1.938h1.047L3.64-2.984c.351.468.71.964 1.078 1.484.363.512.676 1.012.937 1.5zm0 0"/></symbol><symbol overflow="visible" id="f"><path d="M5.672-5.906c0 .312-.094.59-.281.828a.916.916 0 0 1-.75.344c-.325 0-.586-.114-.782-.344a1.304 1.304 0 0 1-.28-.828c0-.32.093-.602.28-.844a.943.943 0 0 1 .782-.375.89.89 0 0 1 .75.375c.187.242.28.523.28.844zm-4.828.203c0-1.914.328-3.383.984-4.406.656-1.032 1.582-1.547 2.781-1.547 1.196 0 2.118.515 2.766 1.547.656 1.023.984 2.492.984 4.406 0 1.906-.328 3.375-.984 4.406C6.727-.273 5.805.234 4.609.234c-1.199 0-2.125-.507-2.78-1.53-.657-1.032-.985-2.5-.985-4.407zm5.968 0c0-.633-.039-1.227-.109-1.781a5.716 5.716 0 0 0-.375-1.47c-.168-.413-.39-.741-.672-.983-.281-.25-.633-.376-1.047-.376-.418 0-.773.126-1.062.376-.281.242-.512.57-.688.984A5.885 5.885 0 0 0 2.5-7.484c-.074.554-.11 1.148-.11 1.78 0 .626.036 1.22.11 1.782.07.555.191 1.04.36 1.453.175.418.406.75.687 1 .289.242.644.36 1.062.36.414 0 .766-.118 1.047-.36.282-.25.504-.582.672-1 .176-.414.3-.898.375-1.453.07-.562.11-1.156.11-1.781zm0 0"/></symbol><symbol overflow="visible" id="g"><path d="M1.375-9.047a9.785 9.785 0 0 0 1.828-.922 7.232 7.232 0 0 0 1.64-1.437h1.063v10.11h2.157V0H1.936v-1.297h2.47V-9.28c-.137.125-.305.25-.5.375-.188.125-.4.25-.626.375a8.43 8.43 0 0 1-.703.36c-.25.105-.492.194-.719.265zm0 0"/></symbol><symbol overflow="visible" id="h"><path d="M7.656-46.688c3.282-1.3 6.578-2.972 9.89-5.015 3.321-2.04 6.259-4.445 8.813-7.219h7.235V0H23.297v-45.156c-1.531 1.199-3.461 2.367-5.781 3.5-2.325 1.125-4.563 2.058-6.72 2.797zm0 0"/></symbol><clipPath id="b"><path d="M0 0h159v246.75H0zm0 0"/></clipPath></defs><path fill="#fff" d="M0 0h159.12v246.96H0z"/><use xlink:href="#a" x="114.547" y="230"/><g clip-path="url(#b)"><path d="M0-19986.75h159V5922H0zm0 0" fill="#fff"/></g><use xlink:href="#c" x="11.332" y="25.5" fill="#f60"/><use xlink:href="#d" x="116.32" y="25.5" fill="#888"/><use xlink:href="#e" x="122.303" y="25.5" fill="#888"/><use xlink:href="#f" x="128.977" y="25.5" fill="#f60"/><use xlink:href="#g" x="138.182" y="25.5" fill="#f60"/><use xlink:href="#h" x="53.098" y="111" fill="#f60"/><path d="M69.902 181.05l6.399-6.374h12.797v12.75l-6.399 6.375H69.902zm0 0" fill="#f60"/><path d="M82.7 181.05l6.398-6.374v12.75l-6.399 6.375zm0 0" fill="#803300"/><path d="M69.902 181.05l6.399-6.374h12.797l-6.399 6.375zm0 0" fill="#bf4d00"/></svg>