<svg xmlns="http://www.w3.org/2000/svg" xmlns:xlink="http://www.w3.org/1999/xlink" width="212.16" height="329.28" viewBox="0 0 159.12 246.96"><defs><symbol overflow="visible" id="a"><path d="M2.031-5.828h.672L.672.75H0zm0 0"/></symbol><symbol overflow="visible" id="c"><path d="M3.39-7.234c1.708.062 2.958.437 3.75 1.125.801.68 1.204 1.601 1.204 2.765 0 .524-.09 1.008-.266 1.453-.18.438-.445.82-.797 1.141-.355.313-.808.559-1.36.734C5.38.16 4.739.25 4 .25A6.835 6.835 0 0 1 2.25.016a12.492 12.492 0 0 1-.703-.188 2.001 2.001 0 0 1-.438-.187l.297-1.375c.196.093.516.214.953.359.438.148.973.219 1.61.219.5 0 .922-.055 1.265-.172.352-.113.633-.266.844-.453.219-.196.375-.422.469-.672a2.21 2.21 0 0 0 .156-.813 2.67 2.67 0 0 0-.234-1.14c-.149-.332-.407-.614-.782-.844-.367-.227-.859-.398-1.484-.516-.625-.125-1.414-.187-2.36-.187.063-.55.114-1.07.157-1.563.04-.488.078-.96.11-1.421.03-.47.054-.93.078-1.391.03-.457.054-.942.078-1.453h5.671v1.344H3.641c-.012.167-.032.398-.063.687-.023.293-.043.594-.062.906-.024.313-.043.617-.063.906-.023.293-.043.528-.062.704zm0 0"/></symbol><symbol overflow="visible" id="d"><path d="M3.688-3.844c0 .211-.063.39-.188.547a.604.604 0 0 1-.484.219.614.614 0 0 1-.5-.219.845.845 0 0 1-.188-.547c0-.207.063-.39.188-.547a.604.604 0 0 1 .5-.234c.195 0 .359.078.484.234.125.157.188.34.188.547zm-3.141.14c0-1.25.21-2.206.64-2.874.426-.664 1.032-1 1.813-1 .781 0 1.379.336 1.797 1 .426.668.64 1.625.64 2.875 0 1.242-.214 2.195-.64 2.86-.418.667-1.016 1-1.797 1-.781 0-1.387-.333-1.813-1-.43-.665-.64-1.618-.64-2.86zm3.875 0c0-.413-.027-.8-.078-1.155a3.585 3.585 0 0 0-.235-.954 1.546 1.546 0 0 0-.437-.64.96.96 0 0 0-.672-.25c-.281 0-.516.086-.703.25-.18.156-.324.371-.438.64-.105.274-.183.59-.234.954a9.697 9.697 0 0 0-.063 1.156c0 .406.02.793.063 1.156.05.356.129.668.234.938.114.273.258.492.438.656.187.156.422.234.703.234.27 0 .492-.078.672-.234a1.63 1.63 0 0 0 .437-.656 3.48 3.48 0 0 0 .235-.938c.05-.363.078-.75.078-1.156zm0 0"/></symbol><symbol overflow="visible" id="e"><path d="M4.547 0a14.777 14.777 0 0 0-.672-1.11c-.137-.206-.277-.41-.422-.609a26 26 0 0 0-.437-.562c-.149.18-.297.37-.454.578-.156.2-.312.402-.468.61A13.373 13.373 0 0 0 1.359 0H.344c.258-.477.578-.969.953-1.469.383-.508.758-.992 1.125-1.453L.437-5.547h1.11l1.5 1.938 1.375-1.938h1.047L3.64-2.984c.351.468.71.964 1.078 1.484.363.512.676 1.012.937 1.5zm0 0"/></symbol><symbol overflow="visible" id="f"><path d="M5.672-5.906c0 .312-.094.59-.281.828a.916.916 0 0 1-.75.344c-.325 0-.586-.114-.782-.344a1.304 1.304 0 0 1-.28-.828c0-.32.093-.602.28-.844a.943.943 0 0 1 .782-.375.89.89 0 0 1 .75.375c.187.242.28.523.28.844zm-4.828.203c0-1.914.328-3.383.984-4.406.656-1.032 1.582-1.547 2.781-1.547 1.196 0 2.118.515 2.766 1.547.656 1.023.984 2.492.984 4.406 0 1.906-.328 3.375-.984 4.406C6.727-.273 5.805.234 4.609.234c-1.199 0-2.125-.507-2.78-1.53-.657-1.032-.985-2.5-.985-4.407zm5.968 0c0-.633-.039-1.227-.109-1.781a5.716 5.716 0 0 0-.375-1.47c-.168-.413-.39-.741-.672-.983-.281-.25-.633-.376-1.047-.376-.418 0-.773.126-1.062.376-.281.242-.512.57-.688.984A5.885 5.885 0 0 0 2.5-7.484c-.074.554-.11 1.148-.11 1.78 0 .626.036 1.22.11 1.782.07.555.191 1.04.36 1.453.175.418.406.75.687 1 .289.242.644.36 1.062.36.414 0 .766-.118 1.047-.36.282-.25.504-.582.672-1 .176-.414.3-.898.375-1.453.07-.562.11-1.156.11-1.781zm0 0"/></symbol><symbol overflow="visible" id="g"><path d="M3.422-7c1.644.063 2.844.43 3.594 1.094.75.656 1.125 1.543 1.125 2.656 0 .512-.086.98-.25 1.406-.157.43-.403.797-.735 1.11-.336.304-.765.543-1.297.718-.523.164-1.136.25-1.843.25-.293 0-.586-.023-.875-.062a9.205 9.205 0 0 1-1.5-.344 3.41 3.41 0 0 1-.422-.172l.297-1.312c.195.093.5.21.906.343.414.137.937.204 1.562.204.489 0 .895-.051 1.22-.157A2.16 2.16 0 0 0 6-1.719a1.79 1.79 0 0 0 .453-.656c.094-.25.14-.508.14-.781 0-.414-.073-.785-.218-1.11-.137-.32-.383-.593-.734-.812-.344-.227-.825-.399-1.438-.516-.605-.113-1.367-.172-2.281-.172.07-.539.129-1.046.172-1.515.039-.477.078-.942.11-1.39.03-.446.05-.892.062-1.329.02-.445.046-.914.078-1.406h5.484v1.297H3.672c-.024.168-.043.39-.063.671-.011.274-.03.563-.062.876-.024.304-.047.593-.078.874-.024.282-.04.512-.047.688zm0 0"/></symbol><symbol overflow="visible" id="h"><path d="M32.563-16.844c0-1.863-.372-3.531-1.11-5-.73-1.476-2.015-2.726-3.86-3.75-1.843-1.02-4.312-1.785-7.405-2.297-3.086-.507-6.981-.765-11.688-.765a338.693 338.693 0 0 0 1.438-15.516c.343-4.906.628-9.82.859-14.75h30.11v8.672H19.562c-.063.96-.137 2.047-.22 3.266a764.897 764.897 0 0 0-.25 3.703c-.085 1.25-.183 2.445-.296 3.578a81.534 81.534 0 0 1-.344 2.89c8.383.45 14.578 2.36 18.578 5.735 4 3.375 6 7.98 6 13.812 0 2.668-.453 5.137-1.36 7.407C40.767-7.598 39.376-5.645 37.5-4c-1.875 1.648-4.23 2.938-7.063 3.875-2.835.938-6.148 1.406-9.937 1.406-1.531 0-3.094-.117-4.688-.343a67.463 67.463 0 0 1-4.546-.813A53.307 53.307 0 0 1 7.39-.844C6.266-1.188 5.414-1.5 4.844-1.78l1.953-8.672c1.195.562 2.914 1.172 5.156 1.828 2.238.648 4.973.969 8.203.969 2.207 0 4.102-.239 5.688-.719 1.593-.477 2.883-1.145 3.875-2 .988-.852 1.707-1.832 2.156-2.938a9.133 9.133 0 0 0 .688-3.53zm0 0"/></symbol><clipPath id="b"><path d="M0 0h159v246.75H0zm0 0"/></clipPath></defs><path fill="#fff" d="M0 0h159.12v246.96H0z"/><use xlink:href="#a" x="114.547" y="230"/><g clip-path="url(#b)"><path d="M0-20727h159V5181.75H0zm0 0" fill="#fff"/></g><use xlink:href="#c" x="11.332" y="25.5" fill="#f60"/><use xlink:href="#d" x="116.32" y="25.5" fill="#888"/><use xlink:href="#e" x="122.303" y="25.5" fill="#888"/><use xlink:href="#f" x="128.977" y="25.5" fill="#f60"/><use xlink:href="#g" x="138.182" y="25.5" fill="#f60"/><use xlink:href="#h" x="56.625" y="111" fill="#f60"/><path d="M31.512 181.05l6.398-6.374h12.797v12.75l-6.398 6.375H31.512zm0 0" fill="#f60"/><path d="M44.309 181.05l6.398-6.374v12.75l-6.398 6.375zm0 0" fill="#803300"/><path d="M31.512 181.05l6.398-6.374h12.797l-6.398 6.375zm0 0" fill="#bf4d00"/><path d="M46.867 181.05l6.399-6.374h12.797v12.75l-6.399 6.375H46.867zm0 0" fill="#f60"/><path d="M59.664 181.05l6.398-6.374v12.75l-6.398 6.375zm0 0" fill="#803300"/><path d="M46.867 181.05l6.399-6.374h12.797l-6.399 6.375zm0 0" fill="#bf4d00"/><path d="M77.582 181.05l6.398-6.374h12.793v12.75L90.38 193.8H77.582zm0 0" fill="#f60"/><path d="M90.379 181.05l6.394-6.374v12.75L90.38 193.8zm0 0" fill="#803300"/><path d="M77.582 181.05l6.398-6.374h12.793l-6.394 6.375zm0 0" fill="#bf4d00"/><path d="M92.938 181.05l6.398-6.374h12.797v12.75l-6.399 6.375H92.938zm0 0" fill="#f60"/><path d="M105.734 181.05l6.399-6.374v12.75l-6.399 6.375zm0 0" fill="#803300"/><path d="M92.938 181.05l6.398-6.374h12.797l-6.399 6.375zm0 0" fill="#bf4d00"/><path d="M108.293 181.05l6.398-6.374h12.797v12.75l-6.398 6.375h-12.797zm0 0" fill="#f60"/><path d="M121.09 181.05l6.398-6.374v12.75l-6.398 6.375zm0 0" fill="#803300"/><path d="M108.293 181.05l6.398-6.374h12.797l-6.398 6.375zm0 0" fill="#bf4d00"/></svg>