<svg xmlns="http://www.w3.org/2000/svg" xmlns:xlink="http://www.w3.org/1999/xlink" width="212.16" height="329.28" viewBox="0 0 159.12 246.96"><defs><symbol overflow="visible" id="a"><path d="M2.031-5.828h.672L.672.75H0zm0 0"/></symbol><symbol overflow="visible" id="c"><path d="M.844-10.563a7.557 7.557 0 0 0 1.281-.562 4.986 4.986 0 0 0 1.094-.797h.828v6.563H2.859v-5c-.25.168-.539.312-.859.437a9.1 9.1 0 0 1-.828.281zm10.25-1.218L4.454 0H2.968l6.656-11.781zm2.687 6.906c0 .242-.058.477-.172.703a3.2 3.2 0 0 1-.421.672 7.45 7.45 0 0 1-.626.672c-.242.219-.496.445-.765.672-.2.168-.39.344-.578.531-.188.188-.297.355-.328.5h3.156v1.063H9.53c-.031-.376-.008-.704.078-.985.082-.289.207-.555.375-.797a4.09 4.09 0 0 1 .563-.656c.219-.195.445-.395.687-.594.383-.332.696-.633.938-.906.25-.281.375-.555.375-.828 0-.3-.094-.52-.281-.656-.188-.133-.45-.204-.782-.204-.187 0-.37.028-.546.079-.168.054-.32.117-.454.187a7.438 7.438 0 0 0-.375.219 1.857 1.857 0 0 0-.234.187l-.61-.843c.188-.196.473-.395.86-.594a3.026 3.026 0 0 1 1.36-.297c.78 0 1.359.168 1.734.5.375.324.562.781.562 1.375zm0 0"/></symbol><symbol overflow="visible" id="d"><path d="M2.203-51.781a48.552 48.552 0 0 0 4.938-3.14 30.556 30.556 0 0 0 4.5-4h4.343v32.905h-5.953v-24.578c-1.93 1.48-3.773 2.586-5.531 3.313zm40.906-7.14L19.047 0h-6.375l24.062-58.922zm12.5 34.265c0 1.367-.214 2.64-.64 3.828a17.666 17.666 0 0 1-1.625 3.36 26.883 26.883 0 0 1-2.125 2.984c-.762.93-1.48 1.789-2.157 2.578a47.266 47.266 0 0 0-2.312 3.031c-.73 1.043-1.234 2.133-1.516 3.266h10.797v5.53h-17.86V-1.53c0-1.469.212-2.852.642-4.157.425-1.312.96-2.53 1.609-3.656a28.626 28.626 0 0 1 2.219-3.281 142.69 142.69 0 0 1 2.422-3.016c1.468-1.812 2.597-3.343 3.39-4.593.8-1.25 1.203-2.524 1.203-3.828 0-1.364-.386-2.368-1.156-3.016a3.966 3.966 0 0 0-2.672-.985c-.855 0-1.75.204-2.687.61-.93.398-1.793.902-2.594 1.515L38-30.438c1.3-.968 2.645-1.718 4.031-2.25A12.283 12.283 0 0 1 46.5-33.5c2.664 0 4.848.797 6.547 2.39 1.707 1.587 2.562 3.735 2.562 6.454zm0 0"/></symbol><clipPath id="b"><path d="M0 0h159v246.75H0zm0 0"/></clipPath></defs><path fill="#fff" d="M0 0h159.12v246.96H0z"/><use xlink:href="#a" x="114.547" y="230"/><g clip-path="url(#b)"><path d="M0-19740h159V6168.75H0zm0 0" fill="#fff"/></g><use xlink:href="#c" x="11.332" y="25.5" fill="#f60"/><use xlink:href="#c" x="132.539" y="25.5" fill="#f60"/><use xlink:href="#d" x="49.348" y="111" fill="#f60"/><path d="M74.703 186.79l3.2-3.188h6.394v6.375l-3.2 3.187h-6.394zm0 0" fill="#f60"/><path d="M81.098 186.79l3.199-3.188v6.375l-3.2 3.187zm0 0" fill="#803300"/><path d="M74.703 186.79l3.2-3.188h6.394l-3.2 3.187zm0 0" fill="#bf4d00"/></svg>